<svg class="main-svg" xmlns="http://www.w3.org/2000/svg" xmlns:xlink="http://www.w3.org/1999/xlink" width="18000" height="9000" style="" viewBox="0 0 3000 1500"><rect x="0" y="0" width="3000" height="1500" style="fill: rgb(255, 255, 255); fill-opacity: 1;"/><defs id="defs-797661"><g class="clips"><clipPath id="clip797661xyplot" class="plotclip"><rect width="2792" height="1311"/></clipPath><clipPath class="axesclip" id="clip797661x"><rect x="128" y="0" width="2792" height="1500"/></clipPath><clipPath class="axesclip" id="clip797661y"><rect x="0" y="100" width="3000" height="1311"/></clipPath><clipPath class="axesclip" id="clip797661xy"><rect x="128" y="100" width="2792" height="1311"/></clipPath></g><g class="gradients"/><g class="patterns"/></defs><g class="bglayer"/><g class="layer-below"><g class="imagelayer"/><g class="shapelayer"/></g><g class="cartesianlayer"><g class="subplot xy"><g class="layer-subplot"><g class="shapelayer"/><g class="imagelayer"/></g><g class="minor-gridlayer"><g class="x"/><g class="y"/></g><g class="gridlayer"><g class="x"><path class="xgrid crisp" transform="translate(358.9,0)" d="M0,100v1311" style="stroke: rgb(235, 240, 248); stroke-opacity: 1; stroke-width: 1px;"/><path class="xgrid crisp" transform="translate(651.53,0)" d="M0,100v1311" style="stroke: rgb(235, 240, 248); stroke-opacity: 1; stroke-width: 1px;"/><path class="xgrid crisp" transform="translate(944.55,0)" d="M0,100v1311" style="stroke: rgb(235, 240, 248); stroke-opacity: 1; stroke-width: 1px;"/><path class="xgrid crisp" transform="translate(1237.18,0)" d="M0,100v1311" style="stroke: rgb(235, 240, 248); stroke-opacity: 1; stroke-width: 1px;"/><path class="xgrid crisp" transform="translate(1530.21,0)" d="M0,100v1311" style="stroke: rgb(235, 240, 248); stroke-opacity: 1; stroke-width: 1px;"/><path class="xgrid crisp" transform="translate(1822.84,0)" d="M0,100v1311" style="stroke: rgb(235, 240, 248); stroke-opacity: 1; stroke-width: 1px;"/><path class="xgrid crisp" transform="translate(2115.87,0)" d="M0,100v1311" style="stroke: rgb(235, 240, 248); stroke-opacity: 1; stroke-width: 1px;"/><path class="xgrid crisp" transform="translate(2408.5,0)" d="M0,100v1311" style="stroke: rgb(235, 240, 248); stroke-opacity: 1; stroke-width: 1px;"/><path class="xgrid crisp" transform="translate(2701.53,0)" d="M0,100v1311" style="stroke: rgb(235, 240, 248); stroke-opacity: 1; stroke-width: 1px;"/></g><g class="y"><path class="ygrid crisp" transform="translate(0,1244.98)" d="M128,0h2792" style="stroke: rgb(235, 240, 248); stroke-opacity: 1; stroke-width: 1px;"/><path class="ygrid crisp" transform="translate(0,982.53)" d="M128,0h2792" style="stroke: rgb(235, 240, 248); stroke-opacity: 1; stroke-width: 1px;"/><path class="ygrid crisp" transform="translate(0,720.08)" d="M128,0h2792" style="stroke: rgb(235, 240, 248); stroke-opacity: 1; stroke-width: 1px;"/><path class="ygrid crisp" transform="translate(0,457.64)" d="M128,0h2792" style="stroke: rgb(235, 240, 248); stroke-opacity: 1; stroke-width: 1px;"/><path class="ygrid crisp" transform="translate(0,195.19)" d="M128,0h2792" style="stroke: rgb(235, 240, 248); stroke-opacity: 1; stroke-width: 1px;"/></g></g><g class="zerolinelayer"/><path class="xlines-below"/><path class="ylines-below"/><g class="overlines-below"/><g class="xaxislayer-below"/><g class="yaxislayer-below"/><g class="overaxes-below"/><g class="plot" transform="translate(128,100)" clip-path="url(#clip797661xyplot)"><g class="scatterlayer mlayer"><g class="trace scatter trace48a9b0" style="stroke-miterlimit: 2; opacity: 1;"><g class="fills"/><g class="errorbars"/><g class="lines"><path class="js-line" d="M0,1012.47L19.64,991.23L22.45,988.03L39.28,966.84L42.09,964.08L56.12,951.09L58.93,948.59L106.63,907.81L109.44,905.12L137.5,878.2L140.3,875.72L148.72,868.94L151.53,867.05L171.17,854.09L173.97,853.06L185.2,849.49L188,848.89L196.42,847.75L199.23,847.93L207.65,848.84L210.45,849.67L227.29,855.4L230.09,856.47L246.93,861.84L249.74,862.46L258.15,863.75L260.96,863.8L297.44,863.65L300.25,863.34L319.89,861.35L322.69,861.51L328.31,861.99L331.11,863.25L342.34,869.02L345.14,871.29L359.17,883.4L361.98,885.99L378.81,900.75L381.62,903.06L409.68,926.12L412.49,928.75L420.9,939.25L423.71,942.89L454.58,982.35L457.38,986.61L477.03,1015.87L479.83,1019.03L493.86,1035.75L496.67,1039.28L502.28,1045.53L505.09,1048.36L516.31,1060.64L519.12,1064.05L527.53,1073.26L530.34,1075.97L538.76,1084.94L541.56,1088.5L564.01,1115.94L566.82,1119.07L578.04,1132.44L580.85,1136.03L597.68,1157.32L600.49,1159.81L611.71,1170.72L614.52,1174.51L620.13,1182.1L622.94,1184.17L636.97,1190.41L639.77,1191.29L645.39,1193.05L648.19,1192.51L659.42,1190.02L662.22,1188.84L676.25,1182.33L679.06,1180.88L684.67,1178.61L687.48,1177.91L707.12,1172.18L709.93,1171.37L743.6,1161.08L746.4,1161.11L757.63,1161.71L760.43,1162.6L766.05,1164.39L768.85,1164.21L780.08,1160.37L782.88,1160.11L794.11,1159.54L796.91,1159.81L808.14,1161.62L810.94,1162.4L824.97,1167.05L827.78,1168.08L855.84,1178.84L858.65,1179.25L895.12,1185.08L897.93,1185.74L903.54,1187.68L906.35,1189.79L911.96,1194.03L914.77,1195.11L928.8,1194.18L931.6,1194.5L945.63,1195.45L948.44,1195.53L968.08,1196.41L970.89,1196.74L979.3,1198.37L982.11,1199.11L996.14,1203.43L998.95,1204.37L1021.39,1210.66L1024.2,1211.29L1060.68,1214.99L1063.49,1213.5L1077.52,1205.32L1080.32,1203.39L1097.16,1192.12L1099.96,1190.96L1161.7,1165.14L1164.5,1163.55L1184.14,1153.11L1186.95,1151.64L1200.98,1143.58L1203.79,1141.74L1206.59,1139.91L1209.4,1136.49L1220.62,1123.24L1223.43,1120.61L1234.65,1110.68L1237.46,1108.52L1282.36,1073.88L1285.16,1072.02L1296.39,1065.19L1299.19,1063.76L1310.42,1058.69L1313.22,1057.59L1332.86,1050.31L1335.67,1049.58L1349.7,1045.35L1352.51,1044.42L1366.54,1040.23L1369.34,1039.86L1394.6,1036.98L1397.4,1036.85L1408.63,1035.71L1411.43,1035.33L1422.66,1033.1L1425.46,1032.48L1436.69,1028.16L1439.49,1027.09L1456.33,1020.98L1459.14,1019.72L1470.36,1015.34L1473.17,1014.34L1478.78,1011.81L1481.58,1010.34L1490,1006.35L1492.81,1005.46L1523.67,996.51L1526.48,995.85L1560.15,987.61L1562.96,986.57L1585.41,977.24L1588.21,975.94L1605.05,968.91L1607.86,967.89L1630.3,960.59L1633.11,959.81L1666.78,949.33L1669.59,948.71L1694.84,941.55L1697.65,940.59L1731.32,928.5L1734.13,927.1L1773.41,906.89L1776.22,905.9L1798.67,898.73L1801.47,897.96L1812.7,894.29L1815.5,893.32L1832.34,887.38L1835.14,885.89L1846.37,880.53L1849.17,879.37L1857.59,875.21L1860.4,873.57L1874.43,866.01L1877.23,864.58L1913.71,844.49L1916.52,842.82L1927.74,836.29L1930.55,835.45L1944.58,831.79L1947.38,831.2L1961.42,827.51L1964.22,826.75L1997.89,818.49L2000.7,817.88L2028.76,810.09L2031.57,809.59L2051.21,806.62L2054.01,806.49L2076.46,805.88L2079.27,806.19L2087.69,806.44L2090.49,806.08L2110.13,802.76L2112.94,802.36L2126.97,799.76L2129.78,799.03L2152.23,792.72L2155.03,791.69L2166.26,786.89L2169.06,785.61L2199.93,772.12L2202.73,771.27L2222.38,765.02L2225.18,764.61L2236.41,763.55L2239.21,763.48L2250.44,763.86L2253.24,764.08L2258.85,764.01L2261.66,763.73L2267.27,763.17L2270.08,761.47L2281.3,750.03L2284.11,745.95L2298.14,724.6L2300.94,720.01L2312.17,700.39L2314.97,695.29L2323.39,681.57L2326.2,677.21L2343.04,652.2L2345.84,648.55L2371.1,616.24L2373.9,612.07L2390.74,586.91L2393.54,581.59L2418.8,532.2L2421.6,526.45L2427.22,515.17L2430.02,510.99L2466.5,455.85L2469.31,451.21L2477.72,436.71L2480.53,431.07L2500.17,390.72L2502.98,383.3L2525.43,322.82L2528.23,317.86L2539.46,299.07L2542.26,295.18L2547.88,287.4L2550.68,285.68L2561.91,282.98L2564.71,284.63L2573.13,289.56L2575.94,293.85L2592.77,318.33L2595.58,322.13L2598.38,325.56L2601.19,326.75L2629.25,339.14L2632.06,340.68L2637.67,343.07L2640.47,344L2648.89,346.27L2651.7,346.48L2660.12,346.65L2662.92,345.28L2665.73,343.9L2668.53,340.83L2682.56,327.53L2685.37,324.08L2696.59,311.25L2699.4,308.43L2707.82,299L2710.63,295.35L2724.66,278.21L2727.46,274.95L2738.69,264L2744.3,261.35L2755.52,251.81L2758.33,250.59L2775.16,245.43L2777.97,244.4L2783.58,242.84L2786.39,242.3L2792,241.22" style="vector-effect: none; fill: none; stroke: rgb(99, 110, 250); stroke-opacity: 1; stroke-width: 2px; opacity: 1;"/></g><g class="points"/><g class="text"/></g><g class="trace scatter trace7b9b7f" style="stroke-miterlimit: 2; opacity: 1;"><g class="fills"/><g class="errorbars"/><g class="lines"><path class="js-line" d="M0,1009.07L8.42,1010.94L11.22,1011.08L19.64,1010.41L22.45,1009.88L30.87,1007.37L33.67,1006.22L44.9,1000.41L47.7,998.73L61.73,989.32L64.54,987.29L98.21,961.55L101.02,959.25L126.27,937.41L129.08,934.89L145.91,918.84L148.72,915.88L165.56,896.77L168.36,893.19L185.2,869.47L188,865.49L199.23,850.92L202.03,847.79L210.45,839.82L213.26,837.68L221.68,832.87L224.48,831.66L232.9,828.86L235.71,828.21L244.12,827.15L246.93,827.09L255.35,827.8L258.15,828.34L266.57,830.85L269.38,831.96L283.41,838.64L286.22,840.14L328.31,863.1L331.11,864.33L342.34,868.37L345.14,869.12L392.84,881.08L395.65,881.9L415.29,888.4L418.1,889.5L434.93,897.13L437.74,898.56L454.58,908.3L457.38,910.11L474.22,922.16L477.03,924.36L493.86,938.68L496.67,941.25L513.5,957.77L516.31,960.71L533.15,979.55L535.95,982.92L555.59,1008.01L558.4,1011.76L625.74,1102.08L628.55,1105.53L659.42,1141.77L662.22,1145.05L701.51,1190.96L704.31,1193.79L712.73,1201.01L715.54,1202.9L723.96,1207.01L726.76,1207.91L735.18,1209.34L737.99,1209.44L746.4,1208.77L749.21,1208.26L760.43,1205.07L763.24,1204.05L782.88,1195.6L785.69,1194.45L808.14,1184.89L810.94,1183.44L839,1168.27L841.81,1167.36L847.42,1166.27L850.23,1166.14L855.84,1166.79L858.65,1167.61L872.68,1173.72L875.48,1175.09L903.54,1188.29L906.35,1189.33L920.38,1193.36L923.18,1194.09L940.02,1199.09L942.83,1200.11L973.69,1212.56L976.5,1213.71L1010.17,1228.88L1012.98,1229.71L1024.2,1231.9L1027.01,1232.12L1035.43,1231.86L1038.23,1231.46L1046.65,1229.29L1049.46,1228.12L1057.87,1223.58L1060.68,1221.82L1066.29,1216.97L1069.1,1213.94L1077.52,1205.1L1080.32,1203.03L1085.93,1200.38L1088.74,1199.52L1099.96,1197.62L1102.77,1197.39L1116.8,1197.23L1119.61,1197.34L1142.05,1198.06L1144.86,1197.89L1153.28,1196.67L1156.08,1195.98L1164.5,1192.86L1167.31,1191.41L1175.73,1185.97L1178.53,1183.82L1189.76,1173.84L1192.56,1171.06L1209.4,1152.82L1212.21,1149.63L1234.65,1124.84L1237.46,1122.04L1248.68,1112.27L1251.49,1110.34L1257.1,1107.44L1259.91,1106.42L1268.33,1104.84L1271.13,1104.72L1282.36,1105.63L1285.16,1106.07L1304.8,1108.77L1307.61,1108.52L1313.22,1106.99L1316.03,1105.69L1321.64,1102.01L1324.45,1099.61L1330.06,1093.52L1332.86,1089.62L1344.09,1070.92L1346.89,1065.95L1360.92,1041.89L1363.73,1037.63L1369.34,1030.12L1372.15,1027.2L1377.76,1023.65L1380.57,1022.86L1386.18,1023.04L1388.98,1023.93L1403.02,1030.2L1405.82,1030.85L1411.43,1031.21L1414.24,1031.05L1425.46,1031L1428.27,1031.33L1436.69,1033.59L1439.49,1034.59L1461.94,1043.3L1464.75,1043.69L1470.36,1043.05L1473.17,1042.07L1478.78,1038.88L1481.58,1036.71L1490,1028.12L1492.81,1024.62L1501.23,1012.53L1504.03,1008.03L1523.67,976.03L1526.48,972.09L1534.9,962.12L1537.7,959.53L1543.32,955.67L1546.12,954.48L1551.73,953.77L1554.54,954.23L1574.18,958.56L1576.99,959.03L1591.02,960.54L1593.83,960.64L1605.05,960.22L1607.86,959.89L1619.08,957.51L1621.89,956.62L1635.92,951L1638.72,949.75L1663.98,937.44L1666.78,936L1708.87,915.21L1711.68,913.84L1750.96,895.37L1753.77,894.18L1776.22,885.6L1779.02,884.55L1818.31,868.94L1821.11,867.75L1857.59,851.4L1860.4,850.1L1913.71,825.78L1916.52,824.61L1941.77,813.91L1944.58,812.32L1958.61,803.23L1961.42,801.31L1978.25,790.48L1981.06,788.93L1989.48,785.75L1992.28,785.14L2000.7,784.59L2003.51,784.91L2011.92,787.69L2014.73,789L2045.6,804.16L2048.4,804.92L2054.01,805.71L2056.82,805.69L2062.43,804.66L2065.24,803.59L2070.85,800.3L2073.66,798.25L2107.33,772.52L2110.13,770.7L2121.36,764.49L2124.16,763.21L2138.19,757.9L2141,757.06L2155.03,753.79L2157.84,753.3L2174.67,751.38L2177.48,751.19L2199.93,750.65L2202.73,750.64L2225.18,749.88L2227.99,749.64L2242.02,747.68L2244.82,747.1L2256.05,744.08L2258.85,743.13L2270.08,738.36L2272.88,736.91L2284.11,729.98L2286.91,727.94L2298.14,718.4L2300.94,715.65L2314.97,700.3L2317.78,697.06L2337.42,672.99L2340.23,669.36L2357.07,646.23L2359.87,641.96L2376.71,614.54L2379.51,609.73L2401.96,569.24L2404.77,563.99L2486.14,409.9L2488.95,404.95L2517.01,354.86L2519.82,349.51L2542.26,304.65L2545.07,298.81L2581.55,222.3L2584.35,218.33L2587.16,215.5L2589.97,213.78L2592.77,213.09L2595.58,213.37L2598.38,214.57L2601.19,216.62L2606.8,223.02L2609.61,227.23L2618.03,243.14L2620.83,249.31L2632.06,276.63L2634.86,283.8L2648.89,318.66L2651.7,324.78L2657.31,335.08L2660.12,339.11L2665.73,344.81L2668.53,346.46L2671.34,347.29L2674.15,347.29L2676.95,346.44L2679.76,344.72L2685.37,338.62L2688.18,334.47L2705.01,308.94L2707.82,305.19L2716.24,295.42L2719.04,292.73L2727.46,286.05L2730.27,284.28L2738.69,280.18L2744.3,279.19L2752.72,277.16L2755.52,276.77L2766.75,276.33L2769.55,276.48L2783.58,278.4L2786.39,278.93L2792,280.09" style="vector-effect: none; fill: none; stroke: rgb(239, 85, 59); stroke-opacity: 1; stroke-width: 2px; opacity: 1;"/></g><g class="points"/><g class="text"/></g><g class="trace scatter trace26ea8b" style="stroke-miterlimit: 2; opacity: 0.4;"><g class="fills"/><g class="errorbars"/><g class="lines"><path class="js-line" d="M0,1029.79L2.81,1023.09L5.61,1023.69L8.42,1012.24L11.22,1010.65L14.03,1009.62L16.84,1004.73L19.64,1023.19L22.45,1014.85L25.25,997.74L28.06,1006.62L30.87,989.66L33.67,996.57L36.48,984.17L39.28,983.94L42.09,997.47L44.9,992.86L47.7,994.2L50.51,989.08L53.31,1002.5L56.12,1004.31L58.93,1008.72L61.73,996.64L64.54,999.59L67.34,976.2L70.15,976.09L72.96,973.81L78.57,953.24L81.37,948.52L84.18,946.58L86.99,951L92.6,940.3L95.41,950.7L98.21,945.91L101.02,975.06L103.82,969.55L106.63,976.43L109.44,975.06L112.24,962.03L115.05,961.85L117.85,950.71L120.66,947.24L123.47,948.35L126.27,946.11L129.08,933.99L131.88,930.67L134.69,909.84L137.5,909.87L140.3,914.75L143.11,910.95L145.91,917.1L148.72,913.45L151.53,904.13L154.33,921.36L157.14,931.07L159.94,934.93L162.75,934.48L165.56,940.8L168.36,927.93L171.17,894.92L173.97,875.34L176.78,874.81L179.59,837.31L182.39,838.71L185.2,848.4L188,852.14L190.81,854.51L193.62,860.53L196.42,848.95L199.23,873.53L202.03,860.57L204.84,856.68L207.65,843.07L210.45,835.45L213.26,841.74L216.06,840.74L218.87,825.05L227.29,855.12L230.09,852.6L232.9,840.17L235.71,842.85L241.32,832.96L244.12,838.3L246.93,822.24L249.74,816.26L252.54,803.6L255.35,819.03L258.15,808.61L260.96,815.4L263.77,801.86L266.57,800.01L269.38,810.97L272.18,816.26L274.99,822.36L277.8,825.92L280.6,834.9L283.41,830.52L286.22,830.33L289.02,835.13L291.83,827.16L294.63,828L297.44,825.81L300.25,846.42L303.05,852.18L305.86,848.05L308.66,854.43L311.47,853.56L314.28,867.75L317.08,874.1L322.69,852.43L325.5,850.58L328.31,855.81L331.11,871.91L333.92,881.35L336.72,886.2L339.53,909.33L342.34,911.59L345.14,906.7L347.95,897.33L350.75,886.95L353.56,883.87L359.17,892.22L361.98,898.99L364.78,900.69L367.59,878.29L370.4,882.44L373.2,868.06L376.01,863.69L378.81,863.3L381.62,865.27L384.43,861.85L387.23,856.57L390.04,861.29L392.84,856.13L395.65,856.24L398.46,855.66L401.26,849.95L404.07,857.55L406.87,855.29L409.68,861.34L412.49,864.09L415.29,871.23L418.1,870.1L420.9,843.79L423.71,846.26L426.52,848.41L429.32,870.28L434.93,895.45L437.74,900.61L440.55,902.05L443.35,896.42L446.16,879.83L448.96,870.16L454.58,889.96L457.38,892.74L460.19,921.03L462.99,929.6L465.8,922.35L468.61,925.74L474.22,957.38L477.03,956.55L479.83,966.43L482.64,961.21L485.44,969.51L488.25,962.85L491.06,969.69L493.86,973.33L496.67,975.59L499.47,964.25L502.28,979.21L505.09,980.31L507.89,986.62L510.7,972.62L513.5,991.44L516.31,984.48L519.12,993.48L521.92,999.15L524.73,1006.93L527.53,1007.69L533.15,1033.03L535.95,1035.84L538.76,1033.5L541.56,1008.6L544.37,1015L547.18,1014.08L549.98,1022.24L552.79,1019.34L558.4,1037.01L561.21,1038.06L564.01,1033.73L566.82,1020.03L569.62,1017.42L572.43,1026.4L575.24,1048.97L578.04,1047.28L580.85,1060.17L583.65,1048.27L586.46,1033.64L589.27,1038.28L592.07,1039L594.88,1047.45L597.68,1038.18L600.49,1035.77L603.3,1040.56L606.1,1050.07L608.91,1061.86L611.71,1077.5L614.52,1081.78L617.33,1082.21L620.13,1082.25L622.94,1094.82L625.74,1080.44L628.55,1082.81L631.36,1071.45L634.16,1068.32L636.97,1071.9L639.77,1079.19L642.58,1081.63L645.39,1092.61L656.61,1116.52L659.42,1114.27L662.22,1118.61L665.03,1111.98L667.84,1123.7L670.64,1131L673.45,1144.76L676.25,1147.73L679.06,1166.81L681.87,1170.84L684.67,1175.65L687.48,1185.85L690.28,1207.35L693.09,1211.06L695.9,1218.69L698.7,1223.68L701.51,1219.63L704.31,1212.68L707.12,1209.93L709.93,1210.46L712.73,1208.52L715.54,1225.73L718.34,1220.91L721.15,1218.6L723.96,1222.65L726.76,1217.64L729.57,1210.62L732.37,1207.92L737.99,1212.07L740.79,1210.31L746.4,1207.86L749.21,1203.3L752.02,1206.23L754.82,1212.67L757.63,1215.8L760.43,1211.47L763.24,1196.76L766.05,1200.42L771.66,1195.72L774.46,1194.57L777.27,1192.57L780.08,1188.12L782.88,1183.83L785.69,1195.2L788.49,1193.17L791.3,1194.25L794.11,1186.39L796.91,1188.62L799.72,1188.35L802.52,1190.97L805.33,1192.56L808.14,1182.41L810.94,1188.08L813.75,1175.89L816.55,1180.92L819.36,1178.42L822.17,1177.69L824.97,1172.86L827.78,1170.7L830.58,1174.45L833.39,1165.8L836.2,1174.47L839,1177.59L841.81,1176.71L844.62,1171.81L847.42,1169.66L850.23,1161.41L853.03,1159.74L855.84,1160.61L858.65,1160.48L861.45,1165.03L864.26,1163.06L867.06,1169.37L869.87,1167.83L872.68,1183.21L875.48,1189.52L878.29,1180.65L881.09,1179.91L883.9,1177.62L886.71,1186.72L892.32,1201.85L895.12,1199.47L897.93,1207.14L900.74,1207.76L903.54,1206.44L906.35,1202.49L911.96,1191.21L914.77,1187L917.57,1195.13L920.38,1197.52L923.18,1205.75L925.99,1207.33L928.8,1215.96L931.6,1211.11L940.02,1211.69L942.83,1208.25L945.63,1197.17L948.44,1195.69L951.24,1196.8L954.05,1200.77L956.86,1198.32L959.66,1197.78L962.47,1206.33L965.27,1200.03L968.08,1200.87L970.89,1193.49L973.69,1193.43L976.5,1196.38L979.3,1199.25L982.11,1211.69L984.92,1220.5L987.72,1226.66L990.53,1230.47L993.33,1225.51L996.14,1230.03L998.95,1228.03L1001.75,1234.96L1004.56,1224.94L1007.36,1228.17L1010.17,1229.35L1012.98,1229.08L1015.78,1233.59L1018.59,1233.9L1021.39,1237.41L1024.2,1233.22L1027.01,1233.61L1029.81,1230.12L1032.62,1230.68L1041.04,1216.94L1043.84,1222.94L1046.65,1219.61L1049.46,1227.23L1052.26,1227.13L1055.07,1231.37L1057.87,1230.59L1060.68,1225.7L1063.49,1221.1L1066.29,1220.46L1069.1,1207.36L1071.9,1213.67L1074.71,1203.7L1077.52,1203.66L1080.32,1207.38L1083.13,1201.53L1085.93,1202.82L1088.74,1200.34L1094.35,1195.18L1097.16,1201.78L1099.96,1195.64L1102.77,1191.63L1105.58,1201.74L1108.38,1194.58L1111.19,1190.85L1113.99,1193.8L1116.8,1194.57L1119.61,1196.8L1122.41,1197.46L1125.22,1200.26L1128.02,1202.78L1130.83,1199.24L1133.64,1203.6L1136.44,1194.68L1142.05,1194.68L1144.86,1188.71L1147.67,1186.86L1150.47,1198.34L1156.08,1207.59L1158.89,1210.45L1161.7,1196.88L1164.5,1201.57L1167.31,1192.35L1170.11,1197.04L1172.92,1187.25L1175.73,1189.04L1178.53,1186.17L1181.34,1181.6L1184.14,1170.04L1186.95,1176.52L1189.76,1181.92L1192.56,1178.58L1195.37,1167.14L1198.17,1164.14L1203.79,1148.03L1206.59,1146.85L1209.4,1139.19L1212.21,1141.94L1215.01,1139.65L1217.82,1138.92L1220.62,1134.92L1223.43,1137.72L1226.24,1129.99L1229.04,1131.32L1231.85,1131.24L1234.65,1127.61L1237.46,1126.55L1240.27,1123L1243.07,1118.99L1245.88,1118.58L1251.49,1126.17L1254.3,1125.2L1257.1,1123.25L1259.91,1107.46L1265.52,1098.26L1268.33,1100.32L1271.13,1107.55L1273.94,1104.08L1276.74,1101.21L1279.55,1091.9L1285.16,1110.6L1287.97,1101.51L1290.77,1085.36L1293.58,1100.73L1296.39,1096.44L1299.19,1087.23L1302,1097.98L1304.8,1093.9L1307.61,1100.29L1310.42,1095.01L1316.03,1103.05L1318.83,1099.63L1321.64,1097.63L1324.45,1112.59L1327.25,1111.2L1330.06,1102.11L1332.86,1110.8L1335.67,1113.57L1338.48,1105.33L1341.28,1100.58L1344.09,1084.34L1346.89,1078.61L1349.7,1066.99L1352.51,1061.25L1355.31,1056.48L1358.12,1039.47L1360.92,1019.64L1363.73,1013.55L1366.54,997.28L1369.34,999.14L1372.15,1013.75L1374.95,1018.57L1380.57,1033.65L1383.37,1027.24L1386.18,1040.95L1388.98,1031.8L1391.79,1026.7L1394.6,1028.15L1397.4,1020.23L1400.21,1041.44L1403.02,1038.01L1405.82,1029.28L1408.63,1029.42L1411.43,1021.16L1414.24,1022.38L1417.05,1010.88L1422.66,1034.69L1425.46,1031.35L1428.27,1036.27L1431.08,1030.5L1439.49,1058.17L1442.3,1026.73L1445.11,1014.35L1447.91,1021.26L1450.72,1031.83L1453.52,1036.34L1456.33,1025.16L1459.14,1033.62L1461.94,1031.36L1464.75,1053.5L1467.55,1048.95L1470.36,1045.83L1473.17,1049.58L1475.97,1037.97L1478.78,1049.68L1481.58,1045.47L1484.39,1043.48L1487.2,1048L1490,1049.94L1492.81,1038.75L1495.61,1034.58L1498.42,1016.75L1501.23,1017.88L1504.03,1022.67L1506.84,1032.86L1509.64,1025.73L1512.45,1030.17L1515.26,1020.23L1518.06,1004.49L1520.87,1011.4L1523.67,1010.7L1526.48,992.66L1529.29,977.46L1532.09,978.06L1534.9,961.6L1537.7,936.95L1540.51,913.43L1543.32,910.01L1546.12,898.57L1548.93,894.54L1551.73,874.56L1554.54,886.55L1557.35,889.29L1560.15,893.37L1562.96,890.64L1565.76,894.66L1568.57,915.14L1571.38,918.72L1574.18,926.48L1576.99,938.79L1579.79,941.61L1582.6,939.05L1585.41,951.03L1588.21,957.99L1591.02,956.5L1593.83,972.73L1596.63,975.36L1599.44,982.34L1602.24,987.76L1605.05,990.48L1607.86,994.28L1610.66,990.65L1613.47,1007.79L1616.27,1018.42L1619.08,1018.76L1621.89,1021.89L1624.69,1012.45L1627.5,1013.2L1630.3,1014.83L1633.11,1009.63L1635.92,1002.49L1638.72,998.57L1641.53,986.23L1644.33,983.26L1649.95,966.73L1652.75,953.73L1655.56,954.08L1658.36,973.32L1661.17,953.57L1663.98,945.04L1666.78,917.41L1669.59,919.81L1672.39,910.17L1675.2,896.95L1678.01,896.38L1680.81,898.96L1686.42,867.9L1689.23,868.48L1694.84,847.05L1697.65,847.42L1700.45,840L1703.26,848.67L1706.07,852.64L1708.87,849.71L1711.68,861.53L1714.48,877.36L1717.29,894.99L1720.1,894.83L1725.71,907.99L1728.51,905.87L1731.32,907.15L1734.13,917.77L1736.93,922.22L1739.74,919.62L1742.54,901.65L1745.35,910.05L1750.96,917.37L1753.77,938.56L1756.57,936.07L1759.38,935.94L1762.19,942.78L1764.99,939.69L1767.8,936.22L1770.61,941.67L1773.41,941.17L1776.22,922.73L1779.02,934.73L1781.83,914.28L1784.64,906.34L1787.44,919.96L1790.25,918.26L1793.05,907.52L1795.86,908.9L1798.67,888.38L1801.47,897L1804.28,892.62L1807.08,881.05L1809.89,884L1812.7,876.5L1815.5,860.35L1818.31,851.13L1821.11,856.97L1823.92,857.87L1826.73,837.35L1829.53,823.03L1832.34,831.81L1835.14,824.17L1837.95,829.01L1840.76,827.59L1843.56,824.25L1846.37,833.93L1849.17,818.94L1851.98,829.17L1854.79,829.98L1857.59,829.23L1860.4,821.9L1863.2,828.9L1866.01,845.14L1868.82,837.1L1871.62,846.67L1874.43,852.03L1877.23,841.07L1880.04,849.64L1882.85,840.17L1885.65,846.76L1888.46,849.03L1891.26,850.43L1894.07,849.55L1896.88,842.35L1899.68,843.86L1902.49,842.09L1905.29,838.8L1910.91,834.51L1913.71,839.86L1916.52,842.99L1919.32,831.52L1922.13,833.5L1924.94,833.59L1927.74,842.61L1930.55,843.7L1933.35,845.35L1936.16,834.25L1938.97,825.27L1941.77,830.74L1944.58,829.21L1947.38,828.8L1950.19,810.34L1953,812.79L1955.8,810.83L1958.61,813.41L1961.42,799.5L1964.22,792.54L1967.03,786.88L1969.83,778.66L1972.64,782.07L1975.45,780.14L1978.25,781.22L1981.06,780.01L1983.86,783.29L1986.67,791.48L1989.48,783.32L1992.28,785.34L1995.09,797.94L1997.89,783.47L2000.7,788.25L2003.51,788.21L2006.31,799.94L2009.12,793.58L2011.92,787.91L2014.73,786.17L2017.54,786.42L2020.34,778.34L2023.15,788.73L2025.95,774.49L2028.76,777.95L2031.57,784.22L2034.37,796.07L2037.18,796.66L2039.98,807.48L2042.79,812.73L2045.6,805.28L2048.4,807.18L2054.01,819.77L2056.82,824.53L2059.63,807.3L2062.43,816.2L2065.24,817.13L2068.04,819.93L2070.85,820.88L2073.66,820.35L2076.46,811.53L2079.27,806.51L2082.07,809.1L2084.88,806.17L2090.49,802.54L2093.3,798.86L2096.1,790.93L2098.91,766.36L2101.72,773.33L2104.52,762.9L2107.33,757.73L2110.13,747.89L2112.94,749.15L2115.75,742.69L2118.55,735.21L2121.36,738.95L2124.16,736.29L2126.97,740.08L2129.78,736.52L2132.58,739.47L2135.39,740.45L2138.19,744.68L2141,751.92L2143.81,753.93L2146.61,756.79L2149.42,750.52L2152.23,751.22L2155.03,754.22L2157.84,759.23L2160.64,761.17L2163.45,767.66L2166.26,767.03L2169.06,769.95L2171.87,778.54L2174.67,788.58L2177.48,782.67L2180.29,777.12L2183.09,790.74L2185.9,785.57L2188.7,784.99L2191.51,776.64L2194.32,780.18L2197.12,785.38L2199.93,782.01L2202.73,778.65L2205.54,777.52L2208.35,764.77L2211.15,771.72L2213.96,773.52L2216.76,777.26L2219.57,781.27L2222.38,774.01L2225.18,762.43L2227.99,766.87L2230.79,762.35L2233.6,760.28L2236.41,761.75L2239.21,752.07L2244.82,732.26L2247.63,735.73L2250.44,748.17L2253.24,756.92L2258.85,747.2L2261.66,743.47L2264.47,741.79L2267.27,731.18L2270.08,740.26L2272.88,733.76L2278.5,714.72L2281.3,715.53L2286.91,686.6L2289.72,679.65L2292.53,668.78L2295.33,672.34L2298.14,665.96L2300.94,674.52L2306.56,652.13L2309.36,680.04L2312.17,682.72L2314.97,677.2L2317.78,687.25L2320.59,693.24L2323.39,693.64L2326.2,677.26L2329.01,678.62L2331.81,677.17L2334.62,675.36L2337.42,681.24L2340.23,697.08L2343.04,699.09L2345.84,707.88L2348.65,709.78L2351.45,693.29L2354.26,700.27L2357.07,700.16L2359.87,702.47L2362.68,702.44L2365.48,685.98L2376.71,639.87L2379.51,640.1L2382.32,656.23L2385.13,633.24L2387.93,623.56L2390.74,604.27L2393.54,614.3L2396.35,604.1L2399.16,580.69L2401.96,583.08L2404.77,560.95L2407.57,563.7L2410.38,546.68L2413.19,523.24L2418.8,500.28L2421.6,476.17L2424.41,448.67L2427.22,442.35L2430.02,472.83L2432.83,452.65L2435.63,454.79L2438.44,431.44L2441.25,429.99L2444.05,398.46L2446.86,387.56L2449.66,394.46L2452.47,374.83L2455.28,407.48L2458.08,425.67L2460.89,425.74L2463.69,416.09L2466.5,420.52L2469.31,412.87L2472.11,413.45L2474.92,411.17L2477.72,420.67L2480.53,439.18L2483.34,471.16L2486.14,481.91L2488.95,469.53L2494.56,477.68L2497.37,485.7L2500.17,464.62L2502.98,479.25L2505.78,466.69L2508.59,408.33L2511.4,408.64L2514.2,386.04L2517.01,379.42L2519.82,354.65L2522.62,371.26L2525.43,361.56L2528.23,309.16L2531.04,292.78L2533.85,302.95L2536.65,289.04L2539.46,253.25L2542.26,259.77L2545.07,218.74L2547.88,234.76L2550.68,212.74L2553.49,220.51L2556.29,187.89L2559.1,181.16L2561.91,189.87L2564.71,181.99L2567.52,184.94L2570.32,152.3L2573.13,132.81L2575.94,134.62L2578.74,153.2L2581.55,103.37L2587.16,156.56L2589.97,114.75L2592.77,157.27L2595.58,178.79L2598.38,181.07L2601.19,198.11L2604,240.09L2606.8,258.73L2609.61,241.73L2612.41,240.19L2615.22,249.79L2618.03,235.29L2620.83,252.4L2623.64,278.45L2626.44,259.76L2629.25,261.74L2632.06,300.83L2634.86,298.1L2637.67,304.57L2640.47,314.43L2643.28,348.71L2646.09,350.51L2648.89,361.45L2651.7,393.36L2654.5,408.1L2657.31,403.1L2660.12,391.49L2662.92,363.7L2668.53,311.69L2671.34,311.13L2674.15,302.12L2676.95,322.93L2679.76,316.21L2682.56,328.71L2685.37,329.36L2688.18,326.25L2690.98,307.01L2693.79,300.48L2696.59,308.99L2699.4,310.56L2702.21,315.73L2705.01,323.03L2707.82,295.62L2710.63,313.51L2713.43,307.31L2716.24,333.53L2719.04,326.41L2721.85,325.65L2724.66,309.97L2727.46,307.5L2730.27,317.07L2733.07,308.21L2735.88,320.14L2738.69,273.74L2744.3,271.31L2747.1,284.42L2749.91,294.69L2752.72,292.07L2755.52,283.11L2758.33,268.56L2761.13,261.97L2763.94,272.3L2766.75,252.39L2769.55,260.07L2772.36,264.58L2775.16,282.35L2777.97,290.53L2780.78,289.61L2783.58,285.02L2786.39,258.9L2789.19,260.55L2792,235.7" style="vector-effect: none; fill: none; stroke: rgb(0, 204, 150); stroke-opacity: 1; stroke-width: 2px; opacity: 1;"/></g><g class="points"/><g class="text"/></g><g class="trace scatter tracea71ca2" style="stroke-miterlimit: 2; opacity: 0.2;"><g class="fills"/><g class="errorbars"/><g class="lines"><path class="js-line" d="M0,1023.56L2.81,1030.8L5.61,1017.86L8.42,1005.3L11.22,1022.09L14.03,1013.09L16.84,1013.26L19.64,1027.89L22.45,1027.22L25.25,999.97L28.06,999.41L30.87,992.08L33.67,1008.25L36.48,1004.93L39.28,982.53L42.09,1000.75L44.9,996.84L47.7,1000.2L50.51,992.54L53.31,1001.75L56.12,996.98L58.93,999.11L61.73,995.93L64.54,1004.85L67.34,963.2L70.15,961.66L72.96,961.79L78.57,932.73L81.37,924.1L84.18,929.52L86.99,940.53L89.79,941.49L92.6,936.06L95.41,951.23L98.21,959L101.02,972.52L103.82,963.43L106.63,990.67L109.44,994.31L112.24,976.31L115.05,975.89L117.85,961.23L120.66,954.06L123.47,966.27L126.27,987.43L129.08,966.53L131.88,968.91L134.69,936.37L137.5,965.2L143.11,959.21L145.91,957.46L148.72,965.48L151.53,952.64L154.33,960.48L157.14,959.69L159.94,967.29L162.75,964.43L165.56,960.49L168.36,950.63L171.17,931.91L173.97,907.78L176.78,919.22L179.59,871.98L182.39,885.03L185.2,894.27L188,877.39L190.81,873.51L193.62,876.88L196.42,864.58L199.23,876.33L202.03,862.15L204.84,861.7L207.65,849.91L210.45,851.76L213.26,850.78L216.06,855.52L218.87,845.07L221.68,861.67L224.48,867.71L227.29,867.52L230.09,865.46L232.9,825.47L235.71,834.43L241.32,823.94L244.12,824.35L246.93,811.87L249.74,818.89L255.35,835.34L258.15,834.25L260.96,832.08L263.77,831.46L266.57,832.77L269.38,827.38L272.18,824.99L274.99,831.38L277.8,835.11L280.6,836.76L283.41,826.32L286.22,819.72L289.02,820.34L291.83,815.01L294.63,812.2L297.44,816.13L300.25,852.57L303.05,858.88L305.86,852.79L308.66,859.51L311.47,849.58L314.28,850.72L317.08,858.98L319.89,845.74L322.69,848.96L325.5,850.25L328.31,856.94L331.11,869.3L333.92,878.88L336.72,878.65L339.53,895.56L342.34,897.18L345.14,899.83L347.95,893.61L350.75,876.94L353.56,871.19L356.37,886.59L359.17,897.69L361.98,903.44L364.78,898.8L367.59,898.32L370.4,892.82L373.2,873.99L376.01,869.11L378.81,869.19L381.62,863.85L384.43,857.8L387.23,845.08L390.04,838.73L392.84,840.78L395.65,848.1L398.46,842.05L401.26,844.56L404.07,856.5L406.87,847.32L409.68,848.65L412.49,860.66L415.29,867.2L418.1,864.84L420.9,843.61L429.32,864.93L432.13,858.07L434.93,880.73L437.74,881.19L440.55,895.87L443.35,885.64L448.96,843.34L451.77,862.05L454.58,877.55L457.38,882.68L462.99,920.08L465.8,899.79L468.61,914.33L471.41,946.23L474.22,950.67L477.03,953.36L479.83,972.31L482.64,966.5L485.44,979.66L488.25,975.11L491.06,996.24L493.86,987.69L499.47,943.73L502.28,972.92L505.09,986.85L507.89,981.75L510.7,970.33L513.5,975.24L516.31,971.41L519.12,975.73L524.73,993.85L527.53,991.03L533.15,1026.14L535.95,1019.4L538.76,1033.99L541.56,987.95L544.37,998.11L547.18,993.14L549.98,1008.7L552.79,1003.04L555.59,1010.04L558.4,1023.35L561.21,1025.02L564.01,1022.14L566.82,1016.09L569.62,1023.56L572.43,1020.23L575.24,1049.09L578.04,1053.14L580.85,1064.66L583.65,1049.32L586.46,1050.09L589.27,1045.71L592.07,1039.42L594.88,1056.23L597.68,1051.35L600.49,1051.04L603.3,1054.81L606.1,1069.33L608.91,1065.29L611.71,1084.01L614.52,1087.2L617.33,1088.76L620.13,1079.88L622.94,1099.69L625.74,1096.64L631.36,1093.59L634.16,1093.79L636.97,1105.2L639.77,1096.09L642.58,1091.58L645.39,1097.98L648.19,1116.42L651,1113.18L653.81,1103.17L656.61,1106.53L659.42,1113.13L662.22,1108.84L665.03,1105.66L667.84,1112.24L670.64,1120.23L673.45,1131.84L679.06,1156.39L681.87,1156.54L684.67,1168.57L687.48,1167.43L690.28,1210.66L693.09,1210.49L695.9,1206.55L698.7,1216.47L701.51,1218.66L704.31,1212.62L707.12,1211.28L709.93,1213.21L712.73,1211.49L715.54,1232.75L718.34,1218.29L721.15,1218.39L723.96,1222.12L726.76,1212.65L729.57,1204.39L732.37,1207.68L735.18,1199.85L737.99,1199.92L740.79,1195.52L743.6,1206.69L746.4,1197.59L749.21,1194.9L752.02,1204.12L754.82,1208.99L757.63,1204.89L760.43,1209.26L766.05,1189.63L768.85,1183.5L771.66,1180.59L774.46,1181.62L777.27,1170.33L780.08,1164.08L785.69,1179.2L788.49,1173.84L791.3,1175.8L794.11,1171.48L796.91,1171.17L799.72,1164.77L802.52,1176.78L805.33,1177.36L808.14,1166.71L810.94,1173.56L813.75,1167.7L816.55,1170.53L822.17,1160.54L824.97,1154.57L827.78,1151.32L830.58,1160.4L833.39,1146.92L836.2,1154.99L839,1168.42L841.81,1174.13L844.62,1163.59L847.42,1167.82L850.23,1164.47L853.03,1162.44L855.84,1163.8L858.65,1159.27L861.45,1162.44L864.26,1159.25L867.06,1166.69L869.87,1166.35L872.68,1161.85L875.48,1177.58L878.29,1175.99L881.09,1177.64L883.9,1172.53L886.71,1176.5L892.32,1208.14L895.12,1207.49L897.93,1214.62L900.74,1211.6L903.54,1216.03L906.35,1204.67L909.15,1198.53L911.96,1195.89L914.77,1189.94L917.57,1195.34L920.38,1188.84L923.18,1213.91L925.99,1206.06L928.8,1208.71L931.6,1202.7L934.41,1201.3L937.21,1200.16L940.02,1197.7L942.83,1192.84L945.63,1195.4L948.44,1192.2L951.24,1191.89L954.05,1192.74L956.86,1189.95L959.66,1198.47L962.47,1202.28L965.27,1197.78L968.08,1207.18L970.89,1198.56L973.69,1200.37L976.5,1197.1L979.3,1203.67L982.11,1216.18L984.92,1215.17L987.72,1222.95L990.53,1224.32L993.33,1219.27L996.14,1231.58L998.95,1227.01L1001.75,1234.39L1004.56,1220.05L1007.36,1224.46L1010.17,1220.13L1012.98,1220.31L1015.78,1227.3L1018.59,1224.73L1021.39,1229.66L1024.2,1227.76L1027.01,1224.45L1029.81,1223.43L1032.62,1220.7L1035.43,1222.71L1038.23,1221.66L1041.04,1214.01L1043.84,1224.94L1046.65,1219.28L1049.46,1224.75L1052.26,1222.82L1055.07,1228.25L1057.87,1228.93L1060.68,1221.14L1063.49,1220.24L1066.29,1222.9L1069.1,1213.86L1071.9,1212.66L1074.71,1201.29L1077.52,1200.4L1080.32,1204.89L1083.13,1198.77L1085.93,1206.5L1094.35,1190.46L1097.16,1197.29L1099.96,1193.01L1102.77,1192.56L1105.58,1198.41L1108.38,1194.74L1111.19,1193.95L1113.99,1202.86L1116.8,1204.72L1119.61,1205.11L1122.41,1202.67L1125.22,1208.41L1128.02,1201.93L1130.83,1197.55L1133.64,1203.14L1136.44,1191.34L1139.25,1192.5L1142.05,1194.89L1144.86,1188.47L1147.67,1191.91L1150.47,1196.13L1153.28,1198.75L1156.08,1199.52L1158.89,1207.49L1161.7,1188.68L1164.5,1201.84L1167.31,1186.65L1170.11,1191.44L1172.92,1191.57L1175.73,1200.51L1178.53,1197.5L1181.34,1188.29L1184.14,1171.64L1186.95,1172.58L1189.76,1171.05L1192.56,1176.4L1195.37,1163.98L1198.17,1162.52L1200.98,1159.19L1203.79,1149.7L1206.59,1150.66L1209.4,1139.17L1212.21,1138.83L1215.01,1142.04L1217.82,1141.8L1220.62,1138.64L1223.43,1143.36L1226.24,1135.04L1229.04,1134.79L1231.85,1137.5L1234.65,1134.49L1237.46,1127.63L1240.27,1118.93L1243.07,1122.3L1245.88,1125.02L1248.68,1134.78L1251.49,1129.18L1254.3,1137.46L1257.1,1129.45L1259.91,1111.73L1265.52,1101.64L1268.33,1104.02L1271.13,1114.46L1273.94,1100L1276.74,1099.85L1279.55,1088.3L1282.36,1096.8L1285.16,1108.81L1287.97,1102.99L1290.77,1089.02L1293.58,1098.95L1296.39,1101.12L1299.19,1093.68L1302,1107.06L1304.8,1101.91L1307.61,1101.8L1310.42,1099.57L1313.22,1099.84L1316.03,1107.17L1318.83,1101.28L1321.64,1099.2L1324.45,1112.11L1330.06,1110.53L1332.86,1107.07L1335.67,1118.51L1338.48,1102.22L1341.28,1095.26L1344.09,1070.6L1346.89,1066.68L1349.7,1058.98L1352.51,1055.28L1355.31,1049.89L1358.12,1039.02L1360.92,1018.14L1363.73,1023.67L1366.54,999.96L1369.34,1001.09L1372.15,1023.96L1374.95,1018.05L1377.76,1023.36L1380.57,1038.24L1383.37,1027.46L1386.18,1042.27L1388.98,1033.08L1394.6,1039.95L1397.4,1025.48L1400.21,1049.69L1403.02,1048.08L1405.82,1045.35L1408.63,1040.27L1411.43,1022.89L1414.24,1030.45L1417.05,1009.35L1419.85,1017.11L1422.66,1037.23L1425.46,1027.11L1428.27,1037.13L1431.08,1036.11L1433.88,1042.18L1436.69,1061.18L1439.49,1057.7L1442.3,1021.83L1445.11,1010.63L1447.91,1015.7L1450.72,1029.59L1453.52,1035.35L1456.33,1026.7L1459.14,1036.23L1461.94,1033.47L1464.75,1054.63L1470.36,1038.29L1473.17,1036.32L1475.97,1025.61L1478.78,1039.33L1481.58,1037.47L1484.39,1043.87L1487.2,1049.71L1490,1052.93L1492.81,1039.46L1495.61,1032.9L1498.42,1014.26L1501.23,1013.08L1504.03,1018.12L1506.84,1032.49L1509.64,1027.1L1512.45,1033.49L1518.06,1009.49L1520.87,1018.99L1523.67,1015.91L1526.48,1002.51L1529.29,978.87L1532.09,983.38L1540.51,899.16L1543.32,885.58L1546.12,871.1L1548.93,864.19L1551.73,859.04L1554.54,879.95L1557.35,874.15L1560.15,881.99L1562.96,882.71L1565.76,895.11L1568.57,910.31L1571.38,931.11L1574.18,927.63L1576.99,943.75L1579.79,945.07L1582.6,937.57L1585.41,951.05L1588.21,960.05L1591.02,954.84L1593.83,969.92L1596.63,965.68L1599.44,974.84L1602.24,981.81L1605.05,991.23L1607.86,995.92L1610.66,989.06L1613.47,1010.42L1616.27,1018.98L1619.08,1015.09L1621.89,1026.13L1624.69,1014.23L1627.5,1020.9L1630.3,1020.77L1633.11,1019.84L1635.92,1006.34L1638.72,1001.38L1641.53,993.53L1644.33,992.76L1647.14,979.23L1649.95,972.87L1652.75,963.45L1655.56,960.17L1658.36,977.31L1661.17,958.87L1663.98,946.95L1666.78,923L1669.59,918.44L1672.39,908.89L1675.2,899.17L1678.01,892.87L1680.81,903.24L1683.62,880.89L1686.42,869.04L1689.23,875.67L1694.84,836.97L1697.65,841.07L1700.45,831.14L1703.26,839.17L1706.07,850.97L1708.87,841.37L1711.68,851.6L1714.48,878.31L1717.29,899.8L1720.1,902.28L1725.71,915.67L1728.51,898.96L1731.32,901.94L1734.13,913.09L1736.93,921L1739.74,916.39L1742.54,893.57L1745.35,903.57L1748.16,904.24L1750.96,907.98L1753.77,929.43L1756.57,932.23L1759.38,927.34L1762.19,944.64L1764.99,935.7L1767.8,938.76L1770.61,944.95L1773.41,946.5L1776.22,935.89L1779.02,931.97L1781.83,912.44L1784.64,906.81L1787.44,923.37L1790.25,920.06L1793.05,904.29L1795.86,906.71L1798.67,891.29L1801.47,898.47L1807.08,884.63L1809.89,887.07L1812.7,887.45L1815.5,862.14L1818.31,847.78L1821.11,858.32L1823.92,855.65L1826.73,841.91L1829.53,823.94L1832.34,834.18L1835.14,820.67L1837.95,829.14L1840.76,832.47L1843.56,827.97L1846.37,828.51L1849.17,823.23L1851.98,834.12L1854.79,839.7L1857.59,838.46L1860.4,822.7L1863.2,832.19L1866.01,844.8L1868.82,835.26L1871.62,855.03L1874.43,853.51L1877.23,840.53L1880.04,852.09L1882.85,850.55L1885.65,854.17L1888.46,860.27L1891.26,866.53L1894.07,854.23L1896.88,853.4L1899.68,850.26L1902.49,834.44L1905.29,842.37L1908.1,838.02L1910.91,844.23L1913.71,843.01L1916.52,843.71L1919.32,831.36L1922.13,835.03L1924.94,840.17L1927.74,849.75L1930.55,846.63L1933.35,846.55L1936.16,834.86L1938.97,830.21L1941.77,830.48L1944.58,824.03L1947.38,823.46L1950.19,799.78L1953,803.57L1955.8,801.42L1958.61,809.48L1961.42,807.78L1964.22,803.47L1967.03,792.96L1969.83,778.72L1972.64,786.02L1975.45,785.59L1978.25,786.07L1981.06,783.18L1983.86,790.82L1986.67,803.36L1989.48,793.79L1995.09,804.59L1997.89,792.18L2000.7,797.27L2003.51,798.8L2006.31,812.29L2009.12,802.27L2014.73,785.56L2017.54,786.95L2020.34,776.02L2023.15,781.05L2025.95,767.5L2028.76,773.02L2031.57,779.76L2034.37,797.76L2037.18,794.84L2039.98,808.73L2042.79,822.58L2045.6,801.86L2048.4,806.66L2051.21,815.7L2054.01,824.89L2056.82,826.4L2059.63,809.05L2062.43,815.6L2065.24,808.44L2068.04,809.74L2070.85,820.85L2073.66,817.02L2076.46,817.22L2079.27,808.38L2082.07,812.67L2084.88,810.34L2087.69,814.64L2090.49,812.92L2096.1,797.32L2098.91,759.64L2101.72,769.72L2104.52,753.42L2107.33,756.56L2110.13,745.18L2112.94,749.28L2115.75,740.77L2118.55,729.45L2121.36,739.48L2124.16,734.06L2126.97,737.5L2129.78,731.68L2132.58,740.85L2135.39,744.94L2138.19,753.81L2141,761.79L2143.81,761.57L2146.61,757.09L2149.42,747.67L2152.23,748.4L2155.03,753.76L2163.45,774.35L2166.26,772.71L2169.06,774.37L2171.87,782.41L2174.67,790.55L2177.48,780.57L2180.29,780.8L2183.09,785.49L2185.9,779.71L2188.7,781.82L2191.51,776.34L2194.32,775.43L2197.12,781.27L2199.93,773.56L2202.73,766.02L2205.54,767.09L2208.35,755.68L2211.15,765.02L2213.96,763.49L2216.76,767.93L2219.57,773.94L2222.38,770.53L2225.18,755.74L2227.99,752.76L2230.79,750.54L2233.6,754.94L2236.41,761.2L2239.21,757.55L2244.82,730.4L2247.63,736.83L2250.44,746.64L2253.24,751.74L2256.05,744.98L2258.85,751.6L2261.66,740.77L2264.47,743.65L2267.27,734.43L2270.08,751.43L2272.88,739.36L2275.69,731.09L2278.5,719.81L2281.3,723.55L2286.91,678.97L2289.72,681.23L2292.53,671.97L2295.33,676.36L2298.14,676.88L2300.94,670.37L2306.56,648.27L2309.36,674.41L2312.17,687.47L2314.97,673.71L2317.78,679.86L2320.59,698.29L2323.39,692.14L2326.2,677.2L2329.01,674.87L2331.81,675.27L2334.62,675.04L2337.42,686.02L2340.23,703.28L2343.04,708.15L2345.84,719.33L2348.65,702.26L2351.45,690.29L2354.26,704.54L2357.07,692.48L2359.87,695.26L2362.68,697.59L2365.48,688.79L2368.29,670.06L2371.1,658.43L2373.9,652.16L2376.71,637.11L2379.51,628.05L2382.32,659.57L2385.13,630.67L2387.93,624.48L2390.74,593.76L2393.54,598.11L2396.35,581.8L2399.16,583.69L2401.96,589.74L2404.77,569.77L2407.57,561.79L2410.38,562.46L2413.19,530.75L2415.99,519.56L2418.8,496.86L2421.6,487.56L2424.41,478.73L2427.22,452.27L2430.02,476.87L2432.83,449.88L2435.63,461.79L2438.44,426.9L2441.25,449.86L2444.05,436.71L2446.86,394.35L2449.66,413.65L2452.47,363.86L2455.28,416.64L2460.89,422.9L2463.69,417.87L2466.5,404.86L2469.31,403.46L2472.11,401.28L2474.92,424.19L2477.72,432.55L2480.53,443.59L2486.14,485.39L2488.95,480.15L2491.75,492.02L2494.56,478.11L2497.37,493.24L2500.17,472.62L2502.98,484.6L2505.78,455.78L2508.59,399.51L2511.4,401.71L2514.2,374.2L2517.01,372.07L2519.82,337.04L2522.62,365.08L2525.43,359.71L2528.23,292.66L2531.04,282.21L2533.85,312.97L2539.46,245.12L2542.26,247.1L2545.07,201.21L2547.88,225.85L2550.68,214.53L2553.49,224.48L2556.29,178.95L2559.1,173.28L2561.91,180.66L2564.71,190.82L2567.52,179.35L2570.32,141.93L2573.13,122.56L2575.94,120.71L2578.74,146.82L2581.55,65.55L2584.35,104.69L2587.16,128.24L2589.97,116.32L2592.77,173.02L2595.58,170.8L2598.38,176.44L2601.19,198.78L2604,257.5L2606.8,268.98L2609.61,264.51L2612.41,251.73L2615.22,253.69L2618.03,227.87L2620.83,249.74L2623.64,261.11L2626.44,242.28L2629.25,237L2632.06,278.71L2634.86,280.63L2637.67,298.59L2640.47,308.9L2643.28,341.34L2646.09,353.52L2648.89,381.27L2651.7,402.97L2654.5,411.19L2657.31,418.22L2660.12,400.78L2662.92,374.78L2665.73,331.99L2668.53,305.24L2671.34,322.37L2674.15,322.72L2676.95,337.74L2679.76,327.62L2682.56,344.48L2685.37,340.68L2688.18,326.69L2690.98,308.32L2693.79,298.88L2696.59,314.27L2699.4,322.8L2702.21,321.12L2705.01,327.46L2707.82,312.98L2710.63,322.51L2713.43,311.86L2716.24,317.28L2719.04,320.31L2721.85,314.71L2724.66,303.49L2727.46,300.1L2733.07,319L2735.88,320.14L2744.3,293.49L2747.1,299.81L2749.91,299.56L2752.72,289.95L2758.33,233.48L2761.13,227.25L2763.94,239.73L2766.75,235.52L2769.55,243.3L2772.36,235.24L2777.97,278.65L2780.78,273.03L2783.58,267.13L2786.39,227.94L2789.19,238.47L2792,205.23" style="vector-effect: none; fill: none; stroke: rgb(171, 99, 250); stroke-opacity: 1; stroke-width: 2px; opacity: 1;"/></g><g class="points"/><g class="text"/></g><g class="trace scatter tracea90e81" style="stroke-miterlimit: 2; opacity: 0.2;"><g class="fills"/><g class="errorbars"/><g class="lines"><path class="js-line" d="M0,1035.86L2.81,1013.05L5.61,1029.3L8.42,1019.11L11.22,996.19L14.03,1004.51L16.84,993.69L19.64,1016.66L22.45,999.28L25.25,994.05L28.06,1013.78L30.87,985.75L33.67,981.82L36.48,958.5L39.28,984.44L42.09,992.56L44.9,987.14L47.7,986.12L50.51,983.95L53.31,1002.27L56.12,1011.62L58.93,1018.59L61.73,996.36L64.54,992.38L67.34,989.87L70.15,991.35L72.96,986.38L75.76,979.37L78.57,975.24L81.37,974.81L84.18,964.75L86.99,961.8L89.79,948.81L92.6,944.01L95.41,948.93L98.21,929.43L101.02,976.86L103.82,975.45L106.63,958.59L112.24,944.12L115.05,944.25L117.85,937.28L120.66,938.15L123.47,926.09L126.27,895.01L129.08,893.89L131.88,883.45L134.69,877.13L137.5,840.84L140.3,856.6L143.11,851.03L145.91,867.21L148.72,848.69L151.53,843.9L154.33,873.05L157.14,895.81L159.94,895.05L162.75,897.57L165.56,916.41L168.36,899.89L171.17,849.27L176.78,819.85L179.59,794.56L182.39,781.39L185.2,791.63L188,820.96L190.81,830.86L193.62,840.06L196.42,829.32L199.23,869.03L202.03,857.47L204.84,849.58L207.65,833.83L210.45,815.03L213.26,829.91L216.06,822.14L218.87,800.17L221.68,803.22L224.48,820.17L227.29,839.34L230.09,836.28L232.9,855.61L235.71,851.2L241.32,841.98L244.12,852.87L249.74,811.88L252.54,774.93L255.35,798.58L258.15,776.92L260.96,794.5L263.77,765.35L266.57,759.63L269.38,790.39L272.18,804.75L274.99,810.54L277.8,813.91L280.6,831.46L283.41,834.05L286.22,841.15L289.02,850.65L291.83,839.7L294.63,844.65L297.44,835.56L300.25,837.98L303.05,843.1L305.86,841.27L308.66,847.24L311.47,856.86L314.28,885.81L317.08,890.04L319.89,882.77L322.69,855.14L325.5,849.67L328.31,853.22L331.11,873.66L336.72,893.61L339.53,923.78L342.34,926.77L345.14,913.36L347.95,900.39L350.75,897.15L353.56,897.08L356.37,887.76L359.17,884.64L361.98,892.61L364.78,901.64L367.59,853.43L370.4,869.08L373.2,859.9L376.01,856.12L378.81,855.18L381.62,865.64L384.43,865.23L387.23,868.41L390.04,885.49L392.84,872.3L395.65,864.28L398.46,869.89L401.26,854.86L404.07,857.48L406.87,863.14L409.68,874.54L412.49,866.77L415.29,874.6L418.1,874.88L420.9,842.7L423.71,840.15L426.52,835.8L429.32,875.16L432.13,908.99L434.93,910.96L437.74,921.35L440.55,907.92L443.35,907.51L446.16,898.3L451.77,899.64L454.58,902.87L457.38,903L460.19,939.32L462.99,939.3L465.8,946.58L468.61,937.56L471.41,940.02L474.22,963.91L477.03,959.08L479.83,958.46L482.64,953.92L485.44,956.53L488.25,947.35L491.06,936.96L493.86,955.34L496.67,989.43L499.47,986.27L502.28,985.3L505.09,971.59L507.89,991.09L510.7,974.13L513.5,1008.69L516.31,998.24L519.12,1012.46L521.92,1014.37L527.53,1025.48L530.34,1036.63L533.15,1039.88L535.95,1053.41L538.76,1031.87L541.56,1030.79L544.37,1033.06L547.18,1036.59L552.79,1036.72L555.59,1049.64L558.4,1051.46L561.21,1051.84L564.01,1045.88L566.82,1023.49L569.62,1009.22L572.43,1032.4L575.24,1047.79L578.04,1039.43L580.85,1053.94L583.65,1046.04L586.46,1013.22L589.27,1028.58L592.07,1037.48L594.88,1036.18L597.68,1021.7L600.49,1016.75L603.3,1022.78L606.1,1026.27L608.91,1056.88L611.71,1068.93L614.52,1074.48L617.33,1073.59L620.13,1083.99L622.94,1088.19L625.74,1060.35L628.55,1066.94L631.36,1044.16L634.16,1036.95L636.97,1030.79L639.77,1058.25L642.58,1069L645.39,1085.4L648.19,1076.46L651,1092.28L653.81,1114.8L656.61,1126.96L659.42,1114.64L662.22,1128.79L665.03,1118.27L667.84,1135.79L670.64,1142.33L673.45,1158.5L676.25,1150.59L679.06,1177.79L681.87,1186.15L684.67,1182.87L687.48,1205.7L690.28,1202.68L693.09,1210.89L695.9,1231.63L698.7,1231.11L701.51,1219.92L704.31,1211.92L707.12,1207.54L709.93,1206.45L712.73,1204.24L715.54,1216.72L718.34,1223.12L721.15,1218.02L723.96,1222.45L726.76,1222.54L729.57,1216.92L732.37,1207.37L735.18,1221.17L737.99,1225.01L740.79,1226.2L743.6,1210.43L746.4,1218.71L749.21,1212.03L752.02,1207.82L754.82,1216.07L757.63,1227.37L760.43,1213.19L763.24,1193.61L766.05,1211.83L768.85,1214.09L771.66,1211.95L774.46,1208.4L777.27,1216.59L780.08,1214.08L782.88,1197.1L785.69,1212.41L788.49,1214.01L791.3,1214.14L794.11,1202.39L796.91,1207.42L799.72,1213.81L802.52,1206.16L805.33,1208.89L808.14,1199.28L810.94,1203.63L813.75,1184.36L816.55,1191.86L819.36,1191.77L822.17,1196.15L824.97,1192.56L827.78,1191.6L830.58,1189.47L833.39,1186.16L836.2,1195.47L841.81,1178.81L844.62,1180.32L847.42,1170.91L850.23,1156.98L853.03,1155.72L855.84,1156.02L861.45,1167.14L864.26,1166.55L867.06,1171.57L869.87,1168.64L872.68,1206.26L875.48,1202.2L878.29,1185.12L881.09,1181.66L883.9,1182.58L886.71,1197.49L889.51,1197.64L892.32,1193.69L895.12,1189.27L897.93,1197.58L900.74,1202.46L903.54,1194.38L906.35,1199.14L909.15,1192.6L911.96,1184.92L914.77,1182.72L920.38,1206.57L923.18,1195.37L928.8,1223.41L931.6,1219.87L940.02,1226.67L942.83,1224.8L945.63,1198.36L948.44,1198.84L951.24,1201.57L954.05,1209.09L956.86,1207.02L959.66,1196.12L962.47,1210.15L965.27,1201.78L968.08,1192.68L970.89,1186.74L973.69,1184.49L976.5,1194.69L979.3,1193.26L982.11,1205.66L984.92,1225.78L987.72,1230.1L990.53,1236.69L993.33,1231.83L996.14,1227.43L998.95,1228.4L1001.75,1234.81L1004.56,1229.74L1007.36,1231.63L1010.17,1239.04L1012.98,1238.25L1015.78,1239.98L1018.59,1243.55L1021.39,1245.45L1024.2,1238.67L1027.01,1243.24L1029.81,1236.96L1032.62,1241.21L1038.23,1221.72L1041.04,1219.49L1043.84,1219.82L1046.65,1219.17L1049.46,1229.27L1052.26,1231.27L1055.07,1234.14L1057.87,1231.69L1060.68,1230.11L1063.49,1221.27L1066.29,1216.81L1069.1,1198.95L1071.9,1214.02L1074.71,1205.64L1077.52,1206.56L1080.32,1209.4L1085.93,1197.71L1088.74,1198.47L1094.35,1199.74L1097.16,1206.1L1102.77,1189.69L1105.58,1204.73L1108.38,1193.54L1111.19,1186.39L1113.99,1182.36L1116.8,1181.82L1122.41,1190.55L1125.22,1189.88L1128.02,1202.92L1130.83,1200.35L1133.64,1203.28L1136.44,1197.67L1139.25,1197L1142.05,1193.58L1144.86,1188.12L1147.67,1180.13L1150.47,1200.03L1153.28,1206.23L1156.08,1215.96L1158.89,1213.03L1161.7,1205.39L1164.5,1200.41L1167.31,1198.03L1170.11,1202.61L1172.92,1181.39L1175.73,1174.73L1178.53,1172.02L1181.34,1172.93L1184.14,1167.31L1186.95,1180.17L1189.76,1193.41L1192.56,1180.23L1195.37,1169.9L1198.17,1165.1L1200.98,1149.34L1203.79,1145.19L1209.4,1138.28L1212.21,1144.59L1215.01,1135.97L1217.82,1134.66L1220.62,1129.69L1223.43,1130.24L1226.24,1123.19L1229.04,1126.37L1234.65,1118.65L1237.46,1124.38L1240.27,1126.74L1243.07,1114.21L1245.88,1110.13L1248.68,1108.03L1251.49,1121.74L1254.3,1109.89L1257.1,1115.1L1259.91,1101.54L1265.52,1093.38L1268.33,1095.06L1271.13,1098.54L1273.94,1107.81L1279.55,1095.05L1282.36,1107.93L1285.16,1111.7L1287.97,1098.83L1290.77,1080.13L1293.58,1101.81L1299.19,1078.75L1302,1086.39L1304.8,1083.57L1307.61,1097.57L1310.42,1088.73L1313.22,1097.47L1318.83,1096.75L1321.64,1094.85L1324.45,1112.19L1327.25,1109.78L1330.06,1091.32L1332.86,1114.12L1335.67,1106.88L1338.48,1107.94L1341.28,1105.72L1344.09,1098.96L1346.89,1091.19L1349.7,1075.15L1352.51,1067.08L1355.31,1063L1360.92,1020.31L1363.73,1000.64L1366.54,993.09L1369.34,995.8L1372.15,1000.74L1374.95,1018.09L1377.76,1028.85L1380.57,1027.26L1383.37,1025.93L1386.18,1038.38L1388.98,1029.26L1391.79,1014.13L1397.4,1013.07L1400.21,1030.78L1403.02,1025.19L1405.82,1009.31L1408.63,1015.66L1411.43,1018.09L1414.24,1011.9L1417.05,1011.57L1419.85,1025.09L1422.66,1030.7L1425.46,1035.16L1428.27,1034.22L1431.08,1022.91L1433.88,1036.36L1436.69,1036.76L1439.49,1057.7L1442.3,1031.28L1445.11,1017.55L1450.72,1033.35L1453.52,1036.44L1456.33,1022.32L1459.14,1029.55L1461.94,1027.86L1464.75,1051.18L1470.36,1053.41L1473.17,1063.62L1475.97,1050.98L1478.78,1060.45L1481.58,1053.58L1484.39,1041.98L1487.2,1044.99L1490,1045.45L1492.81,1036.88L1495.61,1035.46L1498.42,1018.54L1501.23,1022.31L1506.84,1032.24L1509.64,1023.08L1512.45,1025.27L1515.26,1019.11L1518.06,997.58L1520.87,1001.47L1523.67,1003.57L1526.48,980.06L1532.09,970.77L1534.9,968.59L1537.7,941.54L1540.51,928.47L1543.32,936.31L1546.12,928.18L1548.93,927.28L1551.73,890.94L1554.54,892.88L1557.35,905.26L1560.15,905.12L1562.96,898.49L1565.76,892.91L1568.57,919.48L1571.38,903.03L1574.18,923.97L1576.99,931.85L1579.79,936.44L1582.6,939.58L1585.41,949.84L1588.21,954.45L1591.02,957.25L1593.83,974.84L1596.63,985.28L1602.24,993.47L1605.05,988.5L1607.86,991.29L1610.66,991.38L1616.27,1016.7L1619.08,1021.91L1627.5,1003.15L1630.3,1006.84L1633.11,996.63L1635.92,996.93L1638.72,994.21L1641.53,976.62L1644.33,971.06L1647.14,970.37L1649.95,958.46L1652.75,941.24L1655.56,945.84L1658.36,967.55L1661.17,946.27L1663.98,941.67L1666.78,909.71L1669.59,920.2L1672.39,910.42L1675.2,893.16L1678.01,899.18L1680.81,892.78L1683.62,885.22L1686.42,865.32L1689.23,858.85L1692.04,856.51L1694.84,857.28L1697.65,853.41L1700.45,848.84L1703.26,858.26L1706.07,853.27L1708.87,857.97L1711.68,871.61L1714.48,875.01L1717.29,888.18L1720.1,884.94L1725.71,897.85L1728.51,912.57L1731.32,911.91L1734.13,921.94L1736.93,922.43L1739.74,922.14L1742.54,909.68L1745.35,916.27L1748.16,923.4L1750.96,926.91L1753.77,947.83L1756.57,939.32L1759.38,944.59L1762.19,939.45L1764.99,943.11L1767.8,932.11L1770.61,936.7L1773.41,933.8L1776.22,906.13L1779.02,936.73L1781.83,915.19L1784.64,904.58L1787.44,914.8L1790.25,914.97L1793.05,910.03L1795.86,910.21L1798.67,883.77L1801.47,894.09L1804.28,891.94L1807.08,875.65L1809.89,879.19L1812.7,862.47L1815.5,857.01L1818.31,853.7L1821.11,854.13L1823.92,859.15L1826.73,830.76L1829.53,820.65L1832.34,827.77L1835.14,826.87L1837.95,827.56L1840.76,820.61L1843.56,818.61L1846.37,838.86L1849.17,812.64L1851.98,822.12L1854.79,817.34L1857.59,817.18L1860.4,819.66L1863.2,823.76L1866.01,844.23L1868.82,837.91L1871.62,835.64L1874.43,849.03L1877.23,840.4L1880.04,845.52L1882.85,826.77L1885.65,836.86L1888.46,834.63L1891.26,830.26L1894.07,842.84L1896.88,828.15L1899.68,835.12L1902.49,849.55L1905.29,833.36L1908.1,833.08L1910.91,821.87L1913.71,834.91L1916.52,840.85L1919.32,830.39L1922.13,830.42L1924.94,824.64L1927.74,833.03L1930.55,839L1933.35,842.67L1936.16,832.23L1938.97,818.21L1941.77,829.72L1944.58,833.85L1947.38,833.62L1950.19,821.08L1953,822.01L1955.8,820.25L1958.61,816.61L1961.42,788.5L1964.22,778.42L1967.03,778.45L1969.83,777.22L1972.64,776.13L1975.45,772.45L1978.25,774.21L1981.06,774.96L1983.86,773.16L1986.67,776.26L1989.48,769.74L1992.28,767.19L1995.09,788.86L1997.89,771.95L2000.7,776.39L2003.51,774.49L2006.31,784.16L2009.12,782.11L2011.92,780.3L2014.73,785.51L2017.54,784.44L2020.34,779.64L2023.15,796.18L2025.95,781.12L2028.76,782.23L2031.57,787.98L2037.18,797.4L2039.98,804.7L2042.79,799.92L2045.6,807.88L2048.4,806.45L2051.21,810.37L2054.01,812.51L2056.82,821.06L2059.63,803.92L2062.43,815.56L2065.24,825.76L2068.04,830.25L2070.85,819.58L2073.66,822.86L2076.46,803.6L2079.27,803.02L2082.07,803.62L2084.88,800L2087.69,791.57L2090.49,789.09L2093.3,791.24L2096.1,782.15L2098.91,772.68L2101.72,776.1L2104.52,772.34L2107.33,757.67L2110.13,749.59L2112.94,747.58L2118.55,740.4L2121.36,736.9L2124.16,737.41L2126.97,741.63L2129.78,740.66L2132.58,736.44L2135.39,733.81L2138.19,732.64L2143.81,743.64L2146.61,755.05L2149.42,752.38L2152.23,753.06L2155.03,753.34L2157.84,755.95L2160.64,753.19L2163.45,758.5L2166.26,759.04L2169.06,763.43L2171.87,772.68L2174.67,784.94L2177.48,783.72L2180.29,771.47L2183.09,795.42L2185.9,790.94L2188.7,787.26L2191.51,775.61L2194.32,784.25L2197.12,788.73L2202.73,791.69L2205.54,788.07L2208.35,773.78L2211.15,778.03L2213.96,783.61L2216.76,786.55L2219.57,788.31L2222.38,776.62L2225.18,768.7L2227.99,781.56L2230.79,774.44L2233.6,765.02L2236.41,760.99L2239.21,744.3L2242.02,741.55L2244.82,732.96L2247.63,733.02L2250.44,748.51L2253.24,761.46L2256.05,757.78L2258.85,740.69L2261.66,745.15L2264.47,738.2L2267.27,725.98L2272.88,725.83L2275.69,711.87L2278.5,707.37L2281.3,704.75L2284.11,698.1L2286.91,693.86L2289.72,676.32L2292.53,663.57L2295.33,666.17L2298.14,651.71L2300.94,677.79L2303.75,668.37L2306.56,655.03L2309.36,685.01L2312.17,675.71L2314.97,679.7L2317.78,694.23L2320.59,685.88L2323.39,693.88L2326.2,675.81L2329.01,681.44L2331.81,677.86L2334.62,674.22L2337.42,674.21L2340.23,688.4L2343.04,687.07L2345.84,693.07L2348.65,716.92L2351.45,695.24L2354.26,693.83L2357.07,707.49L2359.87,709.26L2362.68,706.54L2365.48,681.22L2368.29,678.36L2371.1,667.92L2373.9,651.12L2376.71,641.49L2379.51,652.32L2382.32,650.82L2387.93,620.93L2390.74,614.69L2393.54,631.16L2396.35,627.77L2399.16,575.59L2401.96,573.72L2404.77,549.02L2407.57,564.23L2410.38,526.56L2413.19,512.8L2415.99,502.73L2418.8,502.47L2424.41,411.39L2427.22,429L2430.02,466.39L2432.83,454.04L2438.44,434.84L2441.25,404.88L2444.05,351.21L2446.86,377.79L2449.66,370.12L2452.47,385.5L2455.28,394.97L2458.08,430.56L2460.89,427.17L2463.69,412.18L2466.5,436.55L2469.31,421.8L2472.11,425.53L2474.92,394.13L2477.72,404.99L2480.53,432.25L2483.34,473.74L2486.14,476.11L2488.95,455.39L2491.75,451.66L2494.56,475.41L2497.37,475.18L2500.17,453.53L2502.98,471.27L2505.78,477.4L2508.59,416.58L2511.4,414.73L2514.2,397.71L2519.82,372.8L2522.62,376.47L2525.43,361.78L2528.23,326.02L2531.04,302.89L2533.85,289.31L2536.65,295.98L2539.46,260.51L2542.26,272.22L2545.07,236.64L2547.88,242.9L2550.68,208.55L2553.49,213.8L2556.29,196L2559.1,188.04L2561.91,198.28L2564.71,169.57L2567.52,189.2L2570.32,161.99L2573.13,142.34L2575.94,148.31L2578.74,158.35L2581.55,143.82L2584.35,156.92L2587.16,186.51L2589.97,110.7L2592.77,136.72L2595.58,185.81L2598.38,184.23L2601.19,195.21L2606.8,244.75L2609.61,212.96L2612.41,224.67L2615.22,243.2L2618.03,241.72L2620.83,253.4L2623.64,296.22L2626.44,277.65L2629.25,287.8L2632.06,323.99L2637.67,309.45L2640.47,318.79L2643.28,355.23L2646.09,345.08L2648.89,336.32L2651.7,380.32L2654.5,402.65L2657.31,383.59L2660.12,378.82L2662.92,348.88L2668.53,317.12L2671.34,296.05L2674.15,276.01L2676.95,303.68L2679.76,300.94L2682.56,308.33L2685.37,314.22L2688.18,323.76L2690.98,303.51L2693.79,300.33L2696.59,300.87L2699.4,294.32L2702.21,307.5L2705.01,315.91L2707.82,273.33L2710.63,301.06L2713.43,300.04L2716.24,350.13L2719.04,331.46L2721.85,336.22L2724.66,315.42L2727.46,314.01L2730.27,322.5L2733.07,293.67L2735.88,318.16L2738.69,227.05L2744.3,243.29L2747.1,264.45L2749.91,287.04L2752.72,292.51L2755.52,309.45L2758.33,306.11L2761.13,299.12L2763.94,307.08L2766.75,269.59L2769.55,277.17L2772.36,295.78L2775.16,305.57L2777.97,302.13L2780.78,306.53L2783.58,303.41L2786.39,291.88L2789.19,283.64L2792,268.12" style="vector-effect: none; fill: none; stroke: rgb(255, 161, 90); stroke-opacity: 1; stroke-width: 2px; opacity: 1;"/></g><g class="points"/><g class="text"/></g><g class="trace scatter trace036e57" style="stroke-miterlimit: 2; opacity: 0.2;"><g class="fills"/><g class="errorbars"/><g class="lines"><path class="js-line" d="M0,967.17L2.81,915.69L5.61,930.55L8.42,936.1L11.22,937.47L16.84,951.6L19.64,969.44L22.45,950.82L25.25,912.71L28.06,932L30.87,887.02L33.67,845.91L36.48,856.93L42.09,893.84L44.9,888.97L47.7,922.92L50.51,908.43L53.31,914.17L56.12,887.78L58.93,902.71L61.73,793.26L64.54,855.19L67.34,767.82L70.15,769.62L72.96,761.39L75.76,753.33L78.57,825.11L81.37,810.68L84.18,809.36L86.99,833.06L89.79,832.46L95.41,791.83L98.21,792.02L101.02,833.88L103.82,831.57L106.63,893.17L109.44,811.94L112.24,776.81L115.05,791.84L117.85,767.95L120.66,758.76L123.47,760.71L126.27,798.47L129.08,771.98L131.88,800.02L134.69,770.64L137.5,807.47L140.3,757.16L143.11,736.07L145.91,745.69L148.72,738.36L151.53,735.31L154.33,734.04L157.14,801.06L159.94,715.92L162.75,744.74L165.56,639.24L168.36,637.59L171.17,628.32L173.97,605.37L176.78,681.29L179.59,657.57L182.39,684.32L185.2,657.94L188,680.49L190.81,775.04L193.62,757.72L196.42,785.26L199.23,753.3L202.03,762.43L204.84,712.66L207.65,694.83L210.45,685.94L213.26,686.59L216.06,704.76L218.87,742.61L221.68,722.99L224.48,720.37L227.29,729.81L230.09,637.73L232.9,675.51L235.71,691.86L238.51,696.75L241.32,686.58L244.12,656.94L246.93,665.74L249.74,655.18L252.54,661.07L255.35,668.9L258.15,675.28L260.96,670.13L266.57,627.4L269.38,648.29L272.18,675.3L274.99,679.97L277.8,656.21L280.6,620.55L286.22,698.42L289.02,676.74L291.83,686.98L294.63,693.51L297.44,670.77L300.25,709.11L303.05,587.5L305.86,713.12L308.66,731.49L311.47,771.62L314.28,747.68L317.08,748.88L319.89,748.45L322.69,734.69L325.5,707.29L328.31,718.24L331.11,747.13L333.92,764.92L336.72,775.94L339.53,803.62L342.34,760.18L345.14,761.94L347.95,736.95L350.75,722.11L353.56,637.11L356.37,677.13L359.17,668.82L361.98,672.07L364.78,614.24L367.59,657.98L370.4,723.59L373.2,732.88L376.01,696.88L378.81,703.43L381.62,655.72L384.43,646.61L387.23,652.38L390.04,649.05L392.84,650.31L395.65,657.45L398.46,673.03L401.26,714.86L404.07,664.71L406.87,770.18L409.68,825.18L412.49,817.23L415.29,824.94L418.1,828.42L420.9,817.68L423.71,710.31L426.52,762.01L429.32,751.6L432.13,739.8L434.93,762.07L437.74,719.83L440.55,755.55L443.35,759.2L446.16,783.8L448.96,787.15L451.77,780.7L454.58,793.66L457.38,790.98L460.19,810.26L462.99,777.63L465.8,782.56L468.61,781.54L471.41,799.27L474.22,785.67L477.03,817.93L479.83,811.18L482.64,827.3L485.44,812.27L488.25,817.09L491.06,802.1L493.86,788.81L496.67,786.89L499.47,786.53L502.28,769.36L505.09,861.69L507.89,857.21L510.7,861.56L513.5,876.36L519.12,910.48L521.92,1063.27L524.73,1005.2L527.53,979.54L530.34,965.93L533.15,971.17L535.95,987.38L538.76,1036.46L541.56,1004.79L544.37,1010.06L547.18,1003.91L549.98,984.67L552.79,981.07L555.59,950.51L558.4,995.04L561.21,1006.91L564.01,987.64L566.82,953.4L569.62,961.19L572.43,1019.65L575.24,1069.07L578.04,1000.27L580.85,1031.66L583.65,1010.42L586.46,1002.46L589.27,991.78L592.07,1050.94L594.88,1043.33L597.68,1052.48L600.49,1128.92L603.3,1075.07L606.1,1042.53L608.91,1073.17L611.71,1060L614.52,1037.33L617.33,1058.42L620.13,1058.33L622.94,1067.46L625.74,1052.69L628.55,1124.88L631.36,1086.4L634.16,1063.01L636.97,1052.41L639.77,1051.15L642.58,1066.32L645.39,1076.29L648.19,998.92L651,1062.83L653.81,1077.19L656.61,1052.44L659.42,1036.28L662.22,1009.94L665.03,1035.29L667.84,1047.21L670.64,1048.17L673.45,1118.25L676.25,1050.51L679.06,1119.72L681.87,1087.01L684.67,1081.87L687.48,1081.8L690.28,1079.72L693.09,1140.62L695.9,1119.93L698.7,1123.56L701.51,1207.97L704.31,1189.02L707.12,1193.41L709.93,1183.87L712.73,1182.2L715.54,1181.17L718.34,1177.3L721.15,1177.62L723.96,1183.86L726.76,1148.57L729.57,1144.69L732.37,1153.95L735.18,1179.26L737.99,1165.8L740.79,1127.83L743.6,1142.53L746.4,1111.63L749.21,1100.48L752.02,1077.16L754.82,1069.56L757.63,1085.49L760.43,1078.2L763.24,1080.24L766.05,1083.8L768.85,1079.54L771.66,1088.25L774.46,1073.06L777.27,1106.15L780.08,1118.26L782.88,1097.3L785.69,1108.24L788.49,1060.44L791.3,1054.47L796.91,1096.04L799.72,1066.12L802.52,1052.04L805.33,1058.32L808.14,1065.39L810.94,1041.59L813.75,1071.78L816.55,1085.32L819.36,1057.93L822.17,1125.82L824.97,1134.33L827.78,1129.5L830.58,1135.87L833.39,1132.33L836.2,1119.84L839,1116.5L841.81,1124.58L844.62,1111.89L847.42,1120.74L850.23,1140.9L853.03,1137.63L855.84,1132.97L858.65,1138.44L861.45,1158.26L867.06,1184.47L869.87,1186.25L872.68,1203.04L875.48,1197.97L878.29,1199.19L881.09,1201.38L883.9,1193.32L886.71,1205.9L889.51,1207.16L892.32,1217.39L895.12,1213.54L897.93,1201.26L900.74,1203.73L903.54,1181.82L906.35,1194.48L909.15,1200.92L914.77,1157.21L917.57,1153.28L920.38,1166.78L923.18,1167.59L928.8,1187.83L931.6,1165.43L934.41,1178.96L937.21,1181.56L940.02,1177.08L942.83,1160.09L945.63,1184.31L948.44,1173.35L951.24,1171.49L954.05,1164.92L959.66,1180.06L962.47,1160.21L965.27,1162.44L968.08,1166.52L970.89,1156.18L973.69,1149.42L976.5,1195.99L979.3,1208.89L982.11,1211.63L984.92,1212.54L987.72,1212.79L990.53,1216.3L993.33,1209.78L996.14,1209.61L998.95,1214.92L1001.75,1222.14L1004.56,1224.47L1007.36,1223.6L1010.17,1225.44L1012.98,1224.54L1015.78,1220.67L1018.59,1221.45L1021.39,1230.11L1024.2,1232.58L1027.01,1224.13L1029.81,1225.27L1032.62,1231.61L1035.43,1232.16L1038.23,1222.24L1041.04,1223.13L1043.84,1227.02L1046.65,1226.39L1049.46,1234.61L1052.26,1236.47L1055.07,1230.37L1057.87,1230.14L1060.68,1219.06L1063.49,1217.84L1066.29,1225.77L1069.1,1220.63L1071.9,1221.53L1074.71,1209.84L1077.52,1207.3L1080.32,1211.96L1085.93,1196.16L1088.74,1197.53L1091.55,1195.66L1094.35,1191.75L1097.16,1193.5L1099.96,1186.86L1102.77,1184.35L1105.58,1191.8L1108.38,1184.06L1111.19,1192.68L1113.99,1187.78L1116.8,1191.23L1119.61,1188.77L1122.41,1202.6L1125.22,1195.67L1128.02,1198.03L1130.83,1193.76L1133.64,1202.44L1136.44,1200.98L1139.25,1201.56L1142.05,1207.83L1144.86,1207.53L1150.47,1207.47L1153.28,1211.47L1156.08,1219.54L1158.89,1211.67L1161.7,1209.16L1164.5,1215.12L1167.31,1217.97L1170.11,1217.19L1172.92,1208.89L1175.73,1211.54L1178.53,1212.53L1181.34,1210.78L1184.14,1163.76L1186.95,1173.22L1189.76,1179.29L1192.56,1170.65L1195.37,1164.7L1198.17,1167.36L1200.98,1156.6L1203.79,1168.15L1206.59,1142.47L1209.4,1153.41L1212.21,1146.17L1215.01,1146.49L1217.82,1131.95L1220.62,1127.21L1223.43,1124.98L1226.24,1114.27L1229.04,1106.55L1231.85,1113.57L1237.46,1112.93L1240.27,1102.75L1243.07,1085.11L1245.88,1089.96L1248.68,1086.94L1251.49,1097.18L1254.3,1081.23L1257.1,1075.96L1259.91,1065.03L1262.71,1068.33L1265.52,1063.92L1268.33,1083.96L1271.13,1087.11L1273.94,1089.09L1276.74,1094.15L1279.55,1112.29L1282.36,1094.79L1285.16,1094.39L1287.97,1111.91L1290.77,1065.65L1293.58,1082.44L1296.39,1081.9L1299.19,1073.4L1302,1084.57L1304.8,1068.54L1307.61,1086L1310.42,1087.02L1313.22,1092.96L1316.03,1103.18L1318.83,1108.18L1321.64,1106.22L1324.45,1116.84L1327.25,1111.53L1330.06,1115.05L1332.86,1119.77L1335.67,1104.27L1338.48,1113.91L1341.28,1105.63L1344.09,1112.13L1346.89,1080.44L1349.7,1071.64L1352.51,1068.06L1355.31,1064.88L1358.12,1051.08L1363.73,1030.18L1366.54,1023.81L1369.34,1023.29L1372.15,1023.72L1374.95,1019.16L1377.76,1031.07L1380.57,1023.75L1383.37,1036.74L1388.98,1022.62L1391.79,1016.72L1394.6,1013.07L1397.4,1005.46L1400.21,1021.67L1403.02,1033.14L1408.63,1029.69L1411.43,1015.34L1414.24,1020.26L1417.05,1021.02L1419.85,1028.32L1422.66,1032.46L1425.46,1034.21L1428.27,999.37L1431.08,1001.94L1433.88,995.6L1436.69,991.66L1439.49,1010.96L1442.3,1012.24L1445.11,1012.25L1447.91,1010.97L1450.72,1013.36L1456.33,1019.06L1459.14,1019.03L1464.75,1033.39L1467.55,1028.96L1470.36,1033.56L1473.17,1046.94L1475.97,1041.73L1478.78,1045.08L1481.58,1045.39L1484.39,1039.24L1487.2,1033.38L1490,1047.22L1492.81,1040.49L1495.61,1037.21L1498.42,1029.38L1501.23,1026.63L1504.03,1026.12L1506.84,1018.45L1509.64,1019.03L1512.45,1017.12L1518.06,1003.61L1520.87,1003.4L1523.67,1002.59L1526.48,1004.57L1529.29,990.83L1532.09,989.02L1537.7,961.47L1540.51,955.14L1543.32,955.16L1546.12,940.15L1548.93,946.23L1551.73,937.95L1554.54,928.22L1557.35,921.23L1560.15,932.22L1562.96,928.03L1565.76,930.64L1568.57,938.82L1571.38,954.55L1574.18,952.3L1576.99,959.87L1579.79,963.48L1582.6,964.47L1585.41,972.21L1588.21,979.97L1591.02,983.67L1593.83,989.4L1596.63,992.24L1599.44,988.09L1602.24,996.98L1605.05,1010.88L1607.86,1015.4L1613.47,1018.41L1616.27,1024.35L1619.08,1036.53L1621.89,1018.42L1624.69,1019.58L1627.5,1018.18L1630.3,1026.03L1633.11,1011.61L1635.92,1002.09L1638.72,996.62L1641.53,977.08L1644.33,977.23L1647.14,978.61L1649.95,967.37L1652.75,966.27L1655.56,961.2L1658.36,964.1L1661.17,951.76L1663.98,941.9L1666.78,937.35L1669.59,888.89L1672.39,877.15L1675.2,874.39L1678.01,869.05L1680.81,862.08L1683.62,860.87L1686.42,840.62L1689.23,859.58L1692.04,843.11L1694.84,836.36L1697.65,845.05L1700.45,846.63L1703.26,851.95L1706.07,850.28L1708.87,850.59L1711.68,862.97L1717.29,875.78L1720.1,875.42L1722.9,881.29L1725.71,894.92L1728.51,905.33L1731.32,906.54L1734.13,922.56L1736.93,917.01L1739.74,920.3L1742.54,916.18L1745.35,925.84L1748.16,929.5L1750.96,928.81L1753.77,941.55L1756.57,940.39L1759.38,945.36L1762.19,950.07L1764.99,961.76L1767.8,942.26L1770.61,942.25L1773.41,936.09L1776.22,927.8L1779.02,940.7L1781.83,932.58L1784.64,922.31L1787.44,921.75L1793.05,908.93L1795.86,904.13L1798.67,903.11L1801.47,898.24L1807.08,885.52L1809.89,891.02L1812.7,884.61L1815.5,848.16L1823.92,836.33L1826.73,828.39L1829.53,819.84L1832.34,826.34L1835.14,829.19L1837.95,827.03L1840.76,823.98L1843.56,833.25L1846.37,821.01L1849.17,831.59L1854.79,829L1857.59,822.73L1860.4,820.03L1863.2,826.35L1866.01,826.72L1868.82,821.93L1874.43,854.88L1877.23,851.82L1882.85,868.89L1885.65,860.19L1888.46,852.17L1891.26,863.81L1894.07,858.66L1896.88,858.32L1899.68,863.36L1902.49,861.52L1905.29,852.77L1908.1,855.14L1910.91,854.1L1913.71,838.24L1916.52,846.42L1919.32,840.78L1922.13,848.61L1924.94,842.45L1927.74,839.77L1930.55,840.03L1933.35,841.39L1936.16,835.15L1938.97,840.64L1941.77,833.2L1944.58,828.1L1947.38,827.67L1953,815.87L1955.8,813.35L1958.61,814.59L1961.42,802.88L1964.22,792.88L1967.03,791.4L1969.83,796.49L1972.64,794.75L1975.45,796.45L1978.25,790.96L1986.67,803.1L1989.48,791.53L1992.28,799.23L1995.09,751.66L1997.89,756.43L2000.7,756.22L2003.51,753.86L2006.31,756.16L2009.12,767.02L2011.92,764.7L2014.73,762.6L2017.54,765.18L2020.34,764.48L2023.15,777.1L2025.95,778.19L2028.76,787.66L2031.57,787.91L2034.37,799.74L2037.18,797.18L2039.98,804.25L2042.79,807.82L2045.6,807.18L2048.4,810.55L2051.21,816.46L2054.01,818.13L2056.82,811.36L2059.63,813.35L2062.43,813.83L2065.24,814.62L2068.04,807.33L2070.85,813.26L2073.66,804.8L2076.46,795.65L2079.27,808.34L2082.07,806.81L2084.88,807.43L2090.49,791.95L2093.3,784.29L2096.1,792.88L2098.91,777.5L2101.72,778.02L2104.52,772.51L2107.33,769.07L2110.13,762.89L2115.75,744.7L2118.55,750.92L2121.36,748.75L2124.16,748.95L2126.97,734.9L2129.78,746.01L2132.58,754.84L2135.39,750.84L2138.19,748.55L2141,757.68L2143.81,750.6L2146.61,749.43L2149.42,742.7L2152.23,751.5L2155.03,754.54L2157.84,755.96L2160.64,758.07L2163.45,762.62L2166.26,761.4L2169.06,762.75L2174.67,777.69L2177.48,769.27L2180.29,767.12L2183.09,775.36L2185.9,776.81L2188.7,776.28L2191.51,775.63L2194.32,779.16L2197.12,775.02L2199.93,789.5L2202.73,793.49L2205.54,789.7L2208.35,781L2211.15,786.28L2213.96,788.17L2216.76,796.13L2219.57,795.18L2222.38,789.39L2225.18,776.74L2227.99,770.02L2230.79,767.43L2233.6,763.75L2239.21,747.27L2242.02,749.27L2244.82,752.16L2247.63,741.74L2250.44,751.49L2253.24,748.72L2256.05,748.02L2258.85,752.59L2261.66,758.17L2264.47,754.55L2270.08,740.21L2272.88,735.77L2275.69,735.27L2278.5,725.81L2281.3,723.47L2284.11,715.41L2286.91,710.14L2289.72,700.47L2292.53,690.15L2295.33,701.17L2298.14,685.41L2300.94,691.7L2306.56,709.09L2309.36,707.21L2312.17,711.68L2314.97,721.07L2317.78,721.62L2320.59,719.56L2326.2,704.51L2329.01,708.84L2331.81,715.7L2334.62,715L2337.42,705.73L2340.23,720.71L2343.04,713.28L2345.84,719.56L2348.65,719.53L2351.45,660.06L2354.26,679.91L2357.07,685.3L2359.87,695.28L2362.68,693.64L2365.48,690.91L2368.29,683.34L2371.1,678.85L2373.9,655.54L2376.71,652.21L2379.51,641.29L2382.32,652.44L2385.13,624.5L2387.93,615.43L2390.74,617.86L2393.54,597.06L2396.35,610.16L2401.96,572.82L2404.77,570.05L2407.57,561.93L2410.38,533.27L2413.19,508.11L2415.99,533.79L2418.8,531.73L2421.6,511.98L2424.41,534.37L2427.22,520L2430.02,431.15L2432.83,402.71L2435.63,414.26L2438.44,398.44L2441.25,421.1L2444.05,411.17L2446.86,407.17L2449.66,412.05L2452.47,396.62L2455.28,407.07L2458.08,408.04L2460.89,403.22L2463.69,418.85L2466.5,425.07L2469.31,449.15L2472.11,442.42L2474.92,487.44L2477.72,460.56L2480.53,484.76L2483.34,487.03L2486.14,511.82L2488.95,495.48L2491.75,476.84L2494.56,494.92L2497.37,529.33L2500.17,498.44L2502.98,490.91L2505.78,471.83L2508.59,414.56L2511.4,427.88L2514.2,428.31L2517.01,416.59L2519.82,390.88L2522.62,391.6L2525.43,333.94L2528.23,322.7L2531.04,329.33L2533.85,283.01L2536.65,267.99L2539.46,263.55L2545.07,213.82L2547.88,199.51L2553.49,164.64L2556.29,162.33L2559.1,142.09L2561.91,172.87L2564.71,171.31L2567.52,157.41L2570.32,111.6L2573.13,127.27L2575.94,136.9L2578.74,108.71L2581.55,109.34L2584.35,116.3L2587.16,134.76L2589.97,164.51L2592.77,179.92L2595.58,230.06L2598.38,238.49L2601.19,244.55L2606.8,285.95L2609.61,291.1L2612.41,206.5L2615.22,221.69L2618.03,217.82L2620.83,246.71L2626.44,214.23L2629.25,251.96L2632.06,270.01L2634.86,281.26L2637.67,280.77L2640.47,301.68L2643.28,312.04L2646.09,347.41L2648.89,331.13L2651.7,329.33L2654.5,400.49L2657.31,428.65L2660.12,426.74L2662.92,391.71L2665.73,355.77L2668.53,367.05L2671.34,376.01L2674.15,365.54L2676.95,350.75L2679.76,353.75L2682.56,366.08L2685.37,436.29L2688.18,411.64L2690.98,291.99L2693.79,238.83L2696.59,296.71L2699.4,305.38L2702.21,341.66L2705.01,462.8L2707.82,473.07L2710.63,400.69L2713.43,425.36L2716.24,395.45L2719.04,302.28L2724.66,359.24L2727.46,305.61L2730.27,293.88L2733.07,290.68L2735.88,253.32L2738.69,232.24L2744.3,261.04L2747.1,257L2749.91,260.54L2752.72,280.62L2755.52,285.93L2758.33,214.53L2761.13,226.33L2763.94,341.38L2766.75,314.51L2769.55,343.69L2772.36,342.46L2775.16,272.63L2777.97,260.72L2780.78,230.8L2783.58,114.56L2786.39,178.84L2789.19,204.67L2792,203.38" style="vector-effect: none; fill: none; stroke: rgb(25, 211, 243); stroke-opacity: 1; stroke-width: 2px; opacity: 1;"/></g><g class="points"/><g class="text"/></g></g></g><g class="overplot"/><path class="xlines-above crisp" d="M0,0" style="fill: none;"/><path class="ylines-above crisp" d="M0,0" style="fill: none;"/><g class="overlines-above"/><g class="xaxislayer-above"><g class="xtick"><text text-anchor="middle" x="0" y="1442" transform="translate(358.9,0)" style="font-family: 'Open Sans', verdana, arial, sans-serif; font-size: 30px; fill: rgb(42, 63, 95); fill-opacity: 1; white-space: pre; opacity: 1;">2006</text></g><g class="xtick"><text text-anchor="middle" x="0" y="1442" style="font-family: 'Open Sans', verdana, arial, sans-serif; font-size: 30px; fill: rgb(42, 63, 95); fill-opacity: 1; white-space: pre; opacity: 1;" transform="translate(651.53,0)">2008</text></g><g class="xtick"><text text-anchor="middle" x="0" y="1442" style="font-family: 'Open Sans', verdana, arial, sans-serif; font-size: 30px; fill: rgb(42, 63, 95); fill-opacity: 1; white-space: pre; opacity: 1;" transform="translate(944.55,0)">2010</text></g><g class="xtick"><text text-anchor="middle" x="0" y="1442" style="font-family: 'Open Sans', verdana, arial, sans-serif; font-size: 30px; fill: rgb(42, 63, 95); fill-opacity: 1; white-space: pre; opacity: 1;" transform="translate(1237.18,0)">2012</text></g><g class="xtick"><text text-anchor="middle" x="0" y="1442" style="font-family: 'Open Sans', verdana, arial, sans-serif; font-size: 30px; fill: rgb(42, 63, 95); fill-opacity: 1; white-space: pre; opacity: 1;" transform="translate(1530.21,0)">2014</text></g><g class="xtick"><text text-anchor="middle" x="0" y="1442" style="font-family: 'Open Sans', verdana, arial, sans-serif; font-size: 30px; fill: rgb(42, 63, 95); fill-opacity: 1; white-space: pre; opacity: 1;" transform="translate(1822.84,0)">2016</text></g><g class="xtick"><text text-anchor="middle" x="0" y="1442" style="font-family: 'Open Sans', verdana, arial, sans-serif; font-size: 30px; fill: rgb(42, 63, 95); fill-opacity: 1; white-space: pre; opacity: 1;" transform="translate(2115.87,0)">2018</text></g><g class="xtick"><text text-anchor="middle" x="0" y="1442" style="font-family: 'Open Sans', verdana, arial, sans-serif; font-size: 30px; fill: rgb(42, 63, 95); fill-opacity: 1; white-space: pre; opacity: 1;" transform="translate(2408.5,0)">2020</text></g><g class="xtick"><text text-anchor="middle" x="0" y="1442" style="font-family: 'Open Sans', verdana, arial, sans-serif; font-size: 30px; fill: rgb(42, 63, 95); fill-opacity: 1; white-space: pre; opacity: 1;" transform="translate(2701.53,0)">2022</text></g></g><g class="yaxislayer-above"><g class="ytick"><text text-anchor="end" x="127" y="10.5" transform="translate(0,1244.98)" style="font-family: 'Open Sans', verdana, arial, sans-serif; font-size: 30px; fill: rgb(42, 63, 95); fill-opacity: 1; white-space: pre; opacity: 1;">150k</text></g><g class="ytick"><text text-anchor="end" x="127" y="10.5" style="font-family: 'Open Sans', verdana, arial, sans-serif; font-size: 30px; fill: rgb(42, 63, 95); fill-opacity: 1; white-space: pre; opacity: 1;" transform="translate(0,982.53)">200k</text></g><g class="ytick"><text text-anchor="end" x="127" y="10.5" style="font-family: 'Open Sans', verdana, arial, sans-serif; font-size: 30px; fill: rgb(42, 63, 95); fill-opacity: 1; white-space: pre; opacity: 1;" transform="translate(0,720.08)">250k</text></g><g class="ytick"><text text-anchor="end" x="127" y="10.5" style="font-family: 'Open Sans', verdana, arial, sans-serif; font-size: 30px; fill: rgb(42, 63, 95); fill-opacity: 1; white-space: pre; opacity: 1;" transform="translate(0,457.64)">300k</text></g><g class="ytick"><text text-anchor="end" x="127" y="10.5" style="font-family: 'Open Sans', verdana, arial, sans-serif; font-size: 30px; fill: rgb(42, 63, 95); fill-opacity: 1; white-space: pre; opacity: 1;" transform="translate(0,195.19)">350k</text></g></g><g class="overaxes-above"/></g></g><g class="polarlayer"/><g class="smithlayer"/><g class="ternarylayer"/><g class="geolayer"/><g class="funnelarealayer"/><g class="pielayer"/><g class="iciclelayer"/><g class="treemaplayer"/><g class="sunburstlayer"/><g class="glimages"/><defs id="topdefs-797661"><g class="clips"/><clipPath id="legend797661"><rect width="484" height="262" x="0" y="0"/></clipPath></defs><g class="layer-above"><g class="imagelayer"/><g class="shapelayer"/></g><g class="infolayer"><g class="legend" pointer-events="all" transform="translate(128,100)"><rect class="bg" shape-rendering="crispEdges" width="484" height="262" x="0" y="0" style="stroke: rgb(68, 68, 68); stroke-opacity: 1; fill: rgb(255, 255, 255); fill-opacity: 1; stroke-width: 0px;"/><g class="scrollbox" transform="" clip-path="url(#legend797661)"><g class="groups"><g class="traces" transform="translate(0,26)" style="opacity: 1;"><text class="legendtext" text-anchor="start" x="40" y="11.7" style="font-family: 'Open Sans', verdana, arial, sans-serif; font-size: 30px; fill: rgb(42, 63, 95); fill-opacity: 1; white-space: pre;">True values</text><g class="layers" style="opacity: 1;"><g class="legendfill"/><g class="legendlines"><path class="js-line" d="M5,0h30" style="fill: none; stroke: rgb(99, 110, 250); stroke-opacity: 1; stroke-width: 2px;"/></g><g class="legendsymbols"><g class="legendpoints"/></g></g><rect class="legendtoggle" x="0" y="-21" width="478.859375" height="42" style="fill: rgb(0, 0, 0); fill-opacity: 0;"/></g><g class="traces" transform="translate(0,68)" style="opacity: 1;"><text class="legendtext" text-anchor="start" x="40" y="11.7" style="font-family: 'Open Sans', verdana, arial, sans-serif; font-size: 30px; fill: rgb(42, 63, 95); fill-opacity: 1; white-space: pre;">Smoothed stacked prediction</text><g class="layers" style="opacity: 1;"><g class="legendfill"/><g class="legendlines"><path class="js-line" d="M5,0h30" style="fill: none; stroke: rgb(239, 85, 59); stroke-opacity: 1; stroke-width: 2px;"/></g><g class="legendsymbols"><g class="legendpoints"/></g></g><rect class="legendtoggle" x="0" y="-21" width="478.859375" height="42" style="fill: rgb(0, 0, 0); fill-opacity: 0;"/></g><g class="traces" transform="translate(0,110)" style="opacity: 1;"><text class="legendtext" text-anchor="start" x="40" y="11.7" style="font-family: 'Open Sans', verdana, arial, sans-serif; font-size: 30px; fill: rgb(42, 63, 95); fill-opacity: 1; white-space: pre;">Stacked prediction</text><g class="layers" style="opacity: 0.4;"><g class="legendfill"/><g class="legendlines"><path class="js-line" d="M5,0h30" style="fill: none; stroke: rgb(0, 204, 150); stroke-opacity: 1; stroke-width: 2px;"/></g><g class="legendsymbols"><g class="legendpoints"/></g></g><rect class="legendtoggle" x="0" y="-21" width="478.859375" height="42" style="fill: rgb(0, 0, 0); fill-opacity: 0;"/></g><g class="traces" transform="translate(0,152)" style="opacity: 1;"><text class="legendtext" text-anchor="start" x="40" y="11.7" style="font-family: 'Open Sans', verdana, arial, sans-serif; font-size: 30px; fill: rgb(42, 63, 95); fill-opacity: 1; white-space: pre;">LightGBM prediction</text><g class="layers" style="opacity: 0.2;"><g class="legendfill"/><g class="legendlines"><path class="js-line" d="M5,0h30" style="fill: none; stroke: rgb(171, 99, 250); stroke-opacity: 1; stroke-width: 2px;"/></g><g class="legendsymbols"><g class="legendpoints"/></g></g><rect class="legendtoggle" x="0" y="-21" width="478.859375" height="42" style="fill: rgb(0, 0, 0); fill-opacity: 0;"/></g><g class="traces" transform="translate(0,194)" style="opacity: 1;"><text class="legendtext" text-anchor="start" x="40" y="11.7" style="font-family: 'Open Sans', verdana, arial, sans-serif; font-size: 30px; fill: rgb(42, 63, 95); fill-opacity: 1; white-space: pre;">XGBoost prediction</text><g class="layers" style="opacity: 0.2;"><g class="legendfill"/><g class="legendlines"><path class="js-line" d="M5,0h30" style="fill: none; stroke: rgb(255, 161, 90); stroke-opacity: 1; stroke-width: 2px;"/></g><g class="legendsymbols"><g class="legendpoints"/></g></g><rect class="legendtoggle" x="0" y="-21" width="478.859375" height="42" style="fill: rgb(0, 0, 0); fill-opacity: 0;"/></g><g class="traces" transform="translate(0,236)" style="opacity: 1;"><text class="legendtext" text-anchor="start" x="40" y="11.7" style="font-family: 'Open Sans', verdana, arial, sans-serif; font-size: 30px; fill: rgb(42, 63, 95); fill-opacity: 1; white-space: pre;">CatBoost prediction</text><g class="layers" style="opacity: 0.2;"><g class="legendfill"/><g class="legendlines"><path class="js-line" d="M5,0h30" style="fill: none; stroke: rgb(25, 211, 243); stroke-opacity: 1; stroke-width: 2px;"/></g><g class="legendsymbols"><g class="legendpoints"/></g></g><rect class="legendtoggle" x="0" y="-21" width="478.859375" height="42" style="fill: rgb(0, 0, 0); fill-opacity: 0;"/></g></g></g><rect class="scrollbar" rx="20" ry="3" width="0" height="0" x="0" y="0" style="fill: rgb(128, 139, 164); fill-opacity: 1;"/></g><g class="g-gtitle"><text class="gtitle" x="1500" y="50" text-anchor="middle" dy="0em" style="font-family: 'Open Sans', verdana, arial, sans-serif; font-size: 42px; fill: rgb(42, 63, 95); opacity: 1; font-weight: normal; white-space: pre;">Predictions vs Case-Shiller</text></g><g class="g-xtitle"><text class="xtitle" x="1524" y="1487.7" text-anchor="middle" style="font-family: 'Open Sans', verdana, arial, sans-serif; font-size: 36px; fill: rgb(42, 63, 95); opacity: 1; font-weight: normal; white-space: pre;">Date</text></g><g class="g-ytitle" transform="translate(23.6845703125,0)"><text class="ytitle" transform="rotate(-90,12.315624999999997,755.5)" x="12.315624999999997" y="755.5" text-anchor="middle" style="font-family: 'Open Sans', verdana, arial, sans-serif; font-size: 36px; fill: rgb(42, 63, 95); opacity: 1; font-weight: normal; white-space: pre;">Home price, $</text></g></g></svg>