<svg class="main-svg" xmlns="http://www.w3.org/2000/svg" xmlns:xlink="http://www.w3.org/1999/xlink" width="18000" height="9000" style="" viewBox="0 0 3000 1500"><rect x="0" y="0" width="3000" height="1500" style="fill: rgb(255, 255, 255); fill-opacity: 1;"/><defs id="defs-49d6bc"><g class="clips"><clipPath id="clip49d6bcxyplot" class="plotclip"><rect width="2792" height="1311"/></clipPath><clipPath class="axesclip" id="clip49d6bcx"><rect x="128" y="0" width="2792" height="1500"/></clipPath><clipPath class="axesclip" id="clip49d6bcy"><rect x="0" y="100" width="3000" height="1311"/></clipPath><clipPath class="axesclip" id="clip49d6bcxy"><rect x="128" y="100" width="2792" height="1311"/></clipPath></g><g class="gradients"/><g class="patterns"/></defs><g class="bglayer"/><g class="layer-below"><g class="imagelayer"/><g class="shapelayer"/></g><g class="cartesianlayer"><g class="subplot xy"><g class="layer-subplot"><g class="shapelayer"/><g class="imagelayer"/></g><g class="minor-gridlayer"><g class="x"/><g class="y"/></g><g class="gridlayer"><g class="x"><path class="xgrid crisp" transform="translate(355.91999999999996,0)" d="M0,100v1311" style="stroke: rgb(235, 240, 248); stroke-opacity: 1; stroke-width: 1px;"/><path class="xgrid crisp" transform="translate(644.77,0)" d="M0,100v1311" style="stroke: rgb(235, 240, 248); stroke-opacity: 1; stroke-width: 1px;"/><path class="xgrid crisp" transform="translate(934.02,0)" d="M0,100v1311" style="stroke: rgb(235, 240, 248); stroke-opacity: 1; stroke-width: 1px;"/><path class="xgrid crisp" transform="translate(1222.88,0)" d="M0,100v1311" style="stroke: rgb(235, 240, 248); stroke-opacity: 1; stroke-width: 1px;"/><path class="xgrid crisp" transform="translate(1512.13,0)" d="M0,100v1311" style="stroke: rgb(235, 240, 248); stroke-opacity: 1; stroke-width: 1px;"/><path class="xgrid crisp" transform="translate(1800.98,0)" d="M0,100v1311" style="stroke: rgb(235, 240, 248); stroke-opacity: 1; stroke-width: 1px;"/><path class="xgrid crisp" transform="translate(2090.23,0)" d="M0,100v1311" style="stroke: rgb(235, 240, 248); stroke-opacity: 1; stroke-width: 1px;"/><path class="xgrid crisp" transform="translate(2379.09,0)" d="M0,100v1311" style="stroke: rgb(235, 240, 248); stroke-opacity: 1; stroke-width: 1px;"/><path class="xgrid crisp" transform="translate(2668.34,0)" d="M0,100v1311" style="stroke: rgb(235, 240, 248); stroke-opacity: 1; stroke-width: 1px;"/></g><g class="y"><path class="ygrid crisp" transform="translate(0,1227.68)" d="M128,0h2792" style="stroke: rgb(235, 240, 248); stroke-opacity: 1; stroke-width: 1px;"/><path class="ygrid crisp" transform="translate(0,950.23)" d="M128,0h2792" style="stroke: rgb(235, 240, 248); stroke-opacity: 1; stroke-width: 1px;"/><path class="ygrid crisp" transform="translate(0,672.79)" d="M128,0h2792" style="stroke: rgb(235, 240, 248); stroke-opacity: 1; stroke-width: 1px;"/><path class="ygrid crisp" transform="translate(0,395.34)" d="M128,0h2792" style="stroke: rgb(235, 240, 248); stroke-opacity: 1; stroke-width: 1px;"/><path class="ygrid crisp" transform="translate(0,117.9)" d="M128,0h2792" style="stroke: rgb(235, 240, 248); stroke-opacity: 1; stroke-width: 1px;"/></g></g><g class="zerolinelayer"/><path class="xlines-below"/><path class="ylines-below"/><g class="overlines-below"/><g class="xaxislayer-below"/><g class="yaxislayer-below"/><g class="overaxes-below"/><g class="plot" transform="translate(128,100)" clip-path="url(#clip49d6bcxyplot)"><g class="scatterlayer mlayer"><g class="trace scatter trace8b919e" style="stroke-miterlimit: 2; opacity: 1;"><g class="fills"/><g class="errorbars"/><g class="lines"><path class="js-line" d="M0,1036.44L49.86,998.09L52.63,995.5L63.71,984.51L66.48,981.43L80.33,965.15L83.1,961.76L99.71,939.36L102.48,936.44L116.33,922.7L119.1,920.07L163.42,879.78L166.19,876.95L204.97,837.87L207.74,835.87L229.9,820.16L232.67,819.08L243.75,815.3L246.52,814.67L254.83,813.46L257.6,813.65L265.9,814.61L268.67,815.49L285.29,821.55L288.06,822.68L304.68,828.36L307.45,829.02L315.76,830.38L318.53,830.43L351.77,830.61L354.54,830.28L376.7,827.84L379.47,828.01L385.01,828.51L387.78,829.85L398.86,835.95L401.63,838.35L415.48,851.15L418.25,853.89L434.87,869.49L437.63,871.93L454.25,885.85L457.02,888.06L470.87,902.49L473.64,906.34L498.57,939.8L501.34,943.51L509.65,955.76L512.42,960.26L531.81,991.19L534.58,994.54L548.43,1012.21L551.2,1015.94L556.74,1022.55L559.51,1025.54L570.59,1038.53L573.36,1042.12L581.67,1051.86L584.44,1054.72L592.75,1064.21L595.52,1067.97L617.67,1096.99L620.44,1100.29L631.52,1114.42L634.29,1118.22L650.91,1140.73L653.68,1143.36L664.76,1154.89L667.53,1158.9L673.07,1166.93L675.84,1169.11L689.69,1175.71L692.46,1176.64L698,1178.5L700.77,1177.93L711.85,1175.29L714.62,1174.05L728.47,1167.17L731.24,1165.63L736.78,1163.23L739.55,1162.49L756.17,1157.36L758.94,1156.43L794.94,1144.7L797.71,1144.73L808.79,1145.36L811.56,1146.31L817.1,1148.2L819.87,1148.01L830.95,1143.95L833.72,1143.68L844.8,1143.07L847.57,1143.36L855.88,1144.45L858.65,1145.28L872.5,1149.94L875.27,1151.02L891.89,1158.24L894.66,1159.44L905.74,1163.47L908.51,1163.91L944.52,1170.08L947.29,1170.77L952.83,1172.82L955.6,1175.06L961.13,1179.54L963.9,1180.67L977.75,1179.69L980.52,1180.03L994.37,1181.03L997.14,1181.12L1016.53,1182.05L1019.3,1182.39L1027.61,1184.12L1030.38,1184.9L1044.23,1189.47L1047,1190.46L1069.16,1197.11L1071.93,1197.78L1107.94,1201.69L1110.71,1200.12L1124.56,1191.47L1127.33,1189.43L1143.94,1177.52L1146.71,1176.29L1207.65,1148.99L1210.42,1147.31L1232.58,1134.72L1235.35,1133.17L1246.43,1126.2L1249.2,1124.26L1251.97,1122.32L1254.74,1118.7L1265.82,1104.7L1268.59,1101.92L1279.67,1091.43L1282.44,1089.13L1326.75,1052.52L1329.52,1050.55L1340.6,1043.33L1343.37,1041.82L1354.45,1036.46L1357.22,1035.3L1376.61,1027.6L1379.38,1026.83L1393.23,1022.36L1396,1021.38L1409.85,1016.94L1412.62,1016.55L1440.32,1013.37L1443.09,1013.23L1456.94,1011.36L1459.71,1010.71L1470.79,1007.79L1473.56,1006.59L1490.17,1000.17L1492.94,999.21L1515.1,989.58L1517.87,988.45L1531.72,981.13L1534.49,980.19L1564.96,970.73L1567.73,970.03L1600.97,961.31L1603.74,960.22L1625.9,950.35L1628.67,948.98L1645.29,941.55L1648.06,940.47L1667.44,933.57L1670.21,932.75L1684.06,927.99L1686.83,926.98L1703.45,921.51L1706.22,920.85L1722.84,916.18L1725.61,915.29L1750.54,906.55L1753.31,905.53L1769.93,898.82L1772.7,897.35L1803.17,879.79L1805.94,878.22L1819.79,872.87L1822.56,871.89L1858.56,859.76L1861.33,858.86L1869.64,855.36L1872.41,853.78L1883.49,848.12L1886.26,846.89L1894.57,842.49L1897.34,840.76L1911.19,832.77L1913.96,831.26L1949.97,810.02L1952.74,808.25L1963.82,801.34L1966.59,800.46L1980.44,796.59L1983.21,795.97L1997.06,792.07L1999.83,791.27L2033.06,782.53L2035.83,781.88L2063.53,773.65L2066.3,773.12L2085.69,769.98L2088.46,769.85L2110.62,769.2L2113.39,769.52L2121.7,769.79L2124.47,769.41L2141.09,766.43L2143.86,765.9L2160.48,762.73L2163.25,761.96L2185.4,755.29L2188.17,754.2L2199.25,749.13L2202.02,747.77L2232.49,733.51L2235.26,732.61L2254.65,726.01L2257.42,725.57L2268.5,724.45L2271.27,724.38L2282.35,724.78L2285.12,725.01L2290.66,724.94L2293.43,724.64L2298.97,724.05L2301.74,722.25L2312.82,710.16L2315.59,705.85L2329.44,683.28L2332.21,678.42L2343.29,657.68L2346.06,652.29L2354.37,637.78L2357.13,633.17L2373.75,606.73L2376.52,602.88L2401.45,568.73L2404.22,564.32L2423.61,532.09L2426.38,526.47L2448.54,479.88L2451.31,473.8L2456.85,461.88L2459.62,457.45L2495.63,399.17L2498.4,394.26L2506.71,378.93L2509.48,372.97L2528.87,330.31L2531.63,322.47L2553.79,258.54L2556.56,253.28L2567.64,233.42L2570.41,229.31L2575.95,221.09L2578.72,219.27L2589.8,216.42L2592.57,218.16L2600.88,223.37L2603.65,227.91L2620.27,253.79L2623.04,257.8L2625.81,261.43L2628.58,262.69L2653.51,274.16L2656.28,275.79L2664.59,279.93L2667.36,280.92L2675.67,283.33L2678.44,283.55L2686.75,283.72L2689.52,282.27L2692.29,280.82L2695.06,277.57L2703.37,269.66L2708.9,267.02L2725.52,246.31L2728.29,243.32L2736.6,233.36L2739.37,229.5L2753.22,211.37L2755.99,207.93L2767.07,196.35L2769.84,193.55L2780.92,183.47L2783.69,182.18L2792,179.78" style="vector-effect: none; fill: none; stroke: rgb(99, 110, 250); stroke-opacity: 1; stroke-width: 2px; opacity: 1;"/></g><g class="points"/><g class="text"/></g><g class="trace scatter trace1f68e9" style="stroke-miterlimit: 2; opacity: 1;"><g class="fills"/><g class="errorbars"/><g class="lines"><path class="js-line" d="M0,1030.68L8.31,1028.52L11.08,1027.46L19.39,1023.37L22.16,1021.73L33.24,1013.98L36.01,1011.79L58.17,993.42L60.94,990.94L69.25,982.66L72.02,979.48L83.1,965.1L85.87,961.27L110.79,927.1L113.56,923.74L124.64,911.9L127.41,909.32L155.11,884.64L157.88,881.73L191.12,847.69L193.89,845.13L207.74,833.48L210.51,831.4L224.36,822.11L227.13,820.45L240.98,813.2L243.75,811.96L257.6,806.95L260.37,806.22L271.44,804.26L274.21,804.2L282.52,805.22L285.29,805.85L293.6,808.55L296.37,809.67L318.53,818.44L321.3,819.19L329.61,820.49L332.38,820.59L340.69,819.91L343.46,819.35L354.54,815.99L357.31,814.96L379.47,806.96L382.24,806.29L390.55,805.34L393.32,805.63L398.86,807.31L401.63,808.7L407.17,812.61L409.94,815.13L421.02,827.05L423.79,830.27L473.64,888.97L476.41,892.13L501.34,921.63L504.11,925.15L520.73,947.83L523.5,951.79L551.2,990.75L553.97,994.32L650.91,1117.75L653.68,1120.91L670.3,1138.3L673.07,1141.05L686.92,1153.82L689.69,1156.08L698,1161.86L700.77,1163.25L709.08,1165.66L711.85,1165.94L720.16,1165.46L722.93,1165.1L753.4,1160.98L756.17,1160.27L767.25,1156.4L770.02,1155.24L797.71,1143.34L800.48,1142.52L808.79,1140.8L811.56,1140.5L830.95,1140.02L833.72,1140.05L853.11,1141.21L855.88,1141.55L866.96,1143.79L869.73,1144.64L883.58,1150.17L886.35,1151.45L905.74,1159.96L908.51,1160.86L919.59,1163.51L922.36,1163.95L944.52,1166.16L947.29,1166.51L966.67,1170.1L969.44,1170.72L986.06,1175.38L988.83,1176.33L1013.76,1184.06L1016.53,1184.81L1041.46,1190.88L1044.23,1191.45L1069.16,1195.78L1071.93,1196.09L1085.78,1196.64L1088.55,1196.54L1102.4,1195.23L1105.17,1194.81L1121.79,1191.3L1124.56,1190.56L1141.17,1185.17L1143.94,1184.13L1163.33,1175.89L1166.1,1174.63L1193.8,1161.12L1196.57,1159.67L1221.5,1145.8L1224.27,1144.13L1238.12,1134.61L1240.89,1132.45L1257.51,1118.11L1260.28,1115.52L1304.6,1073.76L1307.37,1071.5L1323.98,1059.32L1326.75,1057.38L1351.68,1040.91L1354.45,1039.2L1376.61,1026.69L1379.38,1025.29L1390.46,1020.58L1393.23,1019.66L1404.31,1016.91L1407.08,1016.48L1420.93,1015.37L1423.7,1015.3L1465.25,1014.51L1468.02,1014.11L1479.1,1011.56L1481.87,1010.69L1495.71,1005.13L1498.48,1003.79L1512.33,995.97L1515.1,994.21L1553.88,969.11L1556.65,967.71L1564.96,964.33L1567.73,963.5L1578.81,961.34L1581.58,961.03L1614.82,957.87L1617.59,957.29L1634.21,952.89L1636.98,952L1648.06,947.59L1650.83,946.21L1659.13,941.17L1661.9,939.14L1670.21,931.86L1672.98,929.11L1692.37,910.05L1695.14,908.01L1700.68,905.1L1703.45,904.33L1708.99,904.24L1711.76,904.69L1720.07,907.84L1722.84,909.1L1731.15,911.98L1733.92,912.16L1739.46,910.73L1742.23,909.62L1764.39,900.98L1767.16,900.14L1783.78,894.72L1786.55,893.62L1797.63,888.48L1800.4,886.72L1805.94,881.9L1808.71,878.99L1830.87,853.27L1833.63,850.93L1841.94,846.07L1844.71,844.82L1853.02,842.11L1855.79,841.63L1864.1,841.19L1866.87,841.24L1883.49,841.17L1886.26,840.88L1902.88,837.65L1905.65,836.9L1913.96,833.78L1916.73,832.48L1927.81,826.19L1930.58,824.34L1944.43,813.89L1947.2,811.59L1972.13,790.91L1974.9,788.93L1985.98,782.34L1988.75,781.09L1999.83,777.59L2002.6,776.98L2010.9,776.04L2013.67,775.97L2024.75,776.61L2027.52,776.93L2060.76,780.89L2063.53,780.88L2071.84,780.12L2074.61,779.56L2082.92,776.92L2085.69,775.79L2102.31,767.83L2105.08,766.4L2135.55,750.33L2138.32,749.25L2143.86,747.77L2146.63,747.44L2154.94,747.7L2157.71,748.11L2182.63,753.27L2185.4,753.37L2193.71,752.72L2196.48,752.25L2207.56,749.16L2210.33,748.09L2224.18,741.51L2226.95,740.04L2257.42,723.9L2260.19,722.71L2271.27,718.9L2274.04,718.09L2290.66,712.88L2293.43,711.82L2304.51,706.79L2307.28,705.27L2318.36,698.02L2321.13,695.88L2332.21,685.92L2334.98,683.05L2346.06,669.96L2348.83,666.25L2359.9,649.76L2362.67,645.21L2376.52,620.34L2379.29,614.99L2398.68,575.22L2401.45,569.33L2429.15,511.95L2431.92,506.76L2448.54,477.9L2451.31,473.4L2473.47,439.28L2476.24,435.13L2492.86,409.25L2495.63,404.56L2509.48,379.05L2512.25,373.6L2523.33,350.28L2526.1,343.39L2534.4,319.55L2537.17,310.3L2548.25,268.73L2551.02,258.07L2559.33,228.29L2562.1,219.6L2567.64,205.2L2570.41,199.72L2575.95,192.55L2578.72,190.87L2584.26,190.39L2587.03,191.25L2592.57,195.19L2595.34,198.16L2600.88,205.69L2603.65,210.08L2614.73,229.91L2617.5,235.05L2628.58,254.15L2631.35,258.26L2639.66,268.2L2642.43,270.78L2647.97,274.84L2650.74,276.31L2656.28,278.12L2659.05,278.44L2664.59,277.91L2667.36,277.19L2675.67,274.11L2678.44,272.76L2689.52,265.94L2692.29,263.93L2703.37,255.03L2708.9,252.64L2731.06,232.37L2733.83,229.68L2755.99,208.84L2758.76,206.53L2769.84,198.63L2772.61,197.08L2780.92,193.74L2783.69,193.12L2789.23,192.73L2792,192.98" style="vector-effect: none; fill: none; stroke: rgb(239, 85, 59); stroke-opacity: 1; stroke-width: 2px; opacity: 1;"/></g><g class="points"/><g class="text"/></g><g class="trace scatter trace25b775" style="stroke-miterlimit: 2; opacity: 0.4;"><g class="fills"/><g class="errorbars"/><g class="lines"><path class="js-line" d="M0,1039.86L2.77,1037.41L5.54,1027.1L8.31,1025.13L11.08,1025.39L13.85,1022.41L16.62,1030.75L19.39,1026.28L22.16,1030.57L27.7,1012.67L30.47,1011.74L33.24,1012.35L36.01,1008.99L38.78,1008.4L41.55,1006.95L44.32,1008.63L47.09,997.4L49.86,996.54L52.63,999.36L55.4,999.18L58.17,994.97L60.94,995.41L63.71,993.12L66.48,981.1L69.25,986.2L72.02,975.27L74.79,972.14L80.33,969.08L83.1,966.15L85.87,960.94L88.63,957.71L91.4,955.49L94.17,950.24L96.94,942.07L99.71,943.04L102.48,945.31L105.25,936.06L108.02,933.09L110.79,933.68L113.56,927.06L116.33,918.4L119.1,911.75L121.87,912.81L130.18,905.62L132.95,902.86L135.72,901.45L138.49,893.27L144.03,897.52L146.8,892.46L149.57,889.23L152.34,890.96L155.11,885.25L157.88,882.84L160.65,885.52L163.42,882.33L168.96,867.38L171.73,863.18L174.5,854.25L177.27,857.82L180.04,854.83L182.81,855.08L185.58,861.03L188.35,841.7L193.89,844.76L196.66,838.28L199.43,835.15L202.2,834.81L204.97,840.12L207.74,835.48L210.51,838.96L213.28,833.17L216.05,831.3L218.82,827.12L221.59,830.2L224.36,823.56L227.13,816.96L229.9,814.74L232.67,820.4L235.44,810.67L238.21,817.57L240.98,812.29L243.75,810.03L246.52,804.27L249.29,801.85L252.06,801.76L254.83,807.96L257.6,807.95L260.37,813.71L263.13,808.09L265.9,809.59L268.67,807.78L271.44,803.85L274.21,803.1L276.98,804.15L279.75,804.12L282.52,804.56L285.29,803.82L288.06,805.97L290.83,805.65L293.6,806.28L296.37,805.38L299.14,803.35L301.91,806.66L304.68,812.12L307.45,814.84L310.22,812.67L312.99,813.5L315.76,824.41L318.53,815.55L321.3,815.71L324.07,818.4L329.61,826.56L332.38,827.07L335.15,827.17L337.92,826.44L340.69,825.14L343.46,821.37L346.23,823.54L349,822.67L351.77,818.28L354.54,816.38L357.31,816L360.08,819.01L362.85,816.57L365.62,812.26L368.39,811.63L371.16,809.53L373.93,808.01L376.7,805.36L379.47,807.38L382.24,802.5L385.01,803.01L387.78,799.88L393.32,799.96L396.09,807.58L401.63,810.73L404.4,813.69L407.17,820.29L409.94,822.64L412.71,826.29L415.48,826.67L418.25,816.51L421.02,819.14L423.79,833.99L426.56,835.92L429.33,835.14L432.1,830.67L434.87,842.73L437.63,844.23L440.4,844.92L443.17,846.9L445.94,860.42L448.71,863.64L451.48,861.15L454.25,862.71L457.02,866.52L459.79,872.51L462.56,873.62L465.33,880.48L468.1,883.19L470.87,888.29L473.64,892.98L476.41,892.7L479.18,891.91L481.95,895.25L484.72,896.96L487.49,904.41L493.03,920.96L495.8,916.27L498.57,923.98L501.34,923.65L506.88,939.04L509.65,939.84L512.42,936.4L515.19,945.27L517.96,941.34L520.73,942.24L523.5,943.31L526.27,957.98L529.04,951.7L531.81,963.58L534.58,961.13L537.35,971.82L540.12,974.5L542.89,978.37L545.66,980.2L548.43,993.07L551.2,992.44L553.97,1005.52L556.74,1010.83L559.51,1001.66L562.28,995.93L565.05,994.49L567.82,1001.92L570.59,1005.87L573.36,1012.82L576.13,1012.61L578.9,1018L581.67,1025.51L587.21,1041.07L589.98,1044.12L592.75,1051.13L595.52,1040.49L598.29,1044.85L601.06,1051.13L606.6,1064.99L609.37,1078.62L612.13,1069.67L614.9,1078.42L617.67,1081.53L620.44,1079.76L623.21,1088.57L625.98,1086.63L628.75,1086.63L631.52,1091.79L634.29,1094.09L637.06,1100.49L639.83,1106.92L642.6,1115.59L645.37,1118.81L648.14,1119.43L650.91,1125.77L653.68,1125.89L656.45,1123.84L659.22,1119.97L661.99,1112.65L664.76,1128.26L667.53,1130.6L670.3,1139.54L675.84,1133.27L678.61,1146.4L684.15,1161.51L686.92,1158.27L689.69,1159.82L692.46,1160.18L695.23,1162.75L698,1160.02L700.77,1164.67L703.54,1164.83L709.08,1165.47L711.85,1165.21L714.62,1163.68L717.39,1165.51L720.16,1163.28L722.93,1166.51L725.7,1167.84L728.47,1163.89L731.24,1161.51L734.01,1162.22L736.78,1166.18L739.55,1166.51L742.32,1161.39L745.09,1163.65L750.63,1159.2L753.4,1163.58L756.17,1158.81L758.94,1161.94L761.71,1160.63L764.48,1157.31L767.25,1154.1L770.02,1153.06L772.79,1152.19L775.56,1153.47L778.33,1151.43L781.1,1151.56L783.87,1148.8L786.63,1149.79L789.4,1150L792.17,1147.43L794.94,1141.11L797.71,1143.63L800.48,1142.28L803.25,1144.1L806.02,1144.15L808.79,1140.32L811.56,1138.79L814.33,1134.49L817.1,1133.87L819.87,1136.28L822.64,1139.39L825.41,1140.56L828.18,1147.27L830.95,1139.26L833.72,1141.95L836.49,1140.31L839.26,1142.3L842.03,1137.22L844.8,1139.61L847.57,1140.55L850.34,1137.05L853.11,1136.3L855.88,1139.37L858.65,1139.59L861.42,1139.24L864.19,1143.66L866.96,1142.68L869.73,1144.7L872.5,1144.01L875.27,1145.76L878.04,1144.73L880.81,1151.42L883.58,1152.2L886.35,1156.04L889.12,1155.15L891.89,1155.95L894.66,1160.41L897.43,1160.81L900.2,1154.95L902.97,1156.25L905.74,1161.14L908.51,1162.73L911.28,1165.2L914.05,1169.74L916.82,1164.3L919.59,1163.52L922.36,1164.03L925.13,1158.42L927.9,1153.56L930.67,1156.2L933.44,1162.04L936.21,1170.63L938.98,1164.63L941.75,1168.81L947.29,1166.09L950.06,1167.6L955.6,1169.39L958.37,1171.38L961.13,1171.42L963.9,1168.32L966.67,1167.37L969.44,1169.43L972.21,1178.54L974.98,1178.96L980.52,1170.57L983.29,1169.64L986.06,1170.08L988.83,1171.77L991.6,1174.28L994.37,1179.43L997.14,1180L999.91,1182.04L1002.68,1182.81L1005.45,1184.84L1008.22,1182.83L1010.99,1187.42L1016.53,1189.17L1019.3,1188.49L1022.07,1185.23L1024.84,1187.06L1027.61,1185.62L1030.38,1185.11L1033.15,1188.02L1035.92,1189.49L1038.69,1188.81L1041.46,1193.48L1044.23,1193.03L1047,1190.63L1049.77,1189.66L1052.54,1191.77L1055.31,1189.32L1058.08,1190.49L1060.85,1194.32L1063.62,1190.46L1066.39,1187.98L1069.16,1193.78L1071.93,1193.18L1074.7,1200.35L1077.47,1205.99L1080.24,1205.73L1085.78,1205.6L1088.55,1201.53L1091.32,1196.34L1094.09,1194.8L1096.86,1191.58L1099.63,1194.79L1102.4,1195.78L1105.17,1198.52L1107.94,1193.95L1110.71,1196.06L1116.25,1192.18L1119.02,1193.52L1121.79,1193.46L1124.56,1188.79L1127.33,1189.74L1130.1,1188.26L1132.87,1183.13L1135.63,1183.09L1138.4,1179.74L1141.17,1179.82L1143.94,1184.04L1146.71,1180.68L1149.48,1183.1L1152.25,1180.08L1155.02,1174.42L1157.79,1173.44L1160.56,1172.14L1163.33,1173.85L1166.1,1169.33L1168.87,1169.47L1174.41,1170.11L1177.18,1174.07L1179.95,1171.17L1182.72,1164.84L1185.49,1163.22L1188.26,1163.79L1191.03,1166.2L1193.8,1164.91L1196.57,1163.75L1199.34,1158.14L1202.11,1157.29L1204.88,1154.35L1207.65,1151.84L1210.42,1151.65L1213.19,1151.94L1215.96,1151.08L1218.73,1151.96L1221.5,1147.8L1224.27,1145.56L1227.04,1146.49L1229.81,1144.31L1232.58,1143.25L1238.12,1141.81L1240.89,1137.87L1246.43,1120.75L1249.2,1116.39L1254.74,1119.74L1257.51,1120.02L1260.28,1112.21L1263.05,1111.71L1265.82,1109.39L1268.59,1113.1L1271.36,1107.12L1274.13,1097.22L1276.9,1091.03L1279.67,1091.1L1282.44,1091.12L1285.21,1085.41L1287.98,1082.99L1290.75,1083.1L1293.52,1081.33L1296.29,1072.26L1299.06,1073.39L1301.83,1075.74L1304.6,1074.23L1307.37,1069.81L1310.13,1072.34L1312.9,1069.39L1315.67,1073.14L1318.44,1070.15L1321.21,1068.02L1323.98,1069.44L1326.75,1063.57L1329.52,1061.29L1332.29,1053.95L1335.06,1052.1L1337.83,1049.95L1340.6,1049.39L1343.37,1037.26L1346.14,1037.41L1351.68,1038.31L1354.45,1033.9L1357.22,1032.52L1359.99,1034.13L1362.76,1035.54L1365.53,1032.68L1368.3,1029.63L1371.07,1029.54L1373.84,1028.09L1376.61,1032.29L1379.38,1031.6L1382.15,1025.28L1384.92,1026.84L1387.69,1024.13L1393.23,1019.26L1396,1020.05L1398.77,1016.01L1401.54,1008.18L1407.08,1003.52L1409.85,1007.92L1412.62,1009.77L1415.39,1015.28L1418.16,1019.34L1420.93,1034.23L1423.7,1015.96L1426.47,1013.6L1429.24,1015.74L1432.01,1016.75L1434.78,1018.93L1437.55,1018.6L1440.32,1016.4L1443.09,1011.87L1445.86,1014.39L1448.63,1014.83L1454.17,1018.2L1456.94,1014.6L1459.71,1017.68L1462.48,1015.62L1465.25,1016.43L1468.02,1015.09L1470.79,1011.31L1473.56,1009.74L1479.1,1009.32L1481.87,1009.61L1484.63,1006.7L1487.4,1008.34L1490.17,1006.69L1492.94,1006.78L1495.71,1001.98L1498.48,1005.77L1501.25,1005.25L1504.02,1006.08L1506.79,1004.31L1509.56,1007.3L1512.33,1001.4L1515.1,999.58L1517.87,995.24L1520.64,989.15L1523.41,985.96L1526.18,989.35L1528.95,989.72L1531.72,983.71L1537.26,978.95L1540.03,973.26L1542.8,962.96L1545.57,959.39L1548.34,956.95L1551.11,964.09L1553.88,959.98L1556.65,957.41L1559.42,961.63L1562.19,962.07L1564.96,963.68L1567.73,950.92L1573.27,960.91L1576.04,958.53L1578.81,961.89L1581.58,959.99L1584.35,959.73L1587.12,964.3L1592.66,966.14L1595.43,964.25L1598.2,964.25L1600.97,965.46L1603.74,970.91L1606.51,971.34L1609.28,967.4L1612.05,961.31L1617.59,949.32L1620.36,954.75L1623.13,949.6L1625.9,948.61L1628.67,949.19L1631.44,954.65L1634.21,952.28L1636.98,956.04L1639.75,955.53L1642.52,954.07L1645.29,948.58L1648.06,947.17L1650.83,947.59L1653.6,942.04L1656.37,940.42L1659.13,941.33L1661.9,935.04L1664.67,941.53L1667.44,941.89L1670.21,932.43L1672.98,935.43L1675.75,927.11L1678.52,925.02L1681.29,920.27L1684.06,919.82L1686.83,909.87L1689.6,909.89L1692.37,908.35L1695.14,905.93L1697.91,901.98L1700.68,904.23L1703.45,905.51L1706.22,912.43L1708.99,906.86L1711.76,905.6L1714.53,902.7L1717.3,908.16L1720.07,905.07L1722.84,908.01L1725.61,908.04L1728.38,911.05L1731.15,912.49L1733.92,915.49L1736.69,911.54L1739.46,912.77L1742.23,913.09L1745,908.86L1747.77,910.16L1750.54,906.17L1753.31,906.76L1756.08,908.14L1758.85,899.3L1761.62,900.28L1764.39,897.46L1767.16,896.03L1769.93,897.3L1772.7,893.65L1775.47,892.78L1778.24,888.49L1781.01,889.75L1783.78,894.4L1786.55,897.22L1789.32,898.29L1792.09,898.19L1794.86,897.1L1797.63,896.91L1800.4,887.83L1803.17,885.57L1805.94,879.49L1808.71,877.08L1811.48,869.36L1814.25,865.13L1817.02,870.28L1819.79,865.58L1822.56,867.22L1825.33,862.45L1828.1,855.51L1830.87,856.75L1833.63,851.75L1836.4,848.68L1839.17,844.89L1841.94,848.25L1844.71,843.28L1847.48,847.4L1850.25,841.02L1853.02,844.76L1855.79,840.34L1858.56,837.96L1861.33,836.83L1864.1,837.48L1866.87,838.68L1869.64,837.84L1875.18,844.89L1877.95,840.55L1880.72,845.31L1883.49,841.7L1886.26,843.77L1889.03,843.26L1891.8,843.13L1894.57,845L1897.34,839.04L1900.11,841.06L1902.88,840.77L1905.65,838.91L1908.42,835.72L1911.19,834.63L1913.96,833.09L1916.73,827.61L1919.5,829.31L1922.27,825.32L1925.04,823.21L1927.81,820L1930.58,818.04L1933.35,819.5L1936.12,816.75L1938.89,812.21L1944.43,820.4L1947.2,817.38L1949.97,818.45L1952.74,808.96L1955.51,809.12L1958.28,807.05L1961.05,806.55L1963.82,809.91L1966.59,811.08L1969.36,799L1972.13,795.54L1974.9,787.66L1977.67,777.57L1980.44,785.95L1983.21,781.79L1985.98,775.74L1988.75,782.79L1991.52,779.03L1994.29,774.89L1997.06,777.62L1999.83,779.17L2002.6,775.58L2005.37,779.59L2008.13,772.03L2010.9,772.05L2013.67,774.69L2016.44,771.39L2019.21,776.77L2021.98,776.28L2024.75,778.7L2027.52,781.4L2030.29,780.66L2033.06,781.7L2035.83,785.94L2038.6,788.73L2041.37,787.14L2044.14,787.13L2046.91,783.24L2052.45,774.91L2055.22,769.87L2057.99,771.61L2060.76,774.72L2063.53,777.99L2066.3,778.93L2069.07,779.68L2071.84,779.4L2074.61,783.6L2077.38,776.14L2080.15,776.01L2082.92,772.07L2085.69,772.81L2088.46,776.09L2091.23,779.88L2094,776.92L2096.77,768.89L2099.54,766.64L2107.85,771.9L2110.62,770.14L2113.39,767.96L2116.16,758.86L2118.93,756.39L2121.7,758.17L2127.24,749.73L2130.01,749.09L2132.78,747.61L2135.55,749.21L2138.32,742.85L2141.09,738.42L2149.4,747.92L2152.17,748.06L2157.71,751.95L2160.48,753.97L2163.25,752.06L2166.02,753.59L2168.79,755.97L2171.56,752.47L2174.33,752.61L2177.1,750.94L2179.87,751.91L2182.63,749.17L2185.4,748.82L2188.17,750.28L2190.94,751.07L2193.71,758.16L2196.48,756.11L2199.25,755.26L2202.02,754.35L2204.79,756.38L2207.56,749.21L2210.33,748.17L2213.1,746.79L2215.87,740.67L2221.41,738.12L2224.18,742.53L2226.95,739.5L2229.72,739.26L2232.49,740.13L2235.26,743.83L2238.03,741.87L2240.8,737.01L2243.57,737.77L2246.34,742.65L2249.11,731.31L2251.88,729.05L2254.65,728.11L2257.42,725.89L2260.19,717.18L2262.96,713.4L2265.73,713.96L2268.5,705.88L2271.27,705.49L2274.04,698.4L2276.81,705.8L2279.58,709.65L2282.35,716.03L2285.12,718.73L2287.89,719.35L2290.66,718.92L2293.43,719.68L2296.2,713.73L2298.97,712.06L2301.74,711.74L2304.51,711.38L2307.28,713.36L2310.05,718.31L2312.82,717.74L2315.59,705.72L2318.36,705.18L2321.13,692.55L2323.9,685.46L2326.67,676.95L2329.44,679.73L2332.21,680.16L2334.98,684.45L2337.75,673.34L2340.52,671.47L2343.29,664.44L2346.06,665.13L2348.83,662.63L2351.6,656.67L2354.37,644.49L2357.13,635.81L2359.9,639.29L2362.67,631.45L2365.44,626.28L2368.21,633.98L2370.98,642.77L2373.75,629.7L2376.52,634.27L2379.29,621.7L2382.06,608.86L2384.83,608.53L2387.6,607.97L2390.37,597.84L2393.14,598.42L2395.91,595.47L2398.68,599.96L2401.45,580.9L2404.22,557.57L2406.99,559.94L2409.76,539.33L2412.53,525.65L2415.3,536.9L2418.07,530.16L2423.61,512.44L2426.38,517.12L2431.92,501.04L2434.69,488.46L2437.46,504.91L2440.23,491.87L2443,493.37L2445.77,475.7L2448.54,477.17L2451.31,469.43L2454.08,468.15L2456.85,460.21L2459.62,461.54L2462.39,468.82L2465.16,452.43L2467.93,465.18L2470.7,465.18L2473.47,460.39L2476.24,441.64L2479.01,439.99L2481.78,433.16L2484.55,419.82L2487.32,415.69L2490.09,413.77L2492.86,409.19L2495.63,409.56L2501.17,395.11L2503.94,399.56L2506.71,375.9L2509.48,375.18L2512.25,363.39L2515.02,358.15L2517.79,358.02L2520.56,350.08L2523.33,340.81L2526.1,344.86L2528.87,341.36L2531.63,339.37L2534.4,323.78L2537.17,313.07L2539.94,293.29L2542.71,284.38L2545.48,284.93L2548.25,264.3L2551.02,257.86L2553.79,249.46L2556.56,235.78L2559.33,226.1L2562.1,211.59L2564.87,206.67L2567.64,205.54L2570.41,201.36L2573.18,192.18L2575.95,197.68L2578.72,197.76L2581.49,197.05L2584.26,200.26L2587.03,188.67L2589.8,180.38L2592.57,181.22L2595.34,185.86L2598.11,195.22L2600.88,201.58L2603.65,199.19L2606.42,204.66L2609.19,205.76L2611.96,236.61L2614.73,244.81L2617.5,243.76L2620.27,256.97L2623.04,257.31L2625.81,253.9L2628.58,275.24L2631.35,269.17L2634.12,257.66L2636.89,256.29L2639.66,259.1L2642.43,264.62L2645.2,262.24L2647.97,267.45L2650.74,274.34L2653.51,269.57L2656.28,286.95L2659.05,280.56L2661.82,283.48L2664.59,278.16L2670.13,284.76L2672.9,280.62L2675.67,270.57L2678.44,272.71L2681.21,266.89L2683.98,271.35L2686.75,275.16L2689.52,273.91L2695.06,260.43L2697.83,249.65L2700.6,246.1L2703.37,257.11L2708.9,254.33L2711.67,245.51L2714.44,250.02L2717.21,232.71L2719.98,246.96L2722.75,246.01L2725.52,224.47L2728.29,231.44L2731.06,226.71L2733.83,235.01L2736.6,220.51L2739.37,223.82L2742.14,226.31L2744.91,227.72L2747.68,227.14L2750.45,231.77L2753.22,222.87L2755.99,201.06L2758.76,201.08L2761.53,199.61L2764.3,211.31L2767.07,217.6L2769.84,216.6L2772.61,192.44L2780.92,187.36L2783.69,189.89L2786.46,189.66L2789.23,178.83L2792,182.89" style="vector-effect: none; fill: none; stroke: rgb(0, 204, 150); stroke-opacity: 1; stroke-width: 2px; opacity: 1;"/></g><g class="points"/><g class="text"/></g><g class="trace scatter tracecb3043" style="stroke-miterlimit: 2; opacity: 0.2;"><g class="fills"/><g class="errorbars"/><g class="lines"><path class="js-line" d="M0,1048.07L2.77,1046.46L5.54,1029.51L8.31,1016.94L11.08,1028.61L13.85,1017.74L16.62,1033.62L19.39,1024.64L22.16,1030.72L24.93,1019.26L27.7,1011.27L30.47,1011.4L33.24,1013.02L36.01,1017.2L38.78,1019.3L41.55,1021.06L44.32,1019.22L49.86,993.74L52.63,995.31L55.4,996.85L58.17,995.75L60.94,996.81L63.71,1000.13L66.48,985.22L69.25,987.07L72.02,976.12L74.79,975.23L77.56,978.46L80.33,973.53L83.1,966.37L85.87,962.77L91.4,957.6L94.17,946.97L96.94,944.58L99.71,948.26L102.48,946.08L105.25,938.94L108.02,931.48L110.79,931.95L113.56,919.46L116.33,919.58L119.1,910.98L121.87,911.81L124.64,900.54L127.41,901.23L130.18,894.07L132.95,895.32L135.72,883.7L138.49,887.19L141.26,883.01L144.03,887.6L146.8,891.87L149.57,881.13L152.34,881.64L155.11,876.99L157.88,884.37L160.65,878.79L163.42,882.66L166.19,871.13L168.96,865.8L171.73,862.81L174.5,862.15L177.27,867.12L180.04,859.06L182.81,857.26L185.58,859.57L188.35,833.16L191.12,835.17L193.89,834.57L196.66,825.57L199.43,825.78L202.2,823.86L204.97,835.51L207.74,836.95L210.51,843.63L213.28,823.44L216.05,827.69L218.82,819.78L221.59,826.34L224.36,828.54L227.13,820.28L229.9,811.66L232.67,817.53L235.44,807.72L238.21,816.26L243.75,800.02L246.52,796.4L249.29,794.37L252.06,793.29L254.83,803.79L257.6,803.83L260.37,812.49L263.13,804.05L265.9,803.43L268.67,805.9L271.44,799.17L274.21,797.95L276.98,798.49L279.75,804.23L282.52,802.01L285.29,801.14L288.06,802.88L290.83,806.78L293.6,809.62L296.37,815.6L299.14,808.7L301.91,813.05L304.68,820.17L307.45,816.38L310.22,813.83L312.99,816.21L315.76,828.05L318.53,813.23L324.07,812.93L326.84,818.55L329.61,814.48L332.38,821.71L335.15,820.95L337.92,819.2L340.69,823.08L343.46,816.3L346.23,824.21L349,820.47L354.54,809.53L357.31,810.4L360.08,812.06L362.85,810.62L365.62,805.65L368.39,805.55L371.16,806.4L373.93,799.53L376.7,792.64L379.47,797.29L382.24,797.9L385.01,802.29L387.78,792.78L390.55,791.95L393.32,794.15L396.09,799.85L398.86,801.94L401.63,807.75L404.4,808.17L407.17,814.38L409.94,819.48L412.71,830.19L415.48,831.29L418.25,817.08L421.02,826.38L423.79,830.63L426.56,833.16L429.33,838.38L432.1,833.34L434.87,845.44L437.63,848.14L440.4,843.28L445.94,861.45L448.71,864.1L451.48,858.17L454.25,858.45L457.02,866.14L459.79,869.57L462.56,874.45L465.33,874.32L468.1,876.87L470.87,884.06L476.41,887.66L479.18,893.34L481.95,894.63L484.72,892.86L487.49,897.82L490.26,911.99L493.03,922.9L495.8,921.96L498.57,924.11L501.34,921.51L504.11,932.11L506.88,935.77L509.65,937.66L512.42,935.42L515.19,940.57L517.96,942.73L520.73,941.01L523.5,942.96L526.27,953.64L529.04,956.04L531.81,966.35L534.58,969.72L537.35,968.64L540.12,969.41L542.89,985.8L545.66,989.08L548.43,1001.33L551.2,999.23L553.97,1016.69L556.74,1027.53L559.51,1013.89L562.28,1017.99L565.05,1016.02L567.82,1015.12L570.59,1019.53L573.36,1022.46L576.13,1032.21L578.9,1031.88L581.67,1041.91L584.44,1048.07L587.21,1057.31L589.98,1053.13L592.75,1050.78L595.52,1042.25L598.29,1040.03L601.06,1039.66L606.6,1067.88L609.37,1075.95L612.13,1066.52L614.9,1077.87L617.67,1079.44L620.44,1075.61L623.21,1082.21L625.98,1090.89L628.75,1086.27L631.52,1094.97L634.29,1095.58L637.06,1109.9L642.6,1121.22L645.37,1127.6L648.14,1116.89L650.91,1128.41L653.68,1130.9L656.45,1125.48L659.22,1124.63L661.99,1121.45L664.76,1141.26L667.53,1135.66L670.3,1145.56L673.07,1146.35L675.84,1144.56L678.61,1151.12L684.15,1166.33L686.92,1157.53L689.69,1169.34L692.46,1164.01L695.23,1168.57L698,1162.72L700.77,1163.39L703.54,1172.94L706.31,1170.01L709.08,1168.89L711.85,1169.22L714.62,1165.73L717.39,1168.33L720.16,1166.2L722.93,1169.21L725.7,1170.57L728.47,1161.15L731.24,1156.78L734.01,1163.71L736.78,1160.95L739.55,1157.94L742.32,1156.85L745.09,1159.57L747.86,1159.82L753.4,1166.83L756.17,1163.42L761.71,1168.41L764.48,1166.57L767.25,1165.32L770.02,1165.84L772.79,1163.9L775.56,1159.62L778.33,1158.81L781.1,1156.45L783.87,1153.98L786.63,1145.79L789.4,1147.88L792.17,1146.93L794.94,1145.65L797.71,1146.15L800.48,1144.21L803.25,1150.59L806.02,1150.52L808.79,1148.11L817.1,1129.33L819.87,1137.29L822.64,1138.24L825.41,1140.8L828.18,1143.78L830.95,1139.66L833.72,1145.26L836.49,1141.6L839.26,1144.16L842.03,1135.52L844.8,1137.3L847.57,1140.68L850.34,1136.21L853.11,1134.57L858.65,1146.2L861.42,1145.79L864.19,1149.27L866.96,1150.95L872.5,1145.8L875.27,1149.4L878.04,1153.65L880.81,1155.68L883.58,1153.54L886.35,1158.95L889.12,1157.73L891.89,1160.65L894.66,1168.16L897.43,1166.74L900.2,1160.06L902.97,1162.79L905.74,1162.4L908.51,1163.87L914.05,1172.47L916.82,1169.37L919.59,1170.1L922.36,1172.67L927.9,1160.45L930.67,1160.26L933.44,1162.86L936.21,1166.63L941.75,1162.98L944.52,1169.26L947.29,1165.55L950.06,1167.23L952.83,1166.09L955.6,1169.58L961.13,1169.79L963.9,1167.74L966.67,1168.13L969.44,1173.59L974.98,1171.12L977.75,1172.66L980.52,1166.6L983.29,1165.63L988.83,1173.1L991.6,1173.48L994.37,1180.06L997.14,1177.05L999.91,1183.14L1002.68,1185.25L1005.45,1187.08L1008.22,1185.65L1010.99,1188.88L1013.76,1185.84L1016.53,1188.63L1019.3,1186.46L1022.07,1182.74L1024.84,1185.38L1027.61,1183.5L1030.38,1184.61L1033.15,1188.32L1035.92,1186.5L1038.69,1183.47L1041.46,1191.12L1044.23,1188.52L1047,1189.21L1049.77,1186.25L1052.54,1188.66L1055.31,1189.82L1058.08,1189.58L1060.85,1195.75L1063.62,1192.16L1066.39,1188.87L1069.16,1196.56L1071.93,1187.85L1074.7,1203.48L1077.47,1208.79L1080.24,1205.35L1085.78,1207.11L1088.55,1200.53L1091.32,1192.67L1094.09,1193.37L1096.86,1190.39L1099.63,1193.1L1102.4,1191.69L1105.17,1195.3L1107.94,1196.98L1110.71,1195.2L1113.48,1193.66L1116.25,1193.48L1119.02,1193.25L1121.79,1194.81L1124.56,1191.52L1127.33,1190.22L1130.1,1186.54L1132.87,1185.35L1135.63,1181.57L1138.4,1181.47L1141.17,1181.48L1143.94,1185.39L1146.71,1177.32L1149.48,1182.34L1152.25,1178.45L1155.02,1179.68L1157.79,1177.94L1160.56,1174.26L1163.33,1174.96L1166.1,1168.97L1168.87,1168.93L1171.64,1166.43L1174.41,1170.02L1177.18,1171.53L1179.95,1172.02L1182.72,1166.97L1185.49,1164.93L1188.26,1164.23L1191.03,1166.88L1193.8,1161.35L1196.57,1163.09L1199.34,1160.03L1202.11,1159.4L1204.88,1153.65L1207.65,1154.24L1210.42,1153.81L1213.19,1152.87L1215.96,1142.4L1218.73,1151.48L1221.5,1153.15L1224.27,1145.64L1227.04,1145.88L1229.81,1141.2L1232.58,1141.24L1235.35,1139.7L1238.12,1141.42L1240.89,1141.69L1243.66,1126.66L1249.2,1116.96L1251.97,1118.25L1254.74,1119.81L1257.51,1120.38L1260.28,1108.64L1263.05,1108.81L1265.82,1108.23L1268.59,1110.7L1271.36,1112.77L1274.13,1102.02L1279.67,1092.71L1282.44,1090.45L1285.21,1084.94L1287.98,1083.91L1290.75,1080.1L1293.52,1081.71L1296.29,1071.01L1299.06,1072.9L1304.6,1072.92L1307.37,1063.63L1310.13,1069.69L1312.9,1068.82L1318.44,1075.81L1321.21,1066.76L1323.98,1071.27L1326.75,1064.83L1329.52,1059.94L1332.29,1056.94L1335.06,1053.57L1337.83,1048.62L1340.6,1046.78L1343.37,1037.97L1346.14,1037.26L1348.91,1035.59L1354.45,1031.54L1357.22,1031.46L1359.99,1029.99L1362.76,1035.01L1365.53,1037.88L1368.3,1030.08L1373.84,1026.62L1376.61,1033.04L1382.15,1022.27L1384.92,1026L1387.69,1030.09L1390.46,1024.82L1393.23,1019.27L1396,1019.68L1398.77,1015.47L1401.54,1009.47L1404.31,999.59L1407.08,993.48L1409.85,1004.08L1412.62,1010.96L1415.39,1024.15L1418.16,1022.42L1420.93,1036.52L1423.7,1019.08L1426.47,1012.55L1429.24,1013.83L1434.78,1017.14L1437.55,1017.68L1443.09,1011.46L1445.86,1010.56L1448.63,1016.81L1451.4,1015.24L1454.17,1019.12L1456.94,1015.33L1459.71,1018.92L1462.48,1015.81L1465.25,1017.96L1468.02,1021.46L1473.56,1018.58L1476.33,1014.32L1481.87,1010.52L1484.63,1010.65L1487.4,1008.24L1490.17,1008.18L1495.71,1005.71L1498.48,1007.78L1504.02,1004.03L1506.79,1001.88L1512.33,1006.13L1515.1,1009.85L1517.87,998.06L1520.64,991.95L1523.41,985.53L1526.18,989.46L1528.95,984.74L1531.72,982.33L1534.49,976.04L1537.26,975.61L1540.03,968.07L1542.8,967.3L1548.34,957.81L1551.11,968.12L1553.88,959.87L1556.65,959.38L1562.19,964.98L1564.96,960.68L1567.73,954.59L1570.5,959.55L1573.27,961.03L1576.04,961.23L1578.81,961.31L1581.58,960.18L1584.35,961.67L1587.12,967.11L1589.89,967.44L1592.66,965.35L1598.2,963.55L1600.97,963.98L1603.74,969.38L1606.51,971.88L1609.28,963.49L1612.05,963.33L1614.82,958.7L1617.59,950.44L1620.36,956.52L1623.13,946.45L1628.67,951.82L1631.44,957.19L1634.21,951.76L1636.98,955.79L1639.75,957.1L1642.52,948.97L1648.06,946.32L1650.83,951.85L1656.37,938.24L1659.13,939.26L1661.9,926.97L1664.67,938.47L1667.44,945.89L1670.21,932.98L1672.98,934.75L1675.75,933.57L1678.52,931.32L1681.29,925.75L1684.06,919.9L1686.83,910.45L1689.6,914.17L1692.37,910.58L1695.14,912.81L1697.91,906.63L1700.68,906.22L1703.45,901.5L1706.22,913.19L1708.99,905.8L1711.76,905.53L1714.53,901.44L1717.3,907.73L1720.07,903.97L1722.84,905.33L1725.61,905.26L1728.38,909.02L1731.15,916.16L1733.92,915.17L1736.69,909.55L1739.46,907.93L1742.23,918.32L1745,911.99L1747.77,915.22L1750.54,904.15L1753.31,902.54L1756.08,903.81L1758.85,902.37L1761.62,902.33L1764.39,896.49L1767.16,897.73L1769.93,898.08L1772.7,898.16L1775.47,894.29L1778.24,891.29L1781.01,890.73L1786.55,899.46L1789.32,901.69L1792.09,898.85L1794.86,897.34L1797.63,896.14L1800.4,887.15L1805.94,883.44L1808.71,880.08L1811.48,870.62L1814.25,871.06L1817.02,874.44L1819.79,872.25L1822.56,872.85L1825.33,867.64L1828.1,859.38L1830.87,860.96L1833.63,850.66L1836.4,848.04L1839.17,842.27L1841.94,848.66L1844.71,851.89L1847.48,856.81L1850.25,835.9L1853.02,842.46L1858.56,834.93L1861.33,837.64L1864.1,832.21L1866.87,829.14L1869.64,829.33L1872.41,836.67L1875.18,842.76L1877.95,842.24L1880.72,847.74L1883.49,842.94L1886.26,844.66L1889.03,840.31L1897.34,846.34L1900.11,849.39L1902.88,842.59L1905.65,842.62L1908.42,840.61L1911.19,835.31L1913.96,838.73L1916.73,817.97L1919.5,824.35L1922.27,828.78L1927.81,821.49L1930.58,821.65L1933.35,821.55L1936.12,818.38L1938.89,813.72L1941.66,817.42L1944.43,819.26L1947.2,817.2L1949.97,819.21L1952.74,801.79L1955.51,805.51L1958.28,806.9L1961.05,807.69L1963.82,816.77L1966.59,819.6L1969.36,800.54L1972.13,796.84L1974.9,785.27L1977.67,776.32L1980.44,783.63L1983.21,779.89L1985.98,772.09L1988.75,781.91L1991.52,777.1L1994.29,774.16L1997.06,778.55L1999.83,779.32L2002.6,771.14L2008.13,772.15L2010.9,771.52L2013.67,773.13L2016.44,773.1L2019.21,779.84L2021.98,774.41L2027.52,779.56L2030.29,780.99L2033.06,782.42L2035.83,787.43L2038.6,787.85L2041.37,785.87L2044.14,783.86L2046.91,775.99L2049.68,773.26L2052.45,779.26L2055.22,769.93L2057.99,772.18L2060.76,775.23L2063.53,775.35L2066.3,776.24L2069.07,780.36L2071.84,780.23L2074.61,785.34L2077.38,782.42L2080.15,780.97L2082.92,779.88L2085.69,779.6L2088.46,779.46L2091.23,783.43L2094,782.99L2096.77,775.54L2099.54,771.37L2102.31,775.01L2105.08,776.36L2107.85,780.62L2113.39,772.88L2116.16,757.73L2118.93,755.89L2121.7,765.47L2127.24,753.16L2130.01,753.12L2132.78,755.18L2135.55,751.94L2138.32,739.71L2141.09,736.98L2143.86,737.59L2146.63,739.91L2149.4,742.14L2152.17,742.8L2154.94,744.42L2157.71,747.02L2160.48,749.9L2163.25,746.77L2166.02,752.4L2168.79,749.85L2171.56,749.93L2174.33,751.7L2177.1,750.09L2179.87,746.66L2182.63,744.2L2185.4,744.14L2190.94,752.87L2193.71,762.62L2196.48,753.14L2199.25,750.19L2204.79,754.47L2207.56,745.78L2210.33,750.75L2213.1,745.43L2215.87,744.14L2218.64,741.39L2221.41,738.4L2224.18,743.23L2226.95,740.73L2229.72,741.72L2232.49,743.24L2235.26,741.61L2238.03,746.44L2240.8,743.93L2243.57,740.72L2246.34,746.25L2249.11,726.44L2251.88,719.58L2254.65,720.83L2257.42,720.87L2260.19,721.51L2262.96,717.42L2265.73,713.35L2268.5,706.85L2271.27,707.59L2274.04,694.54L2276.81,701.7L2279.58,706.14L2282.35,717.56L2285.12,720.87L2287.89,722.4L2290.66,726.82L2293.43,729.66L2296.2,718.52L2298.97,720.35L2301.74,716.35L2304.51,720.54L2307.28,722.01L2310.05,729.19L2312.82,720.65L2315.59,713.12L2318.36,710.8L2321.13,695.47L2323.9,673.85L2326.67,680.56L2329.44,684.6L2332.21,675.33L2334.98,683.57L2337.75,674L2340.52,673.01L2343.29,662.5L2346.06,666.32L2348.83,663.22L2351.6,664.58L2357.13,627.42L2359.9,630.91L2362.67,631.68L2365.44,635.45L2368.21,639.42L2370.98,652.92L2373.75,634.28L2376.52,634.68L2379.29,614.96L2382.06,603.63L2384.83,597.6L2387.6,599.81L2390.37,584.22L2393.14,582.89L2395.91,589.75L2398.68,592.2L2401.45,570.25L2404.22,556.55L2406.99,550.42L2409.76,547.17L2412.53,527.94L2415.3,534.14L2418.07,530.4L2420.84,510.55L2423.61,511.9L2426.38,505.68L2429.15,513.37L2431.92,496.5L2434.69,477.94L2437.46,501.32L2443,490.7L2445.77,479.8L2448.54,480.32L2451.31,470.89L2454.08,467.25L2456.85,466.04L2459.62,463.64L2462.39,472.83L2465.16,447.17L2467.93,457.32L2470.7,459.19L2473.47,469.25L2476.24,438.24L2479.01,438.11L2481.78,429.14L2484.55,423.14L2487.32,417.52L2490.09,416.55L2492.86,413.44L2495.63,405.44L2498.4,406.81L2501.17,395.3L2503.94,395.98L2506.71,381.15L2509.48,375.75L2512.25,356.26L2517.79,351.5L2520.56,340.73L2523.33,342.06L2526.1,365.16L2528.87,350.94L2531.63,343.97L2537.17,312.11L2539.94,287.37L2542.71,281.95L2545.48,290.04L2548.25,259.83L2551.02,260.12L2553.79,242.84L2556.56,235.39L2559.33,214.32L2562.1,208.55L2564.87,200.66L2567.64,210.88L2570.41,200.32L2573.18,194.99L2575.95,189.08L2578.72,200.94L2581.49,202.58L2584.26,202.22L2587.03,204.36L2589.8,186.2L2592.57,177.58L2595.34,183.11L2598.11,193.4L2600.88,198.07L2603.65,186.76L2606.42,202.73L2609.19,199.33L2611.96,237.92L2614.73,236.71L2617.5,236.55L2620.27,262.88L2623.04,268.64L2625.81,255.35L2628.58,280.38L2631.35,279.26L2634.12,257.43L2636.89,252.33L2639.66,249.8L2645.2,270.8L2647.97,277.19L2650.74,282.63L2653.51,276.68L2656.28,277.73L2659.05,263.79L2661.82,278.78L2664.59,266.36L2667.36,275.34L2670.13,278.89L2672.9,275.77L2675.67,256.6L2678.44,279.85L2681.21,267.36L2683.98,272.8L2686.75,276.26L2689.52,278.41L2692.29,252.75L2695.06,256.57L2697.83,231.93L2700.6,229.87L2703.37,251.36L2711.67,210.97L2714.44,224.91L2717.21,219.48L2719.98,229.17L2722.75,232.55L2725.52,217.98L2728.29,232.36L2731.06,207.11L2733.83,230.85L2736.6,222.98L2739.37,216.83L2742.14,223.85L2744.91,222.52L2747.68,223.51L2750.45,235.24L2753.22,226L2755.99,202.06L2758.76,202.12L2761.53,196.74L2764.3,214.9L2767.07,214.7L2769.84,204.5L2772.61,193.61L2775.38,203.3L2778.15,185.92L2780.92,181.87L2783.69,185.43L2786.46,184.91L2789.23,161.67L2792,171.23" style="vector-effect: none; fill: none; stroke: rgb(171, 99, 250); stroke-opacity: 1; stroke-width: 2px; opacity: 1;"/></g><g class="points"/><g class="text"/></g><g class="trace scatter tracec6aea9" style="stroke-miterlimit: 2; opacity: 0.2;"><g class="fills"/><g class="errorbars"/><g class="lines"><path class="js-line" d="M0,1036.07L2.77,1033.18L5.54,1026.37L8.31,1029.9L11.08,1024.24L13.85,1025.37L16.62,1029.77L19.39,1027.67L22.16,1031.02L27.7,1013.93L30.47,1012.46L33.24,1012.54L36.01,1005.23L38.78,1003.2L41.55,1000.05L44.32,1003.6L47.09,993.03L49.86,998.54L52.63,1002.01L55.4,1000.93L58.17,995.11L60.94,995.23L63.71,990.01L66.48,979.5L69.25,986.3L72.02,975.38L74.79,971.08L77.56,967.24L80.33,967.31L83.1,966.6L85.87,960.55L88.63,956.89L91.4,954.96L94.17,952.52L96.94,941.34L99.71,940.89L102.48,945.48L105.25,935.14L108.02,934.51L110.79,935.16L113.56,931.58L116.33,918.38L119.1,912.75L121.87,913.92L124.64,916.37L127.41,913.13L130.18,912.19L132.95,907.38L135.72,911.18L138.49,897.03L141.26,902.17L144.03,903.26L146.8,893.37L149.57,894.04L152.34,896.39L157.88,882.65L160.65,889.62L168.96,868.83L171.73,864L174.5,850.75L177.27,853.58L180.04,853.25L182.81,854.57L185.58,862.42L188.35,846.77L193.89,850.68L196.66,845.5L199.43,840.65L202.2,841.12L204.97,843.16L207.74,835.36L213.28,838.86L216.05,833.82L218.82,831.58L221.59,832.85L224.36,821.61L227.13,815.88L229.9,817.01L232.67,822.56L235.44,812.86L238.21,818.92L240.98,814.95L243.75,815.88L246.52,809.01L249.29,806.39L252.06,806.82L254.83,810.79L257.6,810.75L260.37,815L263.13,810.86L265.9,813.46L268.67,809.43L271.44,806.94L274.21,806.43L276.98,807.76L279.75,804.73L282.52,806.55L285.29,805.88L288.06,808.25L290.83,805.73L293.6,805.2L296.37,800.69L299.14,801.23L301.91,803.98L304.68,808.56L307.45,814.7L310.22,812.73L312.99,812.74L315.76,823.16L318.53,817.42L321.3,817.56L326.84,825.54L329.61,833.46L332.38,830.51L335.15,831.04L337.92,830.84L340.69,826.87L343.46,824.66L346.23,823.84L349,824.47L351.77,820.29L354.54,820.59L357.31,819.57L360.08,823.28L362.85,820.32L365.62,816.35L368.39,815.44L371.16,811.82L373.93,813.07L376.7,812.6L379.47,813.27L382.24,805.56L385.01,804.06L387.78,804.23L390.55,805.2L393.32,803.64L396.09,812.26L398.86,813.95L401.63,812.94L404.4,817.21L407.17,824.01L409.94,824.94L412.71,824.9L415.48,824.9L418.25,816.88L421.02,816L423.79,836.38L426.56,838L429.33,834.09L432.1,829.93L434.87,841.95L437.63,842.82L440.4,846.41L443.17,844.8L445.94,860.52L448.71,864.03L451.48,863.33L457.02,867.35L459.79,874.66L462.56,873.82L465.33,884.3L468.1,887.09L470.87,891.1L473.64,897.06L476.41,895.93L479.18,891.77L481.95,896.18L484.72,899.7L487.49,908.43L493.03,920.54L495.8,913.89L498.57,924.51L501.34,925.36L504.11,930.29L506.88,941.31L509.65,941.55L512.42,937.5L515.19,948.28L517.96,941.2L520.73,943.47L523.5,944.07L526.27,960.81L529.04,950L531.81,962.7L534.58,957.2L537.35,974.04L540.12,977.7L542.89,975.03L545.66,976.1L548.43,989.29L551.2,989.43L553.97,1000.18L556.74,1002.55L559.51,995.77L562.28,984.78L565.05,983.62L567.82,995.51L570.59,999.21L573.36,1008.29L576.13,1002.77L578.9,1011.22L584.44,1024.91L587.21,1033.01L589.98,1039.91L592.75,1051.82L595.52,1040.1L598.29,1047.87L601.06,1057.55L603.83,1060.42L606.6,1063.99L609.37,1080.5L612.13,1071.8L614.9,1079.21L617.67,1083.12L620.44,1082.4L623.21,1092.36L625.98,1084.89L631.52,1090.62L634.29,1093.8L637.06,1096.03L639.83,1102.37L642.6,1113.12L645.37,1114.68L648.14,1121.22L650.91,1124.86L653.68,1123.74L656.45,1123.46L659.22,1118.01L661.99,1108.51L664.76,1121.88L667.53,1128.42L670.3,1136.84L673.07,1132.32L675.84,1127.79L678.61,1144.39L684.15,1159.44L686.92,1159.1L689.69,1155.26L692.46,1158.63L695.23,1160.14L698,1159.06L700.77,1165.78L703.54,1161.02L706.31,1163.2L709.08,1164.13L714.62,1163.05L717.39,1164.48L720.16,1162.21L722.93,1165.54L725.7,1166.86L728.47,1165.76L731.24,1164.41L734.01,1161.88L736.78,1169.33L739.55,1171.38L742.32,1164.2L745.09,1166.22L750.63,1157.42L753.4,1162.32L756.17,1156.85L758.94,1160.43L764.48,1152.9L767.25,1148.65L770.02,1146.77L772.79,1146.47L775.56,1150.7L778.33,1148.01L781.1,1149.45L783.87,1146.55L786.63,1152.32L789.4,1151.56L792.17,1148.15L794.94,1139.19L797.71,1142.78L800.48,1141.73L806.02,1141.27L808.79,1136.69L811.56,1137.98L814.33,1134.14L817.1,1136.69L819.87,1136.21L822.64,1140.45L825.41,1140.9L828.18,1149.53L830.95,1139.51L833.72,1140.68L836.49,1140.09L839.26,1141.78L842.03,1138.56L844.8,1141.27L847.57,1140.93L850.34,1137.95L853.11,1137.67L855.88,1139.02L858.65,1136.58L861.42,1136.27L864.19,1141.18L866.96,1138.79L869.73,1143.37L875.27,1144.32L878.04,1140.5L880.81,1149.64L883.58,1151.96L886.35,1154.97L889.12,1154.25L891.89,1153.94L894.66,1156.79L897.43,1158.14L900.2,1152.73L902.97,1153.27L905.74,1160.93L911.28,1164.17L914.05,1168.75L916.82,1162.1L919.59,1160.51L922.36,1159.94L925.13,1154.7L927.9,1150.4L930.67,1154.53L933.44,1162.06L936.21,1173.14L938.98,1165.07L941.75,1172.27L944.52,1167.22L947.29,1166.81L952.83,1170.44L955.6,1169.73L958.37,1172.69L961.13,1172.71L963.9,1169.06L966.67,1167.41L969.44,1167.7L972.21,1182.2L974.98,1183.45L977.75,1176.59L980.52,1173.08L983.29,1172.15L986.06,1170.74L988.83,1171.52L997.14,1181.97L999.91,1181.9L1002.68,1181.98L1005.45,1184.1L1008.22,1181.79L1010.99,1187.08L1013.76,1189.51L1016.53,1189.88L1019.3,1189.98L1022.07,1186.95L1024.84,1188.37L1027.61,1187.15L1030.38,1185.81L1033.15,1188.29L1035.92,1191.48L1038.69,1192.01L1041.46,1195.13L1044.23,1195.79L1047,1191.81L1049.77,1191.86L1052.54,1193.81L1055.31,1189.49L1060.85,1194L1063.62,1190L1066.39,1187.95L1069.16,1192.75L1074.7,1199.14L1077.47,1204.95L1080.24,1206.35L1083.01,1205.34L1085.78,1205.23L1088.55,1202.47L1094.09,1195.97L1096.86,1192.62L1099.63,1196.09L1102.4,1198.33L1105.17,1200.61L1107.94,1192.79L1110.71,1196.93L1113.48,1194.67L1116.25,1191.93L1119.02,1194.09L1121.79,1193.18L1124.56,1187.8L1127.33,1189.91L1130.1,1189.58L1132.87,1182.4L1135.63,1184.32L1138.4,1179.27L1141.17,1179.39L1143.94,1183.77L1146.71,1182.86L1149.48,1183.93L1152.25,1181.36L1155.02,1172.11L1157.79,1171.53L1160.56,1171.47L1163.33,1173.72L1166.1,1169.96L1168.87,1170.2L1171.64,1171.5L1174.41,1170.59L1177.18,1175.83L1179.95,1171.17L1182.72,1164.18L1185.49,1162.77L1188.26,1164.01L1191.03,1166.29L1193.8,1167.21L1196.57,1164.54L1199.34,1157.61L1202.11,1156.64L1204.88,1155.16L1207.65,1151.04L1210.42,1150.97L1213.19,1151.91L1215.96,1156.02L1218.73,1152.66L1221.5,1145.46L1224.27,1145.97L1227.04,1147.26L1229.81,1146.39L1232.58,1144.75L1235.35,1144.59L1238.12,1142.48L1240.89,1136.34L1243.66,1129.65L1246.43,1120.73L1249.2,1116.56L1251.97,1118.47L1254.74,1120.17L1257.51,1120.31L1260.28,1114.54L1263.05,1113.69L1265.82,1110.48L1268.59,1114.82L1274.13,1095.19L1276.9,1088.55L1279.67,1090.75L1282.44,1091.96L1285.21,1086.15L1287.98,1083L1290.75,1085.15L1293.52,1081.63L1296.29,1073.41L1299.06,1074.14L1301.83,1077.63L1304.6,1075.41L1307.37,1073.52L1310.13,1074.22L1312.9,1070.19L1315.67,1073.86L1318.44,1067.68L1321.21,1069.18L1323.98,1068.98L1326.75,1063.41L1329.52,1062.49L1332.29,1052.9L1337.83,1051.15L1340.6,1051.26L1343.37,1037.41L1346.14,1038.02L1351.68,1041.36L1354.45,1035.64L1357.22,1033.6L1359.99,1036.81L1362.76,1036.33L1365.53,1030.49L1368.3,1029.93L1371.07,1030.5L1373.84,1029.39L1376.61,1032.42L1379.38,1033.94L1382.15,1027.37L1384.92,1027.8L1387.69,1021.54L1390.46,1021.15L1393.23,1019.78L1396,1020.78L1398.77,1016.83L1401.54,1008.05L1404.31,1009.91L1407.08,1009.24L1409.85,1010.45L1412.62,1009.7L1415.39,1011.16L1418.16,1018.26L1420.93,1033.55L1423.7,1014.86L1426.47,1014.68L1429.24,1017.27L1432.01,1018.03L1434.78,1020.4L1437.55,1019.61L1440.32,1018.07L1443.09,1012.62L1445.86,1016.91L1448.63,1014.34L1451.4,1018.02L1454.17,1018.25L1456.94,1014.76L1459.71,1017.56L1462.48,1016.06L1465.25,1016.17L1470.79,1007.21L1473.56,1005.64L1481.87,1009.68L1484.63,1005.18L1487.4,1008.94L1490.17,1006.45L1492.94,1007.13L1495.71,1000.57L1498.48,1005.25L1501.25,1005.24L1504.02,1007.69L1506.79,1006.12L1509.56,1009.72L1512.33,999.47L1515.1,994.73L1517.87,994.32L1520.64,988.23L1523.41,986.73L1528.95,992.86L1531.72,984.99L1534.49,983.86L1537.26,981.25L1540.03,976.51L1542.8,961.26L1545.57,958.14L1548.34,957.08L1551.11,962.55L1553.88,960.61L1556.65,956.96L1559.42,961.77L1562.19,961.11L1564.96,965.8L1567.73,949.58L1570.5,954L1573.27,961.42L1576.04,957.69L1578.81,962.76L1581.58,960.47L1584.35,959.29L1587.12,963.41L1589.89,964.22L1592.66,967.11L1595.43,964.61L1598.2,965.17L1600.97,966.8L1603.74,972.26L1606.51,971.63L1609.28,969.99L1612.05,960.82L1614.82,954.42L1617.59,949.32L1620.36,954.4L1625.9,948.75L1628.67,948.4L1631.44,953.89L1634.21,953.12L1636.98,956.74L1639.75,955.29L1642.52,957.29L1645.29,949.84L1650.83,945.94L1653.6,941.58L1659.13,942.99L1661.9,939.81L1664.67,943.7L1667.44,940.38L1670.21,932.73L1672.98,936.37L1675.75,924.32L1678.52,922.31L1681.29,917.99L1684.06,920.36L1686.83,910.16L1689.6,908.25L1692.37,907.79L1695.14,902.93L1697.91,900.15L1700.68,903.8L1706.22,912.63L1708.99,908.01L1714.53,903.95L1717.3,908.99L1720.07,906.24L1722.84,910.01L1725.61,910.09L1728.38,912.7L1731.15,911.18L1733.92,916.26L1736.69,913.17L1739.46,915.89L1742.23,910.95L1745,907.82L1750.54,907.82L1753.31,909.56L1756.08,910.99L1758.85,898.3L1761.62,899.81L1764.39,898.57L1767.16,895.76L1769.93,897.5L1772.7,891.91L1775.47,892.6L1778.24,887.65L1781.01,889.85L1783.78,894.43L1786.55,896.66L1789.32,897.12L1792.09,898.46L1794.86,897.58L1797.63,897.91L1800.4,888.8L1803.17,886.51L1805.94,878.05L1808.71,876.13L1814.25,862.66L1817.02,868.73L1819.79,862.72L1822.56,864.91L1825.33,860.37L1828.1,854.13L1830.87,855.19L1833.63,852.95L1839.17,846.89L1841.94,848.67L1844.71,839.41L1847.48,843.1L1850.25,844.32L1853.02,846.59L1855.79,841.79L1858.56,840.18L1861.33,837.05L1864.1,840.86L1866.87,844.27L1869.64,842.88L1872.41,844.2L1875.18,846.64L1877.95,840.31L1880.72,844.68L1883.49,841.69L1886.26,843.95L1889.03,845.44L1891.8,844.3L1894.57,846.08L1897.34,835.86L1900.11,837.33L1902.88,840.46L1908.42,833.81L1911.19,834.92L1913.96,830.79L1916.73,833.25L1919.5,832.54L1922.27,824.17L1925.04,822.73L1927.81,819.88L1930.58,816.81L1933.35,819.09L1936.12,816.55L1938.89,812.08L1944.43,821.65L1947.2,818.14L1949.97,818.71L1952.74,813.34L1955.51,811.65L1958.28,807.8L1961.05,806.63L1963.82,806.99L1966.59,807.28L1969.36,798.87L1972.13,795.53L1974.9,789.57L1977.67,778.9L1980.44,787.84L1985.98,778.32L1988.75,783.93L1991.52,780.71L1994.29,775.95L1999.83,779.77L2002.6,778.57L2005.37,784.32L2008.13,772.65L2010.9,773.01L2013.67,776.18L2016.44,771.18L2019.21,775.85L2024.75,780L2027.52,783.04L2030.29,781.16L2033.06,782L2038.6,789.86L2041.37,788.48L2044.14,789.51L2046.91,787.67L2049.68,783.48L2052.45,773.32L2055.22,770.52L2057.99,772.01L2060.76,775.14L2063.53,780.05L2066.3,781.01L2069.07,780.01L2071.84,779.64L2074.61,783.37L2077.38,773.54L2080.15,774.1L2082.92,768.66L2085.69,769.94L2091.23,778.71L2094,774.44L2096.77,766.1L2099.54,764.86L2105.08,766.9L2107.85,768.02L2110.62,767.66L2113.39,766.08L2116.16,760.14L2118.93,757.35L2124.47,751.93L2127.24,748.64L2130.01,747.69L2132.78,744.34L2135.55,748.48L2138.32,745.19L2141.09,739.88L2143.86,744.88L2146.63,747.25L2149.4,751.63L2152.17,751.49L2154.94,754.15L2160.48,756.78L2163.25,755.51L2166.02,754.91L2168.79,759.84L2171.56,754.49L2174.33,753.78L2177.1,752.09L2179.87,755.34L2182.63,752.45L2185.4,751.95L2188.17,752.04L2190.94,750.83L2193.71,756.53L2196.48,758.35L2199.25,758.58L2202.02,756.13L2204.79,758.06L2207.56,751.69L2210.33,747.52L2213.1,748.2L2215.87,739.57L2218.64,739.34L2221.41,738.69L2224.18,742.88L2226.95,739.56L2229.72,738.69L2232.49,739.22L2235.26,745.69L2240.8,734.1L2243.57,736.94L2246.34,741.47L2249.11,734.55L2251.88,734.67L2254.65,732.6L2257.42,729.21L2260.19,715.64L2262.96,712.02L2265.73,715L2268.5,706.1L2271.27,705.12L2274.04,701.14L2276.81,708.66L2285.12,718.33L2287.89,718.47L2290.66,715.51L2293.43,715.16L2298.97,708.43L2301.74,710.06L2304.51,707.3L2307.28,709.55L2312.82,716.93L2315.59,702.57L2318.36,702.97L2321.13,691.75L2323.9,692.21L2326.67,675.8L2329.44,677.93L2332.21,683.41L2334.98,685.64L2337.75,673.74L2340.52,671.42L2343.29,666.21L2346.06,665.26L2348.83,663.08L2354.37,643.69L2357.13,640.93L2359.9,644.4L2362.67,632.1L2365.44,622.26L2368.21,631.91L2370.98,638.22L2373.75,628.08L2376.52,634.82L2379.29,625.98L2382.06,612.37L2384.83,614.98L2387.6,612.99L2390.37,605.68L2393.14,607.23L2395.91,599.24L2398.68,604.78L2401.45,587.22L2404.22,558.92L2406.99,565.69L2409.76,536.07L2412.53,525.29L2415.3,539.16L2418.07,530.87L2420.84,525.98L2423.61,513.57L2426.38,523.89L2429.15,507.08L2431.92,504.25L2434.69,494.77L2437.46,507.63L2440.23,490.75L2443,495.62L2445.77,474.43L2448.54,476.4L2451.31,469.55L2454.08,469.5L2456.85,458.04L2459.62,461.32L2462.39,467.6L2465.16,456.05L2467.93,470.14L2470.7,469.18L2473.47,456.63L2476.24,444.31L2479.01,441.87L2481.78,436.16L2484.55,418.99L2490.09,413.24L2492.86,407.89L2495.63,412.61L2498.4,401.16L2501.17,395.94L2503.94,402.35L2506.71,374.09L2509.48,375.82L2515.02,361.43L2517.79,362.36L2520.56,355.88L2523.33,341.12L2526.1,335.14L2528.87,337.3L2531.63,337.93L2534.4,322.35L2537.17,314.55L2539.94,297.35L2542.71,286.64L2545.48,283.26L2548.25,267.63L2551.02,257.7L2553.79,253.91L2556.56,237.01L2559.33,233.24L2562.1,214.2L2564.87,210.84L2567.64,203.79L2570.41,202.96L2573.18,191.77L2575.95,203.19L2578.72,197.15L2581.49,195.22L2584.26,200.29L2587.03,181.5L2589.8,178.4L2595.34,188.35L2598.11,197.22L2600.88,204.44L2603.65,206.68L2606.42,206.71L2609.19,210.14L2611.96,236.96L2614.73,250.03L2617.5,248.53L2620.27,254.9L2623.04,252.39L2625.81,254.16L2628.58,273.55L2631.35,264.9L2634.12,258.79L2636.89,259.35L2639.66,264.93L2642.43,268.22L2645.2,258.77L2647.97,263.35L2650.74,271.01L2653.51,266.86L2656.28,292.73L2659.05,290.23L2661.82,286.92L2664.59,285.27L2667.36,285.65L2670.13,288.81L2675.67,278.8L2678.44,269.99L2681.21,267.65L2683.98,271.6L2686.75,275.59L2689.52,272.55L2692.29,274.18L2695.06,263.45L2700.6,255.52L2703.37,261.1L2708.9,271L2711.67,264.26L2714.44,263.97L2717.21,240.59L2719.98,257.17L2722.75,254.01L2725.52,228.88L2728.29,231.99L2731.06,237.87L2733.83,238.2L2736.6,220.25L2739.37,228.48L2742.14,228.62L2744.91,231.45L2747.68,230.06L2750.45,230.99L2753.22,222.27L2755.99,201.58L2761.53,202.15L2764.3,210.47L2767.07,220.15L2769.84,223.92L2772.61,192.89L2775.38,185L2778.15,191.45L2780.92,191.28L2783.69,193.26L2786.46,193.18L2789.23,188.76L2792,189.99" style="vector-effect: none; fill: none; stroke: rgb(255, 161, 90); stroke-opacity: 1; stroke-width: 2px; opacity: 1;"/></g><g class="points"/><g class="text"/></g><g class="trace scatter tracea4c880" style="stroke-miterlimit: 2; opacity: 0.2;"><g class="fills"/><g class="errorbars"/><g class="lines"><path class="js-line" d="M0,860.72L2.77,833.87L5.54,851.18L8.31,858.28L11.08,847.35L13.85,859.56L16.62,879.74L19.39,878.89L22.16,870.87L24.93,837.09L27.7,860.92L30.47,820.56L33.24,791.91L36.01,819.84L38.78,814.65L41.55,885.84L44.32,804.59L49.86,889.33L52.63,898.82L55.4,938.68L58.17,913.91L60.94,905.71L63.71,912.75L66.48,884.36L69.25,914.17L72.02,899.87L74.79,889.62L77.56,891.4L80.33,872.07L83.1,863.41L85.87,820.96L88.63,827.97L91.4,810.54L94.17,808.98L96.94,798.07L99.71,813.49L102.48,848.3L105.25,803.11L108.02,800.34L110.79,791.61L113.56,778.42L116.33,803.03L119.1,769.04L121.87,748.23L124.64,870.21L127.41,871.95L130.18,929.34L132.95,916.14L135.72,887.69L138.49,898.89L141.26,892.96L144.03,906.81L146.8,910.09L149.57,812.87L152.34,781.17L155.11,817.79L157.88,831.59L160.65,816.33L163.42,791.17L166.19,759.09L168.96,849.69L171.73,844.58L174.5,867.05L177.27,796.95L180.04,771.4L182.81,860L185.58,745.61L188.35,770.86L191.12,780.87L193.89,798.14L196.66,663.5L199.43,656.05L202.2,721.21L204.97,700.63L207.74,702.45L210.51,814.54L213.28,812.23L216.05,797.76L218.82,693.84L221.59,694.92L224.36,693.26L227.13,689.79L229.9,684.31L232.67,680.78L235.44,661.9L238.21,611.5L240.98,603.94L246.52,611.28L249.29,610.87L252.06,615.05L254.83,609.45L260.37,704.5L263.13,675.25L268.67,696.5L271.44,697.56L276.98,667.65L279.75,699.49L282.52,674.52L285.29,670.62L288.06,673.13L290.83,679.01L293.6,689.69L296.37,717.94L299.14,704.41L301.91,717.27L304.68,729.71L307.45,729.92L310.22,705.85L312.99,702.72L315.76,701.55L318.53,741.37L321.3,746.85L324.07,754.19L326.84,743.66L329.61,738.5L332.38,741.35L335.15,726.91L337.92,755.69L340.69,757.78L343.46,786.3L346.23,784.09L349,777.93L351.77,778.16L354.54,781.88L357.31,767.89L360.08,768.42L362.85,770.66L365.62,743.25L368.39,729.65L371.16,673.86L373.93,672.06L376.7,724.97L379.47,727.82L382.24,728.41L385.01,718.44L387.78,724.41L390.55,739.84L393.32,741.65L396.09,709.45L401.63,736.19L404.4,727.62L407.17,724.18L409.94,719.36L412.71,725.29L415.48,744.78L418.25,751.56L421.02,754.86L426.56,728.63L429.33,725.59L432.1,725.17L434.87,721.99L437.63,741.4L440.4,751.63L443.17,751.66L445.94,818.26L448.71,810.53L451.48,811.81L454.25,809.13L457.02,813.48L459.79,828.12L462.56,837.69L465.33,817.13L468.1,825.67L470.87,834.61L473.64,816.38L476.41,798.69L479.18,795.24L484.72,841.28L487.49,842.88L490.26,844.99L493.03,874.34L498.57,837.34L501.34,849.73L504.11,834.09L506.88,884.01L509.65,862.22L512.42,878.19L515.19,881.3L517.96,850.38L520.73,862.51L523.5,882.28L526.27,899.84L529.04,861.35L531.81,931.45L534.58,965.53L537.35,927.46L540.12,924.56L542.89,922.93L545.66,901.3L548.43,890.06L551.2,789.43L553.97,851.09L556.74,886.39L559.51,957.1L562.28,962.31L567.82,845L570.59,919.28L573.36,862.94L576.13,918L578.9,871.32L581.67,891.82L584.44,913.78L587.21,904.73L589.98,889.14L592.75,883.67L598.29,978.47L601.06,952.97L603.83,938.49L606.6,965.79L609.37,957.35L612.13,971.65L614.9,979.89L617.67,953.8L620.44,951.97L623.21,961.4L625.98,1017.4L628.75,949.76L631.52,995.63L634.29,1013.59L637.06,1122.98L639.83,1157.15L642.6,1146.95L645.37,1005.88L648.14,1024.69L650.91,1142.27L653.68,1128.23L656.45,1105.08L659.22,1126.82L661.99,1110.03L667.53,1140.31L670.3,1150.34L673.07,1245.45L675.84,1196.52L681.38,1218.14L684.15,1222.46L686.92,1209.93L689.69,1105.78L692.46,1141.55L695.23,1189.2L698,1163.95L700.77,1163.03L703.54,1161.12L706.31,1152.43L709.08,1160.81L711.85,1157.08L714.62,1161.48L717.39,1148.83L720.16,1123.25L722.93,1131.24L728.47,1164.24L731.24,1184.07L734.01,1179.27L736.78,1162.68L739.55,1174.38L742.32,1171.73L745.09,1172.19L747.86,1177.36L753.4,1158.99L756.17,1157.26L758.94,1159.26L761.71,1159.22L764.48,1189.01L767.25,1205L770.02,1187.05L772.79,1202.67L775.56,1199.52L778.33,1192.51L781.1,1194.24L783.87,1188.12L786.63,1182.08L789.4,1189.14L792.17,1128.28L794.94,1127.09L797.71,1123.81L800.48,1115.56L803.25,1118.49L806.02,1129.57L808.79,1134.32L811.56,1134.13L814.33,1145.35L817.1,1127.17L819.87,1133.27L822.64,1125.05L825.41,1105.21L828.18,1092.31L830.95,1118.51L833.72,1124.63L836.49,1109.16L839.26,1107.6L842.03,1107.91L844.8,1104.45L847.57,1091.47L850.34,1130.39L853.11,1109.97L855.88,1111.94L858.65,1108.97L861.42,1128.98L864.19,1118.93L866.96,1159.19L869.73,1147.6L872.5,1174.95L875.27,1165.83L878.04,1027.57L880.81,1132.06L883.58,1124.37L886.35,1176.58L889.12,1178.77L891.89,1166.25L894.66,1174.76L897.43,1124.54L900.2,1130.26L902.97,1124.3L905.74,1181.35L908.51,1193.34L911.28,1198.5L914.05,1197.64L916.82,1191.29L919.59,1186.26L922.36,1199.07L925.13,1192.21L927.9,1192.23L930.67,1180.4L933.44,1174.31L936.21,1167.45L938.98,1167.9L941.75,1156.34L944.52,1148.87L950.06,1161.41L952.83,1161.3L955.6,1159.37L958.37,1164.85L961.13,1178.15L963.9,1170.86L966.67,1165.36L969.44,1162.39L972.21,1164.42L974.98,1164.28L977.75,1163.52L980.52,1156.68L983.29,1157.95L986.06,1161.35L988.83,1154.93L991.6,1155.66L997.14,1172.6L999.91,1177.77L1002.68,1172.52L1005.45,1171.57L1008.22,1174.83L1010.99,1176.83L1013.76,1194.32L1016.53,1189.4L1019.3,1183.25L1022.07,1186.38L1024.84,1189.49L1027.61,1183.6L1030.38,1184.04L1033.15,1182.29L1035.92,1186.5L1038.69,1187.32L1041.46,1183.46L1044.23,1183.79L1047,1180.91L1049.77,1181.7L1052.54,1182.95L1055.31,1181.03L1058.08,1185.97L1060.85,1189.01L1063.62,1188.94L1066.39,1184.63L1069.16,1193.4L1071.93,1189.98L1074.7,1188.53L1077.47,1192.29L1080.24,1229.17L1083.01,1221.16L1085.78,1222.09L1088.55,1215.01L1091.32,1221.01L1094.09,1215.96L1096.86,1212.75L1099.63,1215.74L1102.4,1212.44L1105.17,1211.87L1107.94,1211.9L1110.71,1210.01L1113.48,1209.13L1116.25,1201.7L1119.02,1205.46L1121.79,1202.96L1127.33,1207.44L1130.1,1173.69L1132.87,1176.48L1135.63,1180.83L1138.4,1174.21L1141.17,1176.16L1143.94,1183.03L1146.71,1180.33L1149.48,1184.6L1152.25,1186.9L1155.02,1181.74L1157.79,1173.9L1160.56,1171.81L1163.33,1171.24L1166.1,1170.96L1168.87,1168.07L1171.64,1167.24L1174.41,1175.18L1177.18,1175.79L1179.95,1174.83L1182.72,1177.68L1185.49,1179.16L1188.26,1170.88L1191.03,1172.06L1193.8,1173.39L1196.57,1169.7L1199.34,1165.39L1202.11,1166.76L1204.88,1177.97L1207.65,1180.67L1210.42,1174.06L1213.19,1170.39L1215.96,1176.96L1218.73,1143.99L1221.5,1143.12L1224.27,1144.19L1227.04,1146.55L1229.81,1140.06L1232.58,1145.31L1235.35,1143.99L1238.12,1153.47L1240.89,1149.29L1243.66,1135.19L1246.43,1109.02L1249.2,1098.78L1251.97,1094.77L1257.51,1109.99L1260.28,1119.3L1263.05,1091.33L1265.82,1105.03L1268.59,1105.16L1271.36,1099.77L1274.13,1097.69L1276.9,1104.95L1279.67,1093.92L1282.44,1078.7L1285.21,1088L1287.98,1083.63L1290.75,1076.1L1293.52,1074.76L1296.29,1082.19L1299.06,1083.51L1301.83,1090.62L1304.6,1089.9L1307.37,1084.47L1310.13,1089.91L1312.9,1080.94L1315.67,1064.61L1318.44,1068.36L1321.21,1067.83L1323.98,1077.51L1326.75,1077.2L1329.52,1073.53L1332.29,1062.49L1335.06,1063.94L1337.83,1018.05L1340.6,1039.92L1343.37,1030.34L1346.14,1022.25L1348.91,1027.78L1351.68,1043.51L1354.45,1039.51L1357.22,1044.83L1359.99,1053.15L1362.76,1034.85L1365.53,1038.38L1368.3,1041.12L1371.07,1040.86L1373.84,1026.97L1376.61,1035.63L1379.38,1038.95L1382.15,1030.17L1384.92,1030.15L1387.69,1036.57L1390.46,1028.77L1393.23,1024.98L1396,1032.37L1398.77,1026.75L1401.54,1028.87L1404.31,990.07L1407.08,983.73L1409.85,984.32L1412.62,992.65L1415.39,981.05L1418.16,971.38L1420.93,991.39L1423.7,987.32L1426.47,992.86L1429.24,986.27L1432.01,991.06L1434.78,986.57L1437.55,991.76L1440.32,993.21L1443.09,992.49L1448.63,999.35L1451.4,1009.17L1454.17,1016.37L1456.94,1011.77L1459.71,1015.69L1462.48,1017.13L1465.25,1007.22L1468.02,1008.39L1470.79,997.35L1473.56,995.04L1479.1,1007.07L1481.87,1022.08L1487.4,1018.47L1490.17,1007.21L1492.94,1005.16L1495.71,1005.86L1498.48,1011.91L1501.25,1013.27L1504.02,1009.88L1506.79,1014.72L1509.56,1005.93L1512.33,1006.21L1515.1,1006.48L1517.87,999.53L1520.64,989.83L1523.41,994.24L1526.18,999.95L1528.95,999.56L1531.72,989.04L1534.49,994.54L1537.26,984.91L1540.03,983.3L1542.8,977.87L1545.57,975.69L1548.34,976.86L1551.11,980.78L1553.88,978.4L1556.65,977.44L1559.42,987.61L1562.19,989.59L1567.73,982.37L1570.5,951.74L1573.27,959.14L1576.04,954.61L1578.81,953.24L1581.58,957.89L1584.35,957.87L1587.12,960.05L1589.89,968.45L1592.66,966.19L1595.43,969.41L1598.2,968.87L1600.97,958.7L1603.74,959.96L1606.51,968.77L1609.28,955.28L1612.05,961.85L1614.82,959.87L1617.59,948.86L1620.36,961.08L1623.13,947.73L1625.9,944.28L1628.67,946.71L1631.44,932.82L1634.21,947.43L1636.98,953.04L1639.75,949.98L1642.52,945.19L1645.29,945.61L1648.06,953.21L1650.83,956.4L1653.6,938.64L1656.37,951.89L1659.13,945.23L1661.9,949.45L1664.67,956.17L1667.44,950.97L1670.21,943.31L1672.98,945.69L1675.75,946.65L1678.52,933.11L1681.29,932.11L1684.06,931.2L1686.83,925.51L1692.37,922.75L1695.14,924.39L1697.91,916.46L1700.68,927.65L1703.45,919.75L1706.22,933.77L1708.99,926.08L1711.76,935.91L1717.3,901.79L1720.07,899.93L1725.61,920.44L1728.38,900.29L1731.15,907.05L1733.92,906.13L1736.69,900.41L1739.46,898.34L1742.23,898.03L1745,907.46L1747.77,905.86L1750.54,902.49L1753.31,909.78L1756.08,906.86L1761.62,914.71L1764.39,908.58L1767.16,906.62L1769.93,906.81L1772.7,907.32L1775.47,903.22L1778.24,906.83L1781.01,916.77L1783.78,916.58L1786.55,908.45L1789.32,910.04L1792.09,906.1L1794.86,905.24L1797.63,896.45L1800.4,904.15L1803.17,902.28L1805.94,903.54L1808.71,891.86L1811.48,883.71L1814.25,888.58L1817.02,899.37L1819.79,892.33L1825.33,879.22L1828.1,868.63L1830.87,876.89L1833.63,869.6L1836.4,876.69L1839.17,869.37L1841.94,871.25L1844.71,807.85L1847.48,821.78L1850.25,817.9L1853.02,811.49L1855.79,815.19L1861.33,808.55L1864.1,808.15L1866.87,806.46L1869.64,811.8L1872.41,816.73L1875.18,817.73L1877.95,817.84L1880.72,820.16L1886.26,821.05L1889.03,825.4L1891.8,831.63L1894.57,834.45L1897.34,833.47L1900.11,834.42L1902.88,827.72L1905.65,835.37L1908.42,838.33L1911.19,834.06L1913.96,832.05L1916.73,833.02L1919.5,831.16L1922.27,830.58L1927.81,826.96L1930.58,819.28L1933.35,820.21L1936.12,811.51L1938.89,818.06L1941.66,817.25L1944.43,824.69L1947.2,820.65L1949.97,813.55L1952.74,809.82L1955.51,797.36L1958.28,801.44L1961.05,807.96L1963.82,818.88L1966.59,799.73L1969.36,801.01L1972.13,793.02L1974.9,789.64L1977.67,775.67L1980.44,786.9L1988.75,785.12L1991.52,782.04L1994.29,783.4L1997.06,781.02L1999.83,774.74L2002.6,770.68L2005.37,775.8L2008.13,786.04L2010.9,784.62L2013.67,775.56L2016.44,760.88L2019.21,758.83L2021.98,767.31L2024.75,764.51L2027.52,804.88L2030.29,746.96L2033.06,771.68L2035.83,758.46L2038.6,758.91L2041.37,756.26L2046.91,773.22L2049.68,774.09L2055.22,756.14L2057.99,775.03L2060.76,763.96L2063.53,772.19L2066.3,769.42L2069.07,760.98L2071.84,772.13L2074.61,769.12L2077.38,778.4L2080.15,777.94L2082.92,758.14L2085.69,776.23L2094,762.72L2096.77,760.71L2105.08,778.43L2107.85,776.45L2110.62,775.06L2113.39,772.14L2116.16,771.23L2118.93,764.96L2124.47,759.37L2127.24,759.5L2130.01,751.28L2132.78,753.51L2135.55,744.13L2138.32,743.61L2141.09,749.31L2143.86,743.41L2146.63,751.35L2149.4,749.96L2152.17,749.62L2154.94,761.57L2157.71,758.11L2160.48,770.87L2163.25,770.41L2166.02,751.52L2168.79,759.37L2171.56,754.89L2174.33,748.24L2177.1,760.01L2179.87,766.54L2182.63,753.82L2185.4,755.09L2188.17,758.06L2190.94,756.96L2193.71,752.59L2196.48,756.31L2199.25,752.33L2202.02,753.54L2204.79,755.73L2207.56,754.58L2210.33,760.42L2213.1,755.32L2215.87,758.19L2218.64,749.59L2221.41,752.18L2224.18,755.7L2226.95,761.74L2229.72,757.9L2232.49,759.43L2235.26,714.07L2238.03,714.2L2246.34,721.44L2249.11,715.52L2251.88,705.58L2254.65,706.37L2262.96,695.41L2265.73,707.49L2268.5,696.33L2271.27,694.02L2274.04,688.34L2276.81,695.16L2279.58,705.31L2282.35,704.82L2285.12,713.27L2287.89,705.89L2290.66,710.78L2293.43,703.21L2296.2,702.29L2298.97,702.47L2301.74,680.19L2304.51,693.94L2307.28,690.45L2310.05,693.18L2312.82,698.47L2315.59,682.34L2318.36,700.79L2321.13,701.86L2326.67,682.41L2329.44,686.68L2332.21,673.46L2334.98,688.75L2337.75,680.91L2340.52,682.87L2343.29,678.62L2346.06,677.97L2348.83,684.25L2351.6,634.71L2354.37,619.88L2357.13,621.1L2359.9,618.81L2362.67,625.39L2365.44,630.08L2368.21,623.58L2370.98,636.25L2373.75,625.99L2379.29,622.44L2382.06,603.44L2384.83,604.55L2387.6,594.02L2390.37,601.99L2393.14,603.12L2395.91,604.27L2398.68,611.67L2401.45,619.08L2404.22,575.55L2406.99,568.56L2409.76,528.38L2412.53,541.3L2415.3,569.95L2418.07,563.96L2420.84,537.75L2423.61,520.65L2426.38,520.81L2429.15,503.67L2431.92,505.75L2434.69,499.98L2437.46,505.79L2440.23,513.54L2443,512.21L2445.77,484.29L2448.54,481.8L2451.31,475.65L2454.08,472.65L2456.85,440.01L2459.62,440.7L2462.39,448.54L2465.16,442.89L2467.93,447.01L2470.7,430.76L2473.47,435.86L2476.24,448.33L2479.01,416.69L2481.78,424.2L2484.55,418.55L2487.32,419.09L2490.09,406.49L2492.86,410.97L2495.63,410.72L2498.4,406.53L2501.17,396.49L2503.94,397.49L2506.71,407.81L2509.48,386.66L2512.25,395.84L2515.02,369.29L2517.79,365.89L2520.56,356.5L2523.33,360.36L2526.1,354.26L2528.87,362.94L2531.63,341.89L2534.4,350.61L2537.17,272.14L2539.94,237.91L2542.71,283.63L2545.48,260.91L2548.25,257.33L2551.02,259.67L2553.79,238.09L2559.33,210.78L2562.1,222.23L2564.87,198.37L2567.64,210.76L2570.41,197.14L2573.18,215.98L2575.95,199.41L2578.72,200.62L2581.49,202.8L2584.26,211.05L2587.03,203.21L2589.8,203.59L2592.57,217.64L2595.34,168.69L2598.11,181.26L2600.88,178.96L2606.42,213.21L2609.19,235.44L2611.96,242.98L2614.73,212.74L2617.5,249.57L2620.27,254.91L2625.81,269.94L2628.58,247.53L2634.12,239.51L2636.89,273.64L2639.66,239.63L2642.43,245.5L2647.97,254.24L2650.74,259.31L2653.51,263.41L2656.28,284.4L2659.05,272.74L2661.82,275.14L2664.59,264.31L2667.36,292.38L2670.13,295.29L2672.9,289.33L2675.67,273.23L2678.44,266.77L2681.21,253.44L2683.98,223.66L2686.75,251.76L2689.52,225.19L2692.29,171.13L2695.06,211.66L2697.83,211.93L2700.6,178.1L2703.37,210.37L2708.9,198.38L2711.67,187.58L2714.44,205.4L2717.21,191.74L2719.98,162.45L2722.75,165.56L2725.52,175.34L2728.29,170.66L2731.06,167.47L2733.83,143.97L2736.6,171.45L2739.37,117.59L2742.14,138.08L2744.91,65.55L2747.68,110.37L2750.45,173.89L2753.22,163.06L2755.99,188.11L2758.76,193.94L2761.53,179.94L2764.3,212.64L2767.07,175.02L2769.84,166.16L2772.61,173.54L2775.38,224.89L2778.15,207.89L2780.92,276.54L2783.69,234.63L2786.46,238.1L2792,174.11" style="vector-effect: none; fill: none; stroke: rgb(25, 211, 243); stroke-opacity: 1; stroke-width: 2px; opacity: 1;"/></g><g class="points"/><g class="text"/></g></g></g><g class="overplot"/><path class="xlines-above crisp" d="M0,0" style="fill: none;"/><path class="ylines-above crisp" d="M0,0" style="fill: none;"/><g class="overlines-above"/><g class="xaxislayer-above"><g class="xtick"><text text-anchor="middle" x="0" y="1442" transform="translate(355.91999999999996,0)" style="font-family: 'Open Sans', verdana, arial, sans-serif; font-size: 30px; fill: rgb(42, 63, 95); fill-opacity: 1; white-space: pre; opacity: 1;">2006</text></g><g class="xtick"><text text-anchor="middle" x="0" y="1442" style="font-family: 'Open Sans', verdana, arial, sans-serif; font-size: 30px; fill: rgb(42, 63, 95); fill-opacity: 1; white-space: pre; opacity: 1;" transform="translate(644.77,0)">2008</text></g><g class="xtick"><text text-anchor="middle" x="0" y="1442" style="font-family: 'Open Sans', verdana, arial, sans-serif; font-size: 30px; fill: rgb(42, 63, 95); fill-opacity: 1; white-space: pre; opacity: 1;" transform="translate(934.02,0)">2010</text></g><g class="xtick"><text text-anchor="middle" x="0" y="1442" style="font-family: 'Open Sans', verdana, arial, sans-serif; font-size: 30px; fill: rgb(42, 63, 95); fill-opacity: 1; white-space: pre; opacity: 1;" transform="translate(1222.88,0)">2012</text></g><g class="xtick"><text text-anchor="middle" x="0" y="1442" style="font-family: 'Open Sans', verdana, arial, sans-serif; font-size: 30px; fill: rgb(42, 63, 95); fill-opacity: 1; white-space: pre; opacity: 1;" transform="translate(1512.13,0)">2014</text></g><g class="xtick"><text text-anchor="middle" x="0" y="1442" style="font-family: 'Open Sans', verdana, arial, sans-serif; font-size: 30px; fill: rgb(42, 63, 95); fill-opacity: 1; white-space: pre; opacity: 1;" transform="translate(1800.98,0)">2016</text></g><g class="xtick"><text text-anchor="middle" x="0" y="1442" style="font-family: 'Open Sans', verdana, arial, sans-serif; font-size: 30px; fill: rgb(42, 63, 95); fill-opacity: 1; white-space: pre; opacity: 1;" transform="translate(2090.23,0)">2018</text></g><g class="xtick"><text text-anchor="middle" x="0" y="1442" style="font-family: 'Open Sans', verdana, arial, sans-serif; font-size: 30px; fill: rgb(42, 63, 95); fill-opacity: 1; white-space: pre; opacity: 1;" transform="translate(2379.09,0)">2020</text></g><g class="xtick"><text text-anchor="middle" x="0" y="1442" style="font-family: 'Open Sans', verdana, arial, sans-serif; font-size: 30px; fill: rgb(42, 63, 95); fill-opacity: 1; white-space: pre; opacity: 1;" transform="translate(2668.34,0)">2022</text></g></g><g class="yaxislayer-above"><g class="ytick"><text text-anchor="end" x="127" y="10.5" transform="translate(0,1227.68)" style="font-family: 'Open Sans', verdana, arial, sans-serif; font-size: 30px; fill: rgb(42, 63, 95); fill-opacity: 1; white-space: pre; opacity: 1;">150k</text></g><g class="ytick"><text text-anchor="end" x="127" y="10.5" style="font-family: 'Open Sans', verdana, arial, sans-serif; font-size: 30px; fill: rgb(42, 63, 95); fill-opacity: 1; white-space: pre; opacity: 1;" transform="translate(0,950.23)">200k</text></g><g class="ytick"><text text-anchor="end" x="127" y="10.5" style="font-family: 'Open Sans', verdana, arial, sans-serif; font-size: 30px; fill: rgb(42, 63, 95); fill-opacity: 1; white-space: pre; opacity: 1;" transform="translate(0,672.79)">250k</text></g><g class="ytick"><text text-anchor="end" x="127" y="10.5" style="font-family: 'Open Sans', verdana, arial, sans-serif; font-size: 30px; fill: rgb(42, 63, 95); fill-opacity: 1; white-space: pre; opacity: 1;" transform="translate(0,395.34)">300k</text></g><g class="ytick"><text text-anchor="end" x="127" y="10.5" style="font-family: 'Open Sans', verdana, arial, sans-serif; font-size: 30px; fill: rgb(42, 63, 95); fill-opacity: 1; white-space: pre; opacity: 1;" transform="translate(0,117.9)">350k</text></g></g><g class="overaxes-above"/></g></g><g class="polarlayer"/><g class="smithlayer"/><g class="ternarylayer"/><g class="geolayer"/><g class="funnelarealayer"/><g class="pielayer"/><g class="iciclelayer"/><g class="treemaplayer"/><g class="sunburstlayer"/><g class="glimages"/><defs id="topdefs-49d6bc"><g class="clips"/><clipPath id="legend49d6bc"><rect width="484" height="262" x="0" y="0"/></clipPath></defs><g class="layer-above"><g class="imagelayer"/><g class="shapelayer"/></g><g class="infolayer"><g class="legend" pointer-events="all" transform="translate(128,100)"><rect class="bg" shape-rendering="crispEdges" width="484" height="262" x="0" y="0" style="stroke: rgb(68, 68, 68); stroke-opacity: 1; fill: rgb(255, 255, 255); fill-opacity: 1; stroke-width: 0px;"/><g class="scrollbox" transform="" clip-path="url(#legend49d6bc)"><g class="groups"><g class="traces" transform="translate(0,26)" style="opacity: 1;"><text class="legendtext" text-anchor="start" x="40" y="11.7" style="font-family: 'Open Sans', verdana, arial, sans-serif; font-size: 30px; fill: rgb(42, 63, 95); fill-opacity: 1; white-space: pre;">True values</text><g class="layers" style="opacity: 1;"><g class="legendfill"/><g class="legendlines"><path class="js-line" d="M5,0h30" style="fill: none; stroke: rgb(99, 110, 250); stroke-opacity: 1; stroke-width: 2px;"/></g><g class="legendsymbols"><g class="legendpoints"/></g></g><rect class="legendtoggle" x="0" y="-21" width="478.859375" height="42" style="fill: rgb(0, 0, 0); fill-opacity: 0;"/></g><g class="traces" transform="translate(0,68)" style="opacity: 1;"><text class="legendtext" text-anchor="start" x="40" y="11.7" style="font-family: 'Open Sans', verdana, arial, sans-serif; font-size: 30px; fill: rgb(42, 63, 95); fill-opacity: 1; white-space: pre;">Smoothed stacked prediction</text><g class="layers" style="opacity: 1;"><g class="legendfill"/><g class="legendlines"><path class="js-line" d="M5,0h30" style="fill: none; stroke: rgb(239, 85, 59); stroke-opacity: 1; stroke-width: 2px;"/></g><g class="legendsymbols"><g class="legendpoints"/></g></g><rect class="legendtoggle" x="0" y="-21" width="478.859375" height="42" style="fill: rgb(0, 0, 0); fill-opacity: 0;"/></g><g class="traces" transform="translate(0,110)" style="opacity: 1;"><text class="legendtext" text-anchor="start" x="40" y="11.7" style="font-family: 'Open Sans', verdana, arial, sans-serif; font-size: 30px; fill: rgb(42, 63, 95); fill-opacity: 1; white-space: pre;">Stacked prediction</text><g class="layers" style="opacity: 0.4;"><g class="legendfill"/><g class="legendlines"><path class="js-line" d="M5,0h30" style="fill: none; stroke: rgb(0, 204, 150); stroke-opacity: 1; stroke-width: 2px;"/></g><g class="legendsymbols"><g class="legendpoints"/></g></g><rect class="legendtoggle" x="0" y="-21" width="478.859375" height="42" style="fill: rgb(0, 0, 0); fill-opacity: 0;"/></g><g class="traces" transform="translate(0,152)" style="opacity: 1;"><text class="legendtext" text-anchor="start" x="40" y="11.7" style="font-family: 'Open Sans', verdana, arial, sans-serif; font-size: 30px; fill: rgb(42, 63, 95); fill-opacity: 1; white-space: pre;">LightGBM prediction</text><g class="layers" style="opacity: 0.2;"><g class="legendfill"/><g class="legendlines"><path class="js-line" d="M5,0h30" style="fill: none; stroke: rgb(171, 99, 250); stroke-opacity: 1; stroke-width: 2px;"/></g><g class="legendsymbols"><g class="legendpoints"/></g></g><rect class="legendtoggle" x="0" y="-21" width="478.859375" height="42" style="fill: rgb(0, 0, 0); fill-opacity: 0;"/></g><g class="traces" transform="translate(0,194)" style="opacity: 1;"><text class="legendtext" text-anchor="start" x="40" y="11.7" style="font-family: 'Open Sans', verdana, arial, sans-serif; font-size: 30px; fill: rgb(42, 63, 95); fill-opacity: 1; white-space: pre;">XGBoost prediction</text><g class="layers" style="opacity: 0.2;"><g class="legendfill"/><g class="legendlines"><path class="js-line" d="M5,0h30" style="fill: none; stroke: rgb(255, 161, 90); stroke-opacity: 1; stroke-width: 2px;"/></g><g class="legendsymbols"><g class="legendpoints"/></g></g><rect class="legendtoggle" x="0" y="-21" width="478.859375" height="42" style="fill: rgb(0, 0, 0); fill-opacity: 0;"/></g><g class="traces" transform="translate(0,236)" style="opacity: 1;"><text class="legendtext" text-anchor="start" x="40" y="11.7" style="font-family: 'Open Sans', verdana, arial, sans-serif; font-size: 30px; fill: rgb(42, 63, 95); fill-opacity: 1; white-space: pre;">CatBoost prediction</text><g class="layers" style="opacity: 0.2;"><g class="legendfill"/><g class="legendlines"><path class="js-line" d="M5,0h30" style="fill: none; stroke: rgb(25, 211, 243); stroke-opacity: 1; stroke-width: 2px;"/></g><g class="legendsymbols"><g class="legendpoints"/></g></g><rect class="legendtoggle" x="0" y="-21" width="478.859375" height="42" style="fill: rgb(0, 0, 0); fill-opacity: 0;"/></g></g></g><rect class="scrollbar" rx="20" ry="3" width="0" height="0" x="0" y="0" style="fill: rgb(128, 139, 164); fill-opacity: 1;"/></g><g class="g-gtitle"><text class="gtitle" x="1500" y="50" text-anchor="middle" dy="0em" style="font-family: 'Open Sans', verdana, arial, sans-serif; font-size: 42px; fill: rgb(42, 63, 95); opacity: 1; font-weight: normal; white-space: pre;">Predictions vs Case-Shiller</text></g><g class="g-xtitle"><text class="xtitle" x="1524" y="1487.7" text-anchor="middle" style="font-family: 'Open Sans', verdana, arial, sans-serif; font-size: 36px; fill: rgb(42, 63, 95); opacity: 1; font-weight: normal; white-space: pre;">Date</text></g><g class="g-ytitle" transform="translate(23.6845703125,0)"><text class="ytitle" transform="rotate(-90,12.315624999999997,755.5)" x="12.315624999999997" y="755.5" text-anchor="middle" style="font-family: 'Open Sans', verdana, arial, sans-serif; font-size: 36px; fill: rgb(42, 63, 95); opacity: 1; font-weight: normal; white-space: pre;">Home price, $</text></g></g></svg>